SplineFontDB: 3.0
FontName: Chivo-Bold
FullName: Chivo Bold
FamilyName: Chivo
Weight: Bold
Copyright: Copyright (c) 2011-2014 by Omnibus-Type (www.omnibus-type.com omnibus.type@gmail.com), with Reserved Font Name 'Chivo'
UComments: "Disclaimer+AAoA +AAoA-Omnibus-Type give no warranty in relation to this font, and you use this+AAoA-at your own risk.+AAoA +AAoA-Omnibus-Type shall not be liable for any direct, indirect, consequential, or incidental damages (including damages from loss of business profits, business interruption, loss of business information, and the like) arising out of the use of or inability to use the fonts.+AAoA +AAoA +AAoA-If you have further questions, please contact us:+AAoA-omnibus.type@gmail.com" 

StartChar: .notdef
Encoding: 65536 -1 0
Width: 500
Flags: MW
HStem: 0 50<80 420 80 500> 650 50<80 80 80 420>
VStem: 0 50<95 605 95 700> 450 50<95 605 605 605>
LayerCount: 2
Fore
SplineSet
500 700 m 1,0,-1
 500 0 l 1,1,-1
 0 0 l 1,2,-1
 0 700 l 1,3,-1
 500 700 l 1,0,-1
80 650 m 1,4,-1
 250 395 l 1,5,-1
 420 650 l 1,6,-1
 80 650 l 1,4,-1
220 350 m 1,7,-1
 50 605 l 1,8,-1
 50 95 l 1,9,-1
 220 350 l 1,7,-1
450 605 m 1,10,-1
 280 350 l 1,11,-1
 450 95 l 1,12,-1
 450 605 l 1,10,-1
250 305 m 1,13,-1
 80 50 l 1,14,-1
 420 50 l 1,15,-1
 250 305 l 1,13,-1
EndSplineSet
EndChar

StartChar: A
Encoding: 65 65 1
Width: 686
GlyphClass: 2
Flags: MW
HStem: 0 21G<2 151 2 2 522 522 522 684> 135 117<199 431 241 431 241 472> 521 165<334 334 334 339> 666 20G<251 435 435 435>
VStem: 2 682<0 0>
LayerCount: 2
Fore
SplineSet
199 135 m 1,0,-1
 151 0 l 1,1,-1
 2 0 l 1,2,-1
 251 686 l 1,3,-1
 435 686 l 1,4,-1
 684 0 l 1,5,-1
 522 0 l 1,6,-1
 472 135 l 1,7,-1
 199 135 l 1,0,-1
334 521 m 1,8,-1
 241 252 l 1,9,-1
 431 252 l 1,10,11
 393 365 393 365 339 521 c 1,12,-1
 334 521 l 1,8,-1
EndSplineSet
Substitution2: "Single Substitution lookup 5 subtable" ordfeminine
Substitution2: "'aalt' Access All Alternates lookup 0 subtable" ordfeminine
Position2: "'cpsp' Capital Spacing lookup 0 subtable" dx=5 dy=0 dh=10 dv=0
EndChar

StartChar: Aacute
Encoding: 193 193 2
Width: 686
GlyphClass: 2
Flags: MW
HStem: 0 21G<2 151 2 2 522 522 522 684> 135 117<199 431 241 431 241 472> 521 165<334 334 334 339> 666 20G<251 435 435 435> 750 145<361 370 269 490>
VStem: 2 682<0 0>
LayerCount: 2
Fore
SplineSet
361 895 m 1,0,-1
 490 895 l 1,1,-1
 491 892 l 1,2,-1
 370 750 l 1,3,-1
 269 750 l 1,4,-1
 361 895 l 1,0,-1
199 135 m 1,5,-1
 151 0 l 1,6,-1
 2 0 l 1,7,-1
 251 686 l 1,8,-1
 435 686 l 1,9,-1
 684 0 l 1,10,-1
 522 0 l 1,11,-1
 472 135 l 1,12,-1
 199 135 l 1,5,-1
334 521 m 1,13,-1
 241 252 l 1,14,-1
 431 252 l 1,15,16
 393 365 393 365 339 521 c 1,17,-1
 334 521 l 1,13,-1
EndSplineSet
Position2: "'cpsp' Capital Spacing lookup 0 subtable" dx=5 dy=0 dh=10 dv=0
EndChar

StartChar: Abreve
Encoding: 258 258 3
Width: 686
GlyphClass: 2
Flags: MW
HStem: 0 21G<2 151 2 2 522 522 522 684> 135 117<199 431 241 431 241 472> 521 165<334 334 334 339> 666 20G<251 435 435 435> 788 74<313 370 313 395.5>
VStem: 2 682<0 0>
LayerCount: 2
Fore
SplineSet
342 788 m 128,-1,1
 265 788 265 788 207.5 827.5 c 128,-1,2
 150 867 150 867 150 912 c 1,3,-1
 231 912 l 1,4,5
 236 893 236 893 268 877.5 c 128,-1,6
 300 862 300 862 341 862 c 0,7,8
 382 862 382 862 415.5 878 c 128,-1,9
 449 894 449 894 453 912 c 1,10,-1
 535 912 l 1,11,12
 535 867 535 867 477 827.5 c 128,-1,0
 419 788 419 788 342 788 c 128,-1,1
199 135 m 1,13,-1
 151 0 l 1,14,-1
 2 0 l 1,15,-1
 251 686 l 1,16,-1
 435 686 l 1,17,-1
 684 0 l 1,18,-1
 522 0 l 1,19,-1
 472 135 l 1,20,-1
 199 135 l 1,13,-1
334 521 m 1,21,-1
 241 252 l 1,22,-1
 431 252 l 1,23,24
 393 365 393 365 339 521 c 1,25,-1
 334 521 l 1,21,-1
EndSplineSet
EndChar

StartChar: Acircumflex
Encoding: 194 194 4
Width: 686
GlyphClass: 2
Flags: MW
HStem: 0 21G<2 151 2 2 522 522 522 684> 135 117<199 431 241 431 241 472> 521 165<334 334 334 339> 666 20G<251 435 435 435> 750 145<154 395 154 395 292 532 292 427>
VStem: 2 682<0 0>
LayerCount: 2
Fore
SplineSet
292 895 m 1,0,-1
 395 895 l 1,1,2
 483 801 483 801 532 750 c 1,3,-1
 427 750 l 1,4,-1
 343 833 l 1,5,-1
 258 750 l 1,6,-1
 154 750 l 1,7,-1
 292 895 l 1,0,-1
199 135 m 1,8,-1
 151 0 l 1,9,-1
 2 0 l 1,10,-1
 251 686 l 1,11,-1
 435 686 l 1,12,-1
 684 0 l 1,13,-1
 522 0 l 1,14,-1
 472 135 l 1,15,-1
 199 135 l 1,8,-1
334 521 m 1,16,-1
 241 252 l 1,17,-1
 431 252 l 1,18,19
 393 365 393 365 339 521 c 1,20,-1
 334 521 l 1,16,-1
EndSplineSet
Position2: "'cpsp' Capital Spacing lookup 0 subtable" dx=5 dy=0 dh=10 dv=0
EndChar

StartChar: Adieresis
Encoding: 196 196 5
Width: 686
GlyphClass: 2
Flags: MW
HStem: 0 21G<2 151 2 2 522 522 522 684> 135 117<199 431 241 431 241 472> 521 165<334 334 334 339> 666 20G<251 435 435 435> 749 122<176 297 176 297 176 380 380 501>
VStem: 176 121<749 871 749 871> 380 121<749 871 749 871>
LayerCount: 2
Fore
SplineSet
297 871 m 1,0,-1
 297 749 l 1,1,-1
 176 749 l 1,2,-1
 176 871 l 1,3,-1
 297 871 l 1,0,-1
501 871 m 1,4,-1
 501 749 l 1,5,-1
 380 749 l 1,6,-1
 380 871 l 1,7,-1
 501 871 l 1,4,-1
199 135 m 1,8,-1
 151 0 l 1,9,-1
 2 0 l 1,10,-1
 251 686 l 1,11,-1
 435 686 l 1,12,-1
 684 0 l 1,13,-1
 522 0 l 1,14,-1
 472 135 l 1,15,-1
 199 135 l 1,8,-1
334 521 m 1,16,-1
 241 252 l 1,17,-1
 431 252 l 1,18,19
 393 365 393 365 339 521 c 1,20,-1
 334 521 l 1,16,-1
EndSplineSet
Position2: "'cpsp' Capital Spacing lookup 0 subtable" dx=5 dy=0 dh=10 dv=0
EndChar

StartChar: Agrave
Encoding: 192 192 6
Width: 686
GlyphClass: 2
Flags: MW
HStem: 0 21G<2 151 2 2 522 522 522 684> 135 117<199 431 241 431 241 472> 521 165<334 334 334 339> 666 20G<251 435 435 435> 750 145<307 316 188 409 307 307>
VStem: 2 682<0 0>
LayerCount: 2
Fore
SplineSet
187 892 m 1,0,-1
 188 895 l 1,1,-1
 316 895 l 1,2,-1
 409 750 l 1,3,-1
 307 750 l 1,4,-1
 187 892 l 1,0,-1
199 135 m 1,5,-1
 151 0 l 1,6,-1
 2 0 l 1,7,-1
 251 686 l 1,8,-1
 435 686 l 1,9,-1
 684 0 l 1,10,-1
 522 0 l 1,11,-1
 472 135 l 1,12,-1
 199 135 l 1,5,-1
334 521 m 1,13,-1
 241 252 l 1,14,-1
 431 252 l 1,15,16
 393 365 393 365 339 521 c 1,17,-1
 334 521 l 1,13,-1
EndSplineSet
Position2: "'cpsp' Capital Spacing lookup 0 subtable" dx=5 dy=0 dh=10 dv=0
EndChar

StartChar: Amacron
Encoding: 256 256 7
Width: 686
GlyphClass: 2
Flags: MW
HStem: 0 21G<2 151 2 2 522 522 522 684> 135 117<199 431 241 431 241 472> 521 165<334 334 334 339> 666 20G<251 435 435 435> 837 74<184 502 184 502>
VStem: 2 682<0 0>
LayerCount: 2
Fore
SplineSet
184 911 m 1,0,-1
 502 911 l 1,1,-1
 502 837 l 1,2,-1
 184 837 l 1,3,-1
 184 911 l 1,0,-1
199 135 m 1,4,-1
 151 0 l 1,5,-1
 2 0 l 1,6,-1
 251 686 l 1,7,-1
 435 686 l 1,8,-1
 684 0 l 1,9,-1
 522 0 l 1,10,-1
 472 135 l 1,11,-1
 199 135 l 1,4,-1
334 521 m 1,12,-1
 241 252 l 1,13,-1
 431 252 l 1,14,15
 393 365 393 365 339 521 c 1,16,-1
 334 521 l 1,12,-1
EndSplineSet
EndChar

StartChar: Aogonek
Encoding: 260 260 8
Width: 686
GlyphClass: 2
Flags: MW
HStem: -143 50<603.5 614.5> 0 21G<2 151 2 2 522 555 522 522 617 617 617 684> 135 117<241 431 241 472 199 431> 521 165<334 339 334 334> 666 20G<251 435 435 435>
VStem: 501 69<-71 -55>
LayerCount: 2
Fore
SplineSet
681 -79 m 1,0,-1
 694 -119 l 1,1,2
 650 -143 650 -143 604 -143 c 0,3,4
 501 -143 501 -143 501 -71 c 0,5,6
 501 -36 501 -36 555 0 c 1,7,-1
 522 0 l 1,8,-1
 472 135 l 1,9,-1
 199 135 l 1,10,-1
 151 0 l 1,11,-1
 2 0 l 1,12,-1
 251 686 l 1,13,-1
 435 686 l 1,14,-1
 684 0 l 1,15,-1
 617 0 l 1,16,17
 570 -26 570 -26 570 -57 c 0,18,19
 570 -93 570 -93 614 -93 c 0,20,21
 644 -93 644 -93 681 -79 c 1,0,-1
241 252 m 1,22,-1
 431 252 l 1,23,24
 393 365 393 365 339 521 c 1,25,-1
 334 521 l 1,26,-1
 241 252 l 1,22,-1
EndSplineSet
EndChar

StartChar: Aring
Encoding: 197 197 9
Width: 686
GlyphClass: 2
Flags: MW
HStem: 0 21G<2 151 2 2 522 522 522 684> 135 117<199 431 241 431 241 472> 521 165<334 334 334 339> 666 20G<251 435 435 435> 729 57<335 359 335 375> 874 57<335 359>
VStem: 246 57<818 842 818 858> 391 57<818 842>
LayerCount: 2
Fore
SplineSet
246 830 m 128,-1,1
 246 872 246 872 275.5 901.5 c 128,-1,2
 305 931 305 931 347 931 c 128,-1,3
 389 931 389 931 418.5 901.5 c 128,-1,4
 448 872 448 872 448 830 c 128,-1,5
 448 788 448 788 418.5 758.5 c 128,-1,6
 389 729 389 729 347 729 c 128,-1,7
 305 729 305 729 275.5 758.5 c 128,-1,0
 246 788 246 788 246 830 c 128,-1,1
303 830 m 128,-1,9
 303 812 303 812 316 799 c 128,-1,10
 329 786 329 786 347 786 c 128,-1,11
 365 786 365 786 378 799 c 128,-1,12
 391 812 391 812 391 830 c 128,-1,13
 391 848 391 848 378 861 c 128,-1,14
 365 874 365 874 347 874 c 128,-1,15
 329 874 329 874 316 861 c 128,-1,8
 303 848 303 848 303 830 c 128,-1,9
199 135 m 1,16,-1
 151 0 l 1,17,-1
 2 0 l 1,18,-1
 251 686 l 1,19,-1
 435 686 l 1,20,-1
 684 0 l 1,21,-1
 522 0 l 1,22,-1
 472 135 l 1,23,-1
 199 135 l 1,16,-1
334 521 m 1,24,-1
 241 252 l 1,25,-1
 431 252 l 1,26,27
 393 365 393 365 339 521 c 1,28,-1
 334 521 l 1,24,-1
EndSplineSet
Position2: "'cpsp' Capital Spacing lookup 0 subtable" dx=5 dy=0 dh=10 dv=0
EndChar

StartChar: Atilde
Encoding: 195 195 10
Width: 686
GlyphClass: 2
Flags: MW
HStem: 0 21G<2 151 2 2 522 522 522 684> 135 117<199 431 241 431 241 472> 521 165<334 334 334 339> 666 20G<251 435 435 435> 749 86<401 442 401 459> 786 87<235 276>
VStem: 2 682<0 0>
LayerCount: 2
Fore
SplineSet
481 873 m 1,0,-1
 546 873 l 1,1,2
 546 825 546 825 511 787 c 128,-1,3
 476 749 476 749 420 749 c 0,4,5
 387 749 387 749 331 767.5 c 128,-1,6
 275 786 275 786 249 786 c 0,7,8
 208 786 208 786 197 749 c 1,9,-1
 131 749 l 1,10,11
 131 796 131 796 166.5 834.5 c 128,-1,12
 202 873 202 873 258 873 c 0,13,14
 291 873 291 873 346.5 854 c 128,-1,15
 402 835 402 835 428 835 c 0,16,17
 469 835 469 835 481 873 c 1,0,-1
199 135 m 1,18,-1
 151 0 l 1,19,-1
 2 0 l 1,20,-1
 251 686 l 1,21,-1
 435 686 l 1,22,-1
 684 0 l 1,23,-1
 522 0 l 1,24,-1
 472 135 l 1,25,-1
 199 135 l 1,18,-1
334 521 m 1,26,-1
 241 252 l 1,27,-1
 431 252 l 1,28,29
 393 365 393 365 339 521 c 1,30,-1
 334 521 l 1,26,-1
EndSplineSet
Position2: "'cpsp' Capital Spacing lookup 0 subtable" dx=5 dy=0 dh=10 dv=0
EndChar

StartChar: AE
Encoding: 198 198 11
Width: 1004
GlyphClass: 2
Flags: MW
HStem: 0 126<653 947 653 964> 135 117<273 464 273 488 215 464> 290 121<615 922 615 615> 562 124<555 944 555 555>
VStem: 0 964<0 0>
LayerCount: 2
Fore
SplineSet
488 135 m 1,0,-1
 215 135 l 1,1,2
 169 45 169 45 147 0 c 1,3,-1
 0 0 l 1,4,-1
 344 686 l 1,5,-1
 960 686 l 1,6,-1
 944 562 l 1,7,-1
 555 562 l 1,8,-1
 589 411 l 1,9,-1
 922 411 l 1,10,-1
 922 290 l 1,11,-1
 615 290 l 1,12,13
 639 192 639 192 653 126 c 1,14,-1
 947 126 l 1,15,-1
 964 0 l 1,16,-1
 518 0 l 1,17,-1
 488 135 l 1,0,-1
464 252 m 1,18,-1
 409 521 l 1,19,-1
 404 521 l 1,20,21
 339 388.4 339 388.4 273 252 c 1,22,-1
 464 252 l 1,18,-1
EndSplineSet
Position2: "'cpsp' Capital Spacing lookup 0 subtable" dx=5 dy=0 dh=10 dv=0
EndChar

StartChar: B
Encoding: 66 66 12
Width: 645
GlyphClass: 2
Flags: MW
HStem: 0 124<218 379 379 401 218 418> 291 117<218 368 368 379 218 368> 568 118<218 368 218 218>
VStem: 72 146<124 124 124 291 408 568> 444 148<467.5 520> 458 150<203 212 212 234>
LayerCount: 2
Fore
SplineSet
72 686 m 1,0,-1
 412 686 l 2,1,2
 486 686 486 686 539 637 c 128,-1,3
 592 588 592 588 592 518 c 0,4,5
 592 390 592 390 475 358 c 1,6,-1
 475 353 l 1,7,8
 530 342 530 342 569 302 c 128,-1,9
 608 262 608 262 608 184.5 c 0,10,11
 608 107 608 107 552.5 53.5 c 128,-1,12
 497 0 497 0 418 0 c 2,13,-1
 72 0 l 1,14,-1
 72 686 l 1,0,-1
218 408 m 1,15,-1
 368 408 l 2,16,17
 398 408 398 408 421 431 c 128,-1,18
 444 454 444 454 444 492.5 c 0,19,20
 444 531 444 531 421 549.5 c 128,-1,21
 398 568 398 568 368 568 c 2,22,-1
 218 568 l 1,23,-1
 218 408 l 1,15,-1
218 124 m 1,24,-1
 379 124 l 2,25,26
 412 124 412 124 435 147 c 128,-1,27
 458 170 458 170 458 203 c 2,28,-1
 458 212 l 2,29,30
 458 245 458 245 435 268 c 128,-1,31
 412 291 412 291 379 291 c 2,32,-1
 218 291 l 1,33,-1
 218 124 l 1,24,-1
EndSplineSet
Position2: "'cpsp' Capital Spacing lookup 0 subtable" dx=5 dy=0 dh=10 dv=0
EndChar

StartChar: C
Encoding: 67 67 13
Width: 683
GlyphClass: 2
Flags: MW
HStem: -10 123<315 348 348 362> 573 123<344 358 358 397>
VStem: 48 162<294 392 392 414 219.5 489> 494 141<216.5 270>
AnchorPoint: "Bottom" 342 0 basechar 0
LayerCount: 2
Fore
SplineSet
210 414 m 2,0,-1
 210 272 l 2,1,2
 210 196 210 196 251 154.5 c 128,-1,3
 292 113 292 113 359 113 c 0,4,5
 494 113 494 113 494 270 c 1,6,-1
 635 270 l 1,7,8
 635 138 635 138 558 64 c 128,-1,9
 481 -10 481 -10 362 -10 c 2,10,-1
 348 -10 l 2,11,12
 216 -10 216 -10 132 69.5 c 128,-1,13
 48 149 48 149 48 294 c 2,14,-1
 48 392 l 2,15,16
 48 533 48 533 132 614.5 c 128,-1,17
 216 696 216 696 344 696 c 2,18,-1
 358 696 l 2,19,20
 481 696 481 696 558 623 c 128,-1,21
 635 550 635 550 635 414 c 1,22,-1
 488 414 l 1,23,24
 488 492 488 492 453.5 532.5 c 128,-1,25
 419 573 419 573 355 573 c 128,-1,26
 291 573 291 573 250.5 531.5 c 128,-1,27
 210 490 210 490 210 414 c 2,0,-1
EndSplineSet
Position2: "'cpsp' Capital Spacing lookup 0 subtable" dx=5 dy=0 dh=10 dv=0
EndChar

StartChar: Cacute
Encoding: 262 262 14
Width: 683
GlyphClass: 2
Flags: MW
HStem: -10 123<315 348 348 362> 573 123<344 358 358 397> 750 145<353 362 261 482>
VStem: 48 162<294 392 392 414 219.5 489> 494 141<216.5 270>
AnchorPoint: "Bottom" 342 0 basechar 0
LayerCount: 2
Fore
SplineSet
353 895 m 1,0,-1
 482 895 l 1,1,-1
 483 892 l 1,2,-1
 362 750 l 1,3,-1
 261 750 l 1,4,-1
 353 895 l 1,0,-1
210 414 m 2,5,-1
 210 272 l 2,6,7
 210 196 210 196 251 154.5 c 128,-1,8
 292 113 292 113 359 113 c 0,9,10
 494 113 494 113 494 270 c 1,11,-1
 635 270 l 1,12,13
 635 138 635 138 558 64 c 128,-1,14
 481 -10 481 -10 362 -10 c 2,15,-1
 348 -10 l 2,16,17
 216 -10 216 -10 132 69.5 c 128,-1,18
 48 149 48 149 48 294 c 2,19,-1
 48 392 l 2,20,21
 48 533 48 533 132 614.5 c 128,-1,22
 216 696 216 696 344 696 c 2,23,-1
 358 696 l 2,24,25
 481 696 481 696 558 623 c 128,-1,26
 635 550 635 550 635 414 c 1,27,-1
 488 414 l 1,28,29
 488 492 488 492 453.5 532.5 c 128,-1,30
 419 573 419 573 355 573 c 128,-1,31
 291 573 291 573 250.5 531.5 c 128,-1,32
 210 490 210 490 210 414 c 2,5,-1
EndSplineSet
EndChar

StartChar: Ccaron
Encoding: 268 268 15
Width: 683
GlyphClass: 2
Flags: MW
HStem: -10 123<315 348 348 362> 573 123<344 358 358 397> 750 145<153 394 153 291>
VStem: 48 162<294 392 392 414 219.5 489> 494 141<216.5 270>
AnchorPoint: "Bottom" 342 0 basechar 0
LayerCount: 2
Fore
SplineSet
258 895 m 1,0,-1
 343 812 l 1,1,-1
 427 895 l 1,2,-1
 531 895 l 1,3,4
 482 844 482 844 394 750 c 1,5,-1
 291 750 l 1,6,-1
 153 895 l 1,7,-1
 258 895 l 1,0,-1
210 414 m 2,8,-1
 210 272 l 2,9,10
 210 196 210 196 251 154.5 c 128,-1,11
 292 113 292 113 359 113 c 0,12,13
 494 113 494 113 494 270 c 1,14,-1
 635 270 l 1,15,16
 635 138 635 138 558 64 c 128,-1,17
 481 -10 481 -10 362 -10 c 2,18,-1
 348 -10 l 2,19,20
 216 -10 216 -10 132 69.5 c 128,-1,21
 48 149 48 149 48 294 c 2,22,-1
 48 392 l 2,23,24
 48 533 48 533 132 614.5 c 128,-1,25
 216 696 216 696 344 696 c 2,26,-1
 358 696 l 2,27,28
 481 696 481 696 558 623 c 128,-1,29
 635 550 635 550 635 414 c 1,30,-1
 488 414 l 1,31,32
 488 492 488 492 453.5 532.5 c 128,-1,33
 419 573 419 573 355 573 c 128,-1,34
 291 573 291 573 250.5 531.5 c 128,-1,35
 210 490 210 490 210 414 c 2,8,-1
EndSplineSet
EndChar

StartChar: Ccedilla
Encoding: 199 199 16
Width: 683
GlyphClass: 2
Flags: MW
HStem: -197 55<323.5 351.5 314.5 364> -68 51<322 342 322 345> -10 123<315 348 348 362> 573 123<344 358 358 397>
VStem: 48 162<294 392 392 414 219.5 489> 387 74<-117.5 -92.5> 494 141<216.5 270>
LayerCount: 2
Fore
SplineSet
210 414 m 2,0,-1
 210 272 l 2,1,2
 210 196 210 196 251 154.5 c 128,-1,3
 292 113 292 113 359 113 c 0,4,5
 494 113 494 113 494 270 c 1,6,-1
 635 270 l 1,7,8
 635 138 635 138 558 64 c 128,-1,9
 481 -10 481 -10 362 -10 c 2,10,-1
 348 -10 l 2,11,12
 216 -10 216 -10 132 69.5 c 128,-1,13
 48 149 48 149 48 294 c 2,14,-1
 48 392 l 2,15,16
 48 533 48 533 132 614.5 c 128,-1,17
 216 696 216 696 344 696 c 2,18,-1
 358 696 l 2,19,20
 481 696 481 696 558 623 c 128,-1,21
 635 550 635 550 635 414 c 1,22,-1
 488 414 l 1,23,24
 488 492 488 492 453.5 532.5 c 128,-1,25
 419 573 419 573 355 573 c 128,-1,26
 291 573 291 573 250.5 531.5 c 128,-1,27
 210 490 210 490 210 414 c 2,0,-1
255 -116 m 1,28,29
 299.571428571 -142 299.571428571 -142 338 -142 c 0,30,31
 387 -142 387 -142 387 -104 c 0,32,33
 387 -68 387 -68 342 -68 c 2,34,-1
 322 -68 l 1,35,-1
 322 -17 l 1,36,-1
 345 -17 l 2,37,38
 461 -17 461 -17 461 -107 c 0,39,40
 461 -142 461 -142 439 -163.5 c 128,-1,41
 417 -185 417 -185 393 -191 c 128,-1,42
 369 -197 369 -197 342 -197 c 0,43,44
 275 -197 275 -197 234 -168 c 1,45,-1
 255 -116 l 1,28,29
EndSplineSet
Position2: "'cpsp' Capital Spacing lookup 0 subtable" dx=5 dy=0 dh=10 dv=0
EndChar

StartChar: D
Encoding: 68 68 17
Width: 686
GlyphClass: 2
Flags: MW
HStem: 0 123<227 332 227 332> 563 123<227 332 227 227>
VStem: 72 155<123 123 123 563> 476 162<282 304 304 382 206.5 404 206.5 456.5>
LayerCount: 2
Fore
SplineSet
72 686 m 1,0,-1
 332 686 l 2,1,2
 463 686 463 686 550.5 604.5 c 128,-1,3
 638 523 638 523 638 382 c 2,4,-1
 638 304 l 2,5,6
 638 163 638 163 550.5 81.5 c 128,-1,7
 463 0 463 0 332 0 c 2,8,-1
 72 0 l 1,9,-1
 72 686 l 1,0,-1
227 123 m 1,10,-1
 332 123 l 2,11,12
 396 123 396 123 436 164.5 c 128,-1,13
 476 206 476 206 476 282 c 2,14,-1
 476 404 l 2,15,16
 476 480 476 480 436 521.5 c 128,-1,17
 396 563 396 563 332 563 c 2,18,-1
 227 563 l 1,19,-1
 227 123 l 1,10,-1
EndSplineSet
Position2: "'cpsp' Capital Spacing lookup 0 subtable" dx=5 dy=0 dh=10 dv=0
EndChar

StartChar: Eth
Encoding: 208 208 18
Width: 686
GlyphClass: 2
Flags: MW
HStem: 0 124<227 337 337 347> 303 80<-11 73 -11 73 227 339> 563 123<227 337 227 227>
VStem: 73 154<124 124 124 303 383 563> 480 158<317 382 210.5 387 210.5 443.5>
LayerCount: 2
Fore
SplineSet
73 383 m 1,0,-1
 73 686 l 1,1,-1
 347 686 l 2,2,3
 471 686 471 686 554.5 602.5 c 128,-1,4
 638 519 638 519 638 382 c 2,5,-1
 638 304 l 2,6,7
 638 167 638 167 554.5 83.5 c 128,-1,8
 471 0 471 0 347 0 c 2,9,-1
 73 0 l 1,10,-1
 73 303 l 1,11,-1
 -11 303 l 1,12,-1
 -11 383 l 1,13,-1
 73 383 l 1,0,-1
227 124 m 1,14,-1
 337 124 l 2,15,16
 480 124 480 124 480 317 c 2,17,-1
 480 387 l 2,18,19
 480 472 480 472 443 517.5 c 128,-1,20
 406 563 406 563 337 563 c 2,21,-1
 227 563 l 1,22,-1
 227 383 l 1,23,-1
 339 383 l 1,24,-1
 339 303 l 1,25,-1
 227 303 l 1,26,-1
 227 124 l 1,14,-1
EndSplineSet
Position2: "'cpsp' Capital Spacing lookup 0 subtable" dx=5 dy=0 dh=10 dv=0
EndChar

StartChar: Dcaron
Encoding: 270 270 19
Width: 686
GlyphClass: 2
Flags: MW
HStem: 0 123<227 332 227 332> 563 123<227 332 227 227> 750 145<154 395 154 292>
VStem: 72 155<123 123 123 563> 476 162<282 304 304 382 206.5 404 206.5 456.5>
LayerCount: 2
Fore
SplineSet
259 895 m 1,0,-1
 344 812 l 1,1,-1
 428 895 l 1,2,-1
 532 895 l 1,3,4
 483 844 483 844 395 750 c 1,5,-1
 292 750 l 1,6,-1
 154 895 l 1,7,-1
 259 895 l 1,0,-1
72 686 m 1,8,-1
 332 686 l 2,9,10
 463 686 463 686 550.5 604.5 c 128,-1,11
 638 523 638 523 638 382 c 2,12,-1
 638 304 l 2,13,14
 638 163 638 163 550.5 81.5 c 128,-1,15
 463 0 463 0 332 0 c 2,16,-1
 72 0 l 1,17,-1
 72 686 l 1,8,-1
227 123 m 1,18,-1
 332 123 l 2,19,20
 396 123 396 123 436 164.5 c 128,-1,21
 476 206 476 206 476 282 c 2,22,-1
 476 404 l 2,23,24
 476 480 476 480 436 521.5 c 128,-1,25
 396 563 396 563 332 563 c 2,26,-1
 227 563 l 1,27,-1
 227 123 l 1,18,-1
EndSplineSet
EndChar

StartChar: Dcroat
Encoding: 272 272 20
Width: 686
GlyphClass: 2
Flags: MW
HStem: 0 124<227 337 337 347> 303 80<-11 73 -11 73 227 339> 563 123<227 337 227 227>
VStem: 73 154<124 124 124 303 383 563> 480 158<317 382 210.5 387 210.5 443.5>
LayerCount: 2
Fore
SplineSet
73 383 m 1,0,-1
 73 686 l 1,1,-1
 347 686 l 2,2,3
 471 686 471 686 554.5 602.5 c 128,-1,4
 638 519 638 519 638 382 c 2,5,-1
 638 304 l 2,6,7
 638 167 638 167 554.5 83.5 c 128,-1,8
 471 0 471 0 347 0 c 2,9,-1
 73 0 l 1,10,-1
 73 303 l 1,11,-1
 -11 303 l 1,12,-1
 -11 383 l 1,13,-1
 73 383 l 1,0,-1
227 124 m 1,14,-1
 337 124 l 2,15,16
 480 124 480 124 480 317 c 2,17,-1
 480 387 l 2,18,19
 480 472 480 472 443 517.5 c 128,-1,20
 406 563 406 563 337 563 c 2,21,-1
 227 563 l 1,22,-1
 227 383 l 1,23,-1
 339 383 l 1,24,-1
 339 303 l 1,25,-1
 227 303 l 1,26,-1
 227 124 l 1,14,-1
EndSplineSet
EndChar

StartChar: E
Encoding: 69 69 21
Width: 598
GlyphClass: 2
Flags: MW
HStem: 0 123<224 541 224 558> 290 123<224 517 224 517> 563 123<224 538 224 224>
VStem: 72 152<123 290 413 563>
AnchorPoint: "Bottom" 299 0 basechar 0
LayerCount: 2
Fore
SplineSet
72 686 m 1,0,-1
 555 686 l 1,1,-1
 538 563 l 1,2,-1
 224 563 l 1,3,-1
 224 413 l 1,4,-1
 517 413 l 1,5,-1
 517 290 l 1,6,-1
 224 290 l 1,7,-1
 224 123 l 1,8,-1
 541 123 l 1,9,-1
 558 0 l 1,10,-1
 72 0 l 1,11,-1
 72 686 l 1,0,-1
EndSplineSet
Position2: "'cpsp' Capital Spacing lookup 0 subtable" dx=5 dy=0 dh=10 dv=0
EndChar

StartChar: Eacute
Encoding: 201 201 22
Width: 598
GlyphClass: 2
Flags: MW
HStem: 0 123<224 541 224 558> 290 123<224 517 224 517> 563 123<224 538 224 224> 750 145<355 364 263 484>
VStem: 72 152<123 290 413 563>
LayerCount: 2
Fore
SplineSet
355 895 m 1,0,-1
 484 895 l 1,1,-1
 485 892 l 1,2,-1
 364 750 l 1,3,-1
 263 750 l 1,4,-1
 355 895 l 1,0,-1
72 686 m 1,5,-1
 555 686 l 1,6,-1
 538 563 l 1,7,-1
 224 563 l 1,8,-1
 224 413 l 1,9,-1
 517 413 l 1,10,-1
 517 290 l 1,11,-1
 224 290 l 1,12,-1
 224 123 l 1,13,-1
 541 123 l 1,14,-1
 558 0 l 1,15,-1
 72 0 l 1,16,-1
 72 686 l 1,5,-1
EndSplineSet
Position2: "'cpsp' Capital Spacing lookup 0 subtable" dx=5 dy=0 dh=10 dv=0
EndChar

StartChar: Ecaron
Encoding: 282 282 23
Width: 598
GlyphClass: 2
Flags: MW
HStem: 0 123<224 541 224 558> 290 123<224 517 224 517> 563 123<224 538 224 224> 750 145<110 351 110 248>
VStem: 72 152<123 290 413 563>
AnchorPoint: "Bottom" 299 0 basechar 0
LayerCount: 2
Fore
SplineSet
215 895 m 1,0,-1
 300 812 l 1,1,-1
 384 895 l 1,2,-1
 488 895 l 1,3,4
 439 844 439 844 351 750 c 1,5,-1
 248 750 l 1,6,-1
 110 895 l 1,7,-1
 215 895 l 1,0,-1
72 686 m 1,8,-1
 555 686 l 1,9,-1
 538 563 l 1,10,-1
 224 563 l 1,11,-1
 224 413 l 1,12,-1
 517 413 l 1,13,-1
 517 290 l 1,14,-1
 224 290 l 1,15,-1
 224 123 l 1,16,-1
 541 123 l 1,17,-1
 558 0 l 1,18,-1
 72 0 l 1,19,-1
 72 686 l 1,8,-1
EndSplineSet
EndChar

StartChar: Ecircumflex
Encoding: 202 202 24
Width: 598
GlyphClass: 2
Flags: MW
HStem: 0 123<224 541 224 558> 290 123<224 517 224 517> 563 123<224 538 224 224> 750 145<123 364 123 364 261 501 261 396>
VStem: 72 152<123 290 413 563>
LayerCount: 2
Fore
SplineSet
261 895 m 1,0,-1
 364 895 l 1,1,2
 452 801 452 801 501 750 c 1,3,-1
 396 750 l 1,4,-1
 312 833 l 1,5,-1
 227 750 l 1,6,-1
 123 750 l 1,7,-1
 261 895 l 1,0,-1
72 686 m 1,8,-1
 555 686 l 1,9,-1
 538 563 l 1,10,-1
 224 563 l 1,11,-1
 224 413 l 1,12,-1
 517 413 l 1,13,-1
 517 290 l 1,14,-1
 224 290 l 1,15,-1
 224 123 l 1,16,-1
 541 123 l 1,17,-1
 558 0 l 1,18,-1
 72 0 l 1,19,-1
 72 686 l 1,8,-1
EndSplineSet
Position2: "'cpsp' Capital Spacing lookup 0 subtable" dx=5 dy=0 dh=10 dv=0
EndChar

StartChar: Edieresis
Encoding: 203 203 25
Width: 598
GlyphClass: 2
Flags: MW
HStem: 0 123<224 541 224 558> 290 123<224 517 224 517> 563 123<224 538 224 224> 750 122<152 273 152 273 152 356 356 477>
VStem: 72 152<123 290 413 563> 152 121<750 872 750 872> 356 121<750 872 750 872>
LayerCount: 2
Fore
SplineSet
273 872 m 1,0,-1
 273 750 l 1,1,-1
 152 750 l 1,2,-1
 152 872 l 1,3,-1
 273 872 l 1,0,-1
477 872 m 1,4,-1
 477 750 l 1,5,-1
 356 750 l 1,6,-1
 356 872 l 1,7,-1
 477 872 l 1,4,-1
72 686 m 1,8,-1
 555 686 l 1,9,-1
 538 563 l 1,10,-1
 224 563 l 1,11,-1
 224 413 l 1,12,-1
 517 413 l 1,13,-1
 517 290 l 1,14,-1
 224 290 l 1,15,-1
 224 123 l 1,16,-1
 541 123 l 1,17,-1
 558 0 l 1,18,-1
 72 0 l 1,19,-1
 72 686 l 1,8,-1
EndSplineSet
Position2: "'cpsp' Capital Spacing lookup 0 subtable" dx=5 dy=0 dh=10 dv=0
EndChar

StartChar: Edotaccent
Encoding: 278 278 26
Width: 598
GlyphClass: 2
Flags: MW
HStem: 0 123<224 541 224 558> 290 123<224 517 224 517> 563 123<224 538 224 224> 779 132<280.5 316.5>
VStem: 72 152<123 290 413 563> 233 132<827 863 826 863.5>
AnchorPoint: "Bottom" 299 0 basechar 0
LayerCount: 2
Fore
SplineSet
346 891.5 m 128,-1,1
 365 872 365 872 365 844.5 c 128,-1,2
 365 817 365 817 345.5 798 c 128,-1,3
 326 779 326 779 299 779 c 128,-1,4
 272 779 272 779 252.5 798.5 c 128,-1,5
 233 818 233 818 233 845.5 c 128,-1,6
 233 873 233 873 252 892 c 128,-1,7
 271 911 271 911 299 911 c 128,-1,0
 327 911 327 911 346 891.5 c 128,-1,1
72 686 m 1,8,-1
 555 686 l 1,9,-1
 538 563 l 1,10,-1
 224 563 l 1,11,-1
 224 413 l 1,12,-1
 517 413 l 1,13,-1
 517 290 l 1,14,-1
 224 290 l 1,15,-1
 224 123 l 1,16,-1
 541 123 l 1,17,-1
 558 0 l 1,18,-1
 72 0 l 1,19,-1
 72 686 l 1,8,-1
EndSplineSet
EndChar

StartChar: Egrave
Encoding: 200 200 27
Width: 598
GlyphClass: 2
Flags: MW
HStem: 0 123<224 541 224 558> 290 123<224 517 224 517> 563 123<224 538 224 224> 750 145<277 286 158 379 277 277>
VStem: 72 152<123 290 413 563>
LayerCount: 2
Fore
SplineSet
157 892 m 1,0,-1
 158 895 l 1,1,-1
 286 895 l 1,2,-1
 379 750 l 1,3,-1
 277 750 l 1,4,-1
 157 892 l 1,0,-1
72 686 m 1,5,-1
 555 686 l 1,6,-1
 538 563 l 1,7,-1
 224 563 l 1,8,-1
 224 413 l 1,9,-1
 517 413 l 1,10,-1
 517 290 l 1,11,-1
 224 290 l 1,12,-1
 224 123 l 1,13,-1
 541 123 l 1,14,-1
 558 0 l 1,15,-1
 72 0 l 1,16,-1
 72 686 l 1,5,-1
EndSplineSet
Position2: "'cpsp' Capital Spacing lookup 0 subtable" dx=5 dy=0 dh=10 dv=0
EndChar

StartChar: Emacron
Encoding: 274 274 28
Width: 598
GlyphClass: 2
Flags: MW
HStem: 0 123<224 541 224 558> 290 123<224 517 224 517> 563 123<224 538 224 224> 837 74<140 458 140 458>
VStem: 72 152<123 290 413 563>
AnchorPoint: "Bottom" 299 0 basechar 0
LayerCount: 2
Fore
SplineSet
140 911 m 1,0,-1
 458 911 l 1,1,-1
 458 837 l 1,2,-1
 140 837 l 1,3,-1
 140 911 l 1,0,-1
72 686 m 1,4,-1
 555 686 l 1,5,-1
 538 563 l 1,6,-1
 224 563 l 1,7,-1
 224 413 l 1,8,-1
 517 413 l 1,9,-1
 517 290 l 1,10,-1
 224 290 l 1,11,-1
 224 123 l 1,12,-1
 541 123 l 1,13,-1
 558 0 l 1,14,-1
 72 0 l 1,15,-1
 72 686 l 1,4,-1
EndSplineSet
EndChar

StartChar: Eogonek
Encoding: 280 280 29
Width: 598
GlyphClass: 2
Flags: MW
HStem: -143 50<514.5 525.5> 0 123<224 466 528 528 528 541 224 558> 290 123<224 517 224 517> 563 123<224 538 224 224>
VStem: 72 152<123 290 413 563> 412 69<-71 -55>
AnchorPoint: "Bottom" 299 0 basechar 0
LayerCount: 2
Fore
SplineSet
592 -79 m 1,0,-1
 605 -119 l 1,1,2
 562 -143 562 -143 515.5 -143 c 0,3,4
 412 -143 412 -143 412 -71 c 0,5,6
 412 -36 412 -36 466 0 c 1,7,-1
 72 0 l 1,8,-1
 72 686 l 1,9,-1
 555 686 l 1,10,-1
 538 563 l 1,11,-1
 224 563 l 1,12,-1
 224 413 l 1,13,-1
 517 413 l 1,14,-1
 517 290 l 1,15,-1
 224 290 l 1,16,-1
 224 123 l 1,17,-1
 541 123 l 1,18,-1
 558 0 l 1,19,-1
 528 0 l 1,20,21
 481 -26 481 -26 481 -57 c 0,22,23
 481 -93 481 -93 525 -93 c 0,24,25
 555 -93 555 -93 592 -79 c 1,0,-1
EndSplineSet
EndChar

StartChar: F
Encoding: 70 70 30
Width: 563
GlyphClass: 2
Flags: MW
HStem: 0 21G<72 224 72 72> 276 123<224 490 224 490> 563 123<224 224 224 520>
VStem: 72 152<0 276 399 563>
LayerCount: 2
Fore
SplineSet
224 563 m 1,0,-1
 224 399 l 1,1,-1
 490 399 l 1,2,-1
 490 276 l 1,3,-1
 224 276 l 1,4,-1
 224 0 l 1,5,-1
 72 0 l 1,6,-1
 72 686 l 1,7,-1
 536 686 l 1,8,-1
 520 563 l 1,9,-1
 224 563 l 1,0,-1
EndSplineSet
Position2: "'cpsp' Capital Spacing lookup 0 subtable" dx=5 dy=0 dh=10 dv=0
EndChar

StartChar: G
Encoding: 71 71 31
Width: 699
GlyphClass: 2
Flags: MW
HStem: -10 123<316 332 332 337> 0 21G<554 639 554 554> 261 112<333 488 333 633> 573 123<348 362 362 389>
VStem: 48 162<294 392 392 414 219.5 485.5> 488 145<210 261>
AnchorPoint: "Bottom" 350 0 basechar 0
LayerCount: 2
Fore
SplineSet
210 414 m 2,0,-1
 210 272 l 2,1,2
 210 196 210 196 251.5 154.5 c 128,-1,3
 293 113 293 113 355.5 113 c 128,-1,4
 418 113 418 113 453 150 c 128,-1,5
 488 187 488 187 488 261 c 1,6,-1
 333 261 l 1,7,-1
 333 373 l 1,8,-1
 633 373 l 1,9,-1
 633 136 l 2,10,11
 633 64 633 64 637.5 16 c 2,12,-1
 639 0 l 1,13,-1
 554 0 l 1,14,15
 541 36 541 36 530 77 c 1,16,17
 498 36 498 36 446.5 13 c 128,-1,18
 395 -10 395 -10 337 -10 c 2,19,-1
 332 -10 l 2,20,21
 206 -10 206 -10 127 73 c 128,-1,22
 48 156 48 156 48 294 c 2,23,-1
 48 392 l 2,24,25
 48 531 48 531 131.5 613.5 c 128,-1,26
 215 696 215 696 348 696 c 2,27,-1
 362 696 l 2,28,29
 477 696 477 696 555 626 c 128,-1,30
 633 556 633 556 633 442 c 1,31,-1
 487 442 l 1,32,33
 487 507 487 507 449 540 c 128,-1,34
 411 573 411 573 350.5 573 c 128,-1,35
 290 573 290 573 250 531.5 c 128,-1,36
 210 490 210 490 210 414 c 2,0,-1
EndSplineSet
Position2: "'cpsp' Capital Spacing lookup 0 subtable" dx=5 dy=0 dh=10 dv=0
EndChar

StartChar: Gbreve
Encoding: 286 286 32
Width: 699
GlyphClass: 2
Flags: MW
HStem: -10 123<316 332 332 337> 0 21G<554 639 554 554> 261 112<333 488 333 633> 573 123<348 362 362 389> 788 74<320 377 320 402.5>
VStem: 48 162<294 392 392 414 219.5 485.5> 488 145<210 261>
AnchorPoint: "Bottom" 350 0 basechar 0
LayerCount: 2
Fore
SplineSet
349 788 m 128,-1,1
 272 788 272 788 214.5 827.5 c 128,-1,2
 157 867 157 867 157 912 c 1,3,-1
 238 912 l 1,4,5
 243 893 243 893 275 877.5 c 128,-1,6
 307 862 307 862 348 862 c 128,-1,7
 389 862 389 862 422.5 878 c 128,-1,8
 456 894 456 894 460 912 c 1,9,-1
 542 912 l 1,10,11
 542 867 542 867 484 827.5 c 128,-1,0
 426 788 426 788 349 788 c 128,-1,1
210 414 m 2,12,-1
 210 272 l 2,13,14
 210 196 210 196 251.5 154.5 c 128,-1,15
 293 113 293 113 355.5 113 c 128,-1,16
 418 113 418 113 453 150 c 128,-1,17
 488 187 488 187 488 261 c 1,18,-1
 333 261 l 1,19,-1
 333 373 l 1,20,-1
 633 373 l 1,21,-1
 633 136 l 2,22,23
 633 64 633 64 637.5 16 c 2,24,-1
 639 0 l 1,25,-1
 554 0 l 1,26,27
 541 36 541 36 530 77 c 1,28,29
 498 36 498 36 446.5 13 c 128,-1,30
 395 -10 395 -10 337 -10 c 2,31,-1
 332 -10 l 2,32,33
 206 -10 206 -10 127 73 c 128,-1,34
 48 156 48 156 48 294 c 2,35,-1
 48 392 l 2,36,37
 48 531 48 531 131.5 613.5 c 128,-1,38
 215 696 215 696 348 696 c 2,39,-1
 362 696 l 2,40,41
 477 696 477 696 555 626 c 128,-1,42
 633 556 633 556 633 442 c 1,43,-1
 487 442 l 1,44,45
 487 507 487 507 449 540 c 128,-1,46
 411 573 411 573 350.5 573 c 128,-1,47
 290 573 290 573 250 531.5 c 128,-1,48
 210 490 210 490 210 414 c 2,12,-1
EndSplineSet
EndChar

StartChar: Gcommaaccent
Encoding: 290 290 33
Width: 699
GlyphClass: 2
Flags: MW
HStem: -167 137<283 346 283 429> -10 123<316 332 332 337> 0 21G<554 639 554 554> 261 112<333 488 333 633> 573 123<348 362 362 389>
VStem: 48 162<294 392 392 414 219.5 485.5> 283 146<-143 -30 -143 -30 -143 -30> 488 145<210 261>
AnchorPoint: "Bottom" 350 0 basechar 0
LayerCount: 2
Fore
SplineSet
210 414 m 2,0,-1
 210 272 l 2,1,2
 210 196 210 196 251.5 154.5 c 128,-1,3
 293 113 293 113 355.5 113 c 128,-1,4
 418 113 418 113 453 150 c 128,-1,5
 488 187 488 187 488 261 c 1,6,-1
 333 261 l 1,7,-1
 333 373 l 1,8,-1
 633 373 l 1,9,-1
 633 136 l 2,10,11
 633 64 633 64 637.5 16 c 2,12,-1
 639 0 l 1,13,-1
 554 0 l 1,14,15
 541 36 541 36 530 77 c 1,16,17
 498 36 498 36 446.5 13 c 128,-1,18
 395 -10 395 -10 337 -10 c 2,19,-1
 332 -10 l 2,20,21
 206 -10 206 -10 127 73 c 128,-1,22
 48 156 48 156 48 294 c 2,23,-1
 48 392 l 2,24,25
 48 531 48 531 131.5 613.5 c 128,-1,26
 215 696 215 696 348 696 c 2,27,-1
 362 696 l 2,28,29
 477 696 477 696 555 626 c 128,-1,30
 633 556 633 556 633 442 c 1,31,-1
 487 442 l 1,32,33
 487 507 487 507 449 540 c 128,-1,34
 411 573 411 573 350.5 573 c 128,-1,35
 290 573 290 573 250 531.5 c 128,-1,36
 210 490 210 490 210 414 c 2,0,-1
346 -167 m 1,37,-1
 283 -167 l 1,38,-1
 283 -30 l 1,39,-1
 429 -30 l 1,40,-1
 429 -143 l 1,41,-1
 404 -250 l 1,42,-1
 330 -250 l 1,43,-1
 346 -167 l 1,37,-1
EndSplineSet
EndChar

StartChar: H
Encoding: 72 72 34
Width: 691
GlyphClass: 2
Flags: MW
HStem: 0 21G<72 227 72 72 464 464 464 618> 286 128<227 464 227 227> 666 20G<72 226 226 226 464 618 618 618>
VStem: 72 155<0 286 0 686> 464 154<0 286 286 286 414 686 0 686>
LayerCount: 2
Fore
SplineSet
464 286 m 1,0,-1
 227 286 l 1,1,-1
 227 0 l 1,2,-1
 72 0 l 1,3,-1
 72 686 l 1,4,-1
 226 686 l 1,5,-1
 226 414 l 1,6,-1
 464 414 l 1,7,-1
 464 686 l 1,8,-1
 618 686 l 1,9,-1
 618 0 l 1,10,-1
 464 0 l 1,11,-1
 464 286 l 1,0,-1
EndSplineSet
Position2: "'cpsp' Capital Spacing lookup 0 subtable" dx=5 dy=0 dh=10 dv=0
EndChar

StartChar: I
Encoding: 73 73 35
Width: 461
GlyphClass: 2
Flags: MW
HStem: 0 123<72 153 308 388 72 153> 563 123<72 153 72 388 308 388 308 308>
VStem: 153 155<123 563 123 563>
LayerCount: 2
Fore
SplineSet
388 686 m 1,0,-1
 388 563 l 1,1,-1
 308 563 l 1,2,-1
 308 123 l 1,3,-1
 388 123 l 1,4,-1
 388 0 l 1,5,-1
 72 0 l 1,6,-1
 72 123 l 1,7,-1
 153 123 l 1,8,-1
 153 563 l 1,9,-1
 72 563 l 1,10,-1
 72 686 l 1,11,-1
 388 686 l 1,0,-1
EndSplineSet
Position2: "'cpsp' Capital Spacing lookup 0 subtable" dx=5 dy=0 dh=10 dv=0
EndChar

StartChar: Iacute
Encoding: 205 205 36
Width: 461
GlyphClass: 2
Flags: MW
HStem: 0 123<72 153 308 388 72 153> 563 123<72 153 72 388 308 388 308 308> 750 145<261 270 169 390>
VStem: 153 155<123 563 123 563>
LayerCount: 2
Fore
SplineSet
261 895 m 1,0,-1
 390 895 l 1,1,-1
 391 892 l 1,2,-1
 270 750 l 1,3,-1
 169 750 l 1,4,-1
 261 895 l 1,0,-1
388 686 m 1,5,-1
 388 563 l 1,6,-1
 308 563 l 1,7,-1
 308 123 l 1,8,-1
 388 123 l 1,9,-1
 388 0 l 1,10,-1
 72 0 l 1,11,-1
 72 123 l 1,12,-1
 153 123 l 1,13,-1
 153 563 l 1,14,-1
 72 563 l 1,15,-1
 72 686 l 1,16,-1
 388 686 l 1,5,-1
EndSplineSet
Position2: "'cpsp' Capital Spacing lookup 0 subtable" dx=5 dy=0 dh=10 dv=0
EndChar

StartChar: Icircumflex
Encoding: 206 206 37
Width: 461
GlyphClass: 2
Flags: MW
HStem: 0 123<72 153 308 388 72 153> 563 123<72 153 72 388 308 388 308 308> 750 145<42 283 42 283 180 420 180 315>
VStem: 153 155<123 563 123 563>
LayerCount: 2
Fore
SplineSet
180 895 m 1,0,-1
 283 895 l 1,1,2
 371 801 371 801 420 750 c 1,3,-1
 315 750 l 1,4,-1
 231 833 l 1,5,-1
 146 750 l 1,6,-1
 42 750 l 1,7,-1
 180 895 l 1,0,-1
388 686 m 1,8,-1
 388 563 l 1,9,-1
 308 563 l 1,10,-1
 308 123 l 1,11,-1
 388 123 l 1,12,-1
 388 0 l 1,13,-1
 72 0 l 1,14,-1
 72 123 l 1,15,-1
 153 123 l 1,16,-1
 153 563 l 1,17,-1
 72 563 l 1,18,-1
 72 686 l 1,19,-1
 388 686 l 1,8,-1
EndSplineSet
Position2: "'cpsp' Capital Spacing lookup 0 subtable" dx=5 dy=0 dh=10 dv=0
EndChar

StartChar: Idieresis
Encoding: 207 207 38
Width: 461
GlyphClass: 2
Flags: MW
HStem: 0 123<72 153 308 388 72 153> 563 123<72 153 72 388 308 388 308 308> 750 122<70 191 70 191 70 274 274 395>
VStem: 70 121<750 872 750 872> 153 155<123 563 123 563> 274 121<750 872 750 872>
LayerCount: 2
Fore
SplineSet
191 872 m 1,0,-1
 191 750 l 1,1,-1
 70 750 l 1,2,-1
 70 872 l 1,3,-1
 191 872 l 1,0,-1
395 872 m 1,4,-1
 395 750 l 1,5,-1
 274 750 l 1,6,-1
 274 872 l 1,7,-1
 395 872 l 1,4,-1
388 686 m 1,8,-1
 388 563 l 1,9,-1
 308 563 l 1,10,-1
 308 123 l 1,11,-1
 388 123 l 1,12,-1
 388 0 l 1,13,-1
 72 0 l 1,14,-1
 72 123 l 1,15,-1
 153 123 l 1,16,-1
 153 563 l 1,17,-1
 72 563 l 1,18,-1
 72 686 l 1,19,-1
 388 686 l 1,8,-1
EndSplineSet
Position2: "'cpsp' Capital Spacing lookup 0 subtable" dx=5 dy=0 dh=10 dv=0
EndChar

StartChar: Idotaccent
Encoding: 304 304 39
Width: 461
GlyphClass: 2
Flags: MW
HStem: 0 123<72 153 308 388 72 153> 563 123<72 153 72 388 308 388 308 308> 779 132<212.5 248.5>
VStem: 153 155<123 563 123 563> 165 132<827 863 826 863.5>
LayerCount: 2
Fore
SplineSet
278 891.5 m 128,-1,1
 297 872 297 872 297 844.5 c 128,-1,2
 297 817 297 817 277.5 798 c 128,-1,3
 258 779 258 779 231 779 c 128,-1,4
 204 779 204 779 184.5 798.5 c 128,-1,5
 165 818 165 818 165 845.5 c 128,-1,6
 165 873 165 873 184 892 c 128,-1,7
 203 911 203 911 231 911 c 128,-1,0
 259 911 259 911 278 891.5 c 128,-1,1
388 686 m 1,8,-1
 388 563 l 1,9,-1
 308 563 l 1,10,-1
 308 123 l 1,11,-1
 388 123 l 1,12,-1
 388 0 l 1,13,-1
 72 0 l 1,14,-1
 72 123 l 1,15,-1
 153 123 l 1,16,-1
 153 563 l 1,17,-1
 72 563 l 1,18,-1
 72 686 l 1,19,-1
 388 686 l 1,8,-1
EndSplineSet
EndChar

StartChar: Igrave
Encoding: 204 204 40
Width: 461
GlyphClass: 2
Flags: MW
HStem: 0 123<72 153 308 388 72 153> 563 123<72 153 72 388 308 388 308 308> 750 145<192 201 73 294 192 192>
VStem: 153 155<123 563 123 563>
LayerCount: 2
Fore
SplineSet
72 892 m 1,0,-1
 73 895 l 1,1,-1
 201 895 l 1,2,-1
 294 750 l 1,3,-1
 192 750 l 1,4,-1
 72 892 l 1,0,-1
388 686 m 1,5,-1
 388 563 l 1,6,-1
 308 563 l 1,7,-1
 308 123 l 1,8,-1
 388 123 l 1,9,-1
 388 0 l 1,10,-1
 72 0 l 1,11,-1
 72 123 l 1,12,-1
 153 123 l 1,13,-1
 153 563 l 1,14,-1
 72 563 l 1,15,-1
 72 686 l 1,16,-1
 388 686 l 1,5,-1
EndSplineSet
Position2: "'cpsp' Capital Spacing lookup 0 subtable" dx=5 dy=0 dh=10 dv=0
EndChar

StartChar: Imacron
Encoding: 298 298 41
Width: 461
GlyphClass: 2
Flags: MW
HStem: 0 123<72 153 308 388 72 153> 563 123<72 153 72 388 308 388 308 308> 837 74<72 390 72 390>
VStem: 153 155<123 563 123 563>
LayerCount: 2
Fore
SplineSet
72 911 m 1,0,-1
 390 911 l 1,1,-1
 390 837 l 1,2,-1
 72 837 l 1,3,-1
 72 911 l 1,0,-1
388 686 m 1,4,-1
 388 563 l 1,5,-1
 308 563 l 1,6,-1
 308 123 l 1,7,-1
 388 123 l 1,8,-1
 388 0 l 1,9,-1
 72 0 l 1,10,-1
 72 123 l 1,11,-1
 153 123 l 1,12,-1
 153 563 l 1,13,-1
 72 563 l 1,14,-1
 72 686 l 1,15,-1
 388 686 l 1,4,-1
EndSplineSet
EndChar

StartChar: Iogonek
Encoding: 302 302 42
Width: 461
GlyphClass: 2
Flags: MW
HStem: -143 50<351.5 362.5> 0 123<72 153 72 303 72 153 365 365 365 388> 563 123<72 153 72 388 308 308 308 388>
VStem: 153 155<123 563 123 563> 249 69<-71 -55>
LayerCount: 2
Fore
SplineSet
429 -79 m 1,0,-1
 442 -119 l 1,1,2
 398 -143 398 -143 352 -143 c 0,3,4
 249 -143 249 -143 249 -71 c 0,5,6
 249 -36 249 -36 303 0 c 1,7,-1
 72 0 l 1,8,-1
 72 123 l 1,9,-1
 153 123 l 1,10,-1
 153 563 l 1,11,-1
 72 563 l 1,12,-1
 72 686 l 1,13,-1
 388 686 l 1,14,-1
 388 563 l 1,15,-1
 308 563 l 1,16,-1
 308 123 l 1,17,-1
 388 123 l 1,18,-1
 388 0 l 1,19,-1
 365 0 l 1,20,21
 318 -26 318 -26 318 -57 c 0,22,23
 318 -93 318 -93 362 -93 c 0,24,25
 392 -93 392 -93 429 -79 c 1,0,-1
EndSplineSet
EndChar

StartChar: J
Encoding: 74 74 43
Width: 527
GlyphClass: 2
Flags: MW
HStem: -10 123<209 219 219 239> -10 238<10 219 10 239> 666 20G<304 455 455 455>
VStem: 10 145<183 187 187 228 167 228> 304 151<187 686>
LayerCount: 2
Fore
SplineSet
155 228 m 1,0,-1
 155 187 l 2,1,2
 155 157 155 157 177 135 c 128,-1,3
 199 113 199 113 230 113 c 0,4,5
 261 113 261 113 282.5 133.5 c 128,-1,6
 304 154 304 154 304 187 c 2,7,-1
 304 686 l 1,8,-1
 455 686 l 1,9,-1
 455 183 l 2,10,11
 455 91 455 91 395 40.5 c 128,-1,12
 335 -10 335 -10 239 -10 c 2,13,-1
 219 -10 l 2,14,15
 123 -10 123 -10 66.5 40 c 128,-1,16
 10 90 10 90 10 183 c 2,17,-1
 10 228 l 1,18,-1
 155 228 l 1,0,-1
EndSplineSet
Position2: "'cpsp' Capital Spacing lookup 0 subtable" dx=5 dy=0 dh=10 dv=0
EndChar

StartChar: K
Encoding: 75 75 44
Width: 660
GlyphClass: 2
Flags: MW
HStem: 0 21G<72 223 72 72 475 650 475 475> 666 20G<72 223 223 223 470 643 643 643>
VStem: 72 151<0 179 372 686>
AnchorPoint: "Bottom" 330 0 basechar 0
LayerCount: 2
Fore
SplineSet
223 686 m 1,0,-1
 223 372 l 1,1,2
 410 609 410 609 470 686 c 1,3,-1
 643 686 l 1,4,5
 566 589 566 589 412 397 c 1,6,7
 441 348 441 348 523 211.5 c 128,-1,8
 605 75 605 75 650 0 c 1,9,-1
 475 0 l 1,10,-1
 312 278 l 1,11,-1
 223 179 l 1,12,-1
 223 0 l 1,13,-1
 72 0 l 1,14,-1
 72 686 l 1,15,-1
 223 686 l 1,0,-1
EndSplineSet
Position2: "'cpsp' Capital Spacing lookup 0 subtable" dx=5 dy=0 dh=10 dv=0
EndChar

StartChar: Kcommaaccent
Encoding: 310 310 45
Width: 660
GlyphClass: 2
Flags: MW
HStem: -167 137<263 326 263 409> 0 21G<72 223 72 72 475 650 475 475> 666 20G<72 223 223 223 470 643 643 643>
VStem: 72 151<0 179 372 686> 263 146<-143 -30 -143 -30 -143 -30>
AnchorPoint: "Bottom" 330 0 basechar 0
LayerCount: 2
Fore
SplineSet
223 686 m 1,0,-1
 223 372 l 1,1,2
 410 609 410 609 470 686 c 1,3,-1
 643 686 l 1,4,5
 566 589 566 589 412 397 c 1,6,7
 441 348 441 348 523 211.5 c 128,-1,8
 605 75 605 75 650 0 c 1,9,-1
 475 0 l 1,10,-1
 312 278 l 1,11,-1
 223 179 l 1,12,-1
 223 0 l 1,13,-1
 72 0 l 1,14,-1
 72 686 l 1,15,-1
 223 686 l 1,0,-1
326 -167 m 1,16,-1
 263 -167 l 1,17,-1
 263 -30 l 1,18,-1
 409 -30 l 1,19,-1
 409 -143 l 1,20,-1
 384 -250 l 1,21,-1
 310 -250 l 1,22,-1
 326 -167 l 1,16,-1
EndSplineSet
EndChar

StartChar: L
Encoding: 76 76 46
Width: 533
GlyphClass: 2
Flags: MW
HStem: 0 128<227 509 227 526> 666 20G<72 227 227 227>
VStem: 72 155<128 686 128 686 128 686>
AnchorPoint: "Bottom" 267 0 basechar 0
LayerCount: 2
Fore
SplineSet
72 686 m 1,0,-1
 227 686 l 1,1,-1
 227 128 l 1,2,-1
 509 128 l 1,3,-1
 526 0 l 1,4,-1
 72 0 l 1,5,-1
 72 686 l 1,0,-1
EndSplineSet
Position2: "'cpsp' Capital Spacing lookup 0 subtable" dx=5 dy=0 dh=10 dv=0
EndChar

StartChar: Lacute
Encoding: 313 313 47
Width: 533
GlyphClass: 2
Flags: MW
HStem: 0 128<227 509 227 526> 666 20G<72 227 227 227> 750 145<188 197 96 317>
VStem: 72 155<128 686 128 686 128 686>
AnchorPoint: "Bottom" 267 0 basechar 0
LayerCount: 2
Fore
SplineSet
188 895 m 1,0,-1
 317 895 l 1,1,-1
 318 892 l 1,2,-1
 197 750 l 1,3,-1
 96 750 l 1,4,-1
 188 895 l 1,0,-1
72 686 m 1,5,-1
 227 686 l 1,6,-1
 227 128 l 1,7,-1
 509 128 l 1,8,-1
 526 0 l 1,9,-1
 72 0 l 1,10,-1
 72 686 l 1,5,-1
EndSplineSet
EndChar

StartChar: Lcaron
Encoding: 317 317 48
Width: 533
GlyphClass: 2
Flags: MW
HStem: 0 128<227 509 227 526> 539 147<352 415 72 352>
VStem: 72 155<128 686 128 686 128 686> 352 146<563 686 563 686 563 686>
AnchorPoint: "Bottom" 267 0 basechar 0
LayerCount: 2
Fore
SplineSet
72 686 m 1,0,-1
 227 686 l 1,1,-1
 227 128 l 1,2,-1
 509 128 l 1,3,-1
 526 0 l 1,4,-1
 72 0 l 1,5,-1
 72 686 l 1,0,-1
456 395 m 1,6,-1
 383 395 l 1,7,8
 393 443 393 443 415 539 c 1,9,-1
 352 539 l 1,10,-1
 352 686 l 1,11,-1
 498 686 l 1,12,-1
 498 563 l 1,13,-1
 456 395 l 1,6,-1
EndSplineSet
EndChar

StartChar: Lcommaaccent
Encoding: 315 315 49
Width: 533
GlyphClass: 2
Flags: MW
HStem: -167 137<200 263 200 346> 0 128<227 509 227 526> 666 20G<72 227 227 227>
VStem: 72 155<128 686 128 686 128 686> 200 146<-143 -30 -143 -30 -143 -30>
AnchorPoint: "Bottom" 267 0 basechar 0
LayerCount: 2
Fore
SplineSet
72 686 m 1,0,-1
 227 686 l 1,1,-1
 227 128 l 1,2,-1
 509 128 l 1,3,-1
 526 0 l 1,4,-1
 72 0 l 1,5,-1
 72 686 l 1,0,-1
263 -167 m 1,6,-1
 200 -167 l 1,7,-1
 200 -30 l 1,8,-1
 346 -30 l 1,9,-1
 346 -143 l 1,10,-1
 321 -250 l 1,11,-1
 247 -250 l 1,12,-1
 263 -167 l 1,6,-1
EndSplineSet
EndChar

StartChar: Lslash
Encoding: 321 321 50
Width: 546
GlyphClass: 2
Flags: MW
HStem: 0 128<227 504 227 526> 666 20G<72 227 227 227>
VStem: 72 155<128 306 306 306 472 686>
LayerCount: 2
Fore
SplineSet
8 274 m 1,0,-1
 8 362 l 1,1,2
 30 372 30 372 72 394 c 1,3,-1
 72 686 l 1,4,-1
 227 686 l 1,5,-1
 227 472 l 1,6,-1
 342 530 l 1,7,-1
 342 442 l 1,8,-1
 227 384 l 1,9,-1
 227 128 l 1,10,-1
 504 128 l 1,11,12
 513 78 513 78 526 0 c 1,13,-1
 72 0 l 1,14,-1
 72 306 l 1,15,16
 30 284 30 284 8 274 c 1,0,-1
EndSplineSet
Position2: "'cpsp' Capital Spacing lookup 0 subtable" dx=5 dy=0 dh=10 dv=0
EndChar

StartChar: M
Encoding: 77 77 51
Width: 967
GlyphClass: 2
Flags: MW
HStem: 0 21G<72 212 72 72 395 557 395 395 740 740 740 894> 505 181<212 217 212 212 735 740 735 735>
VStem: 72 140<0 505 0 686> 740 154<0 505 505 505>
LayerCount: 2
Fore
SplineSet
740 505 m 1,0,-1
 735 505 l 1,1,-1
 557 0 l 1,2,-1
 395 0 l 1,3,-1
 217 505 l 1,4,-1
 212 505 l 1,5,-1
 212 0 l 1,6,-1
 72 0 l 1,7,-1
 72 686 l 1,8,-1
 321 686 l 1,9,-1
 481 233 l 1,10,-1
 485 233 l 1,11,-1
 645 686 l 1,12,-1
 894 686 l 1,13,-1
 894 0 l 1,14,-1
 740 0 l 1,15,-1
 740 505 l 1,0,-1
EndSplineSet
Position2: "'cpsp' Capital Spacing lookup 0 subtable" dx=5 dy=0 dh=10 dv=0
EndChar

StartChar: N
Encoding: 78 78 52
Width: 691
GlyphClass: 2
Flags: MW
HStem: 0 21G<72 213 72 72 487 618 487 487> 666 20G<72 203 203 203 477 618 618 618>
VStem: 72 141<0 402 0 686> 477 141<283 686 0 686>
AnchorPoint: "Bottom" 346 0 basechar 0
LayerCount: 2
Fore
SplineSet
487 0 m 1,0,-1
 272 316 l 1,1,-1
 217 405 l 1,2,-1
 213 402 l 1,3,-1
 213 0 l 1,4,-1
 72 0 l 1,5,-1
 72 686 l 1,6,-1
 203 686 l 1,7,-1
 419 368 l 2,8,9
 429 353 429 353 447 323 c 128,-1,10
 465 293 465 293 474 280 c 1,11,-1
 477 283 l 1,12,-1
 477 686 l 1,13,-1
 618 686 l 1,14,-1
 618 0 l 1,15,-1
 487 0 l 1,0,-1
EndSplineSet
Position2: "'cpsp' Capital Spacing lookup 0 subtable" dx=5 dy=0 dh=10 dv=0
EndChar

StartChar: Nacute
Encoding: 323 323 53
Width: 691
GlyphClass: 2
Flags: MW
HStem: 0 21G<72 213 72 72 487 618 487 487> 666 20G<72 203 203 203 477 618 618 618> 750 145<357 366 265 486>
VStem: 72 141<0 402 0 686> 477 141<283 686 0 686>
AnchorPoint: "Bottom" 346 0 basechar 0
LayerCount: 2
Fore
SplineSet
357 895 m 1,0,-1
 486 895 l 1,1,-1
 487 892 l 1,2,-1
 366 750 l 1,3,-1
 265 750 l 1,4,-1
 357 895 l 1,0,-1
487 0 m 1,5,-1
 272 316 l 1,6,-1
 217 405 l 1,7,-1
 213 402 l 1,8,-1
 213 0 l 1,9,-1
 72 0 l 1,10,-1
 72 686 l 1,11,-1
 203 686 l 1,12,-1
 419 368 l 2,13,14
 429 353 429 353 447 323 c 128,-1,15
 465 293 465 293 474 280 c 1,16,-1
 477 283 l 1,17,-1
 477 686 l 1,18,-1
 618 686 l 1,19,-1
 618 0 l 1,20,-1
 487 0 l 1,5,-1
EndSplineSet
EndChar

StartChar: Ncaron
Encoding: 327 327 54
Width: 691
GlyphClass: 2
Flags: MW
HStem: 0 21G<72 213 72 72 487 618 487 487> 666 20G<72 203 203 203 477 618 618 618> 750 145<157 398 157 295>
VStem: 72 141<0 402 0 686> 477 141<283 686 0 686>
AnchorPoint: "Bottom" 346 0 basechar 0
LayerCount: 2
Fore
SplineSet
262 895 m 1,0,-1
 347 812 l 1,1,-1
 431 895 l 1,2,-1
 535 895 l 1,3,4
 486 844 486 844 398 750 c 1,5,-1
 295 750 l 1,6,-1
 157 895 l 1,7,-1
 262 895 l 1,0,-1
487 0 m 1,8,-1
 272 316 l 1,9,-1
 217 405 l 1,10,-1
 213 402 l 1,11,-1
 213 0 l 1,12,-1
 72 0 l 1,13,-1
 72 686 l 1,14,-1
 203 686 l 1,15,-1
 419 368 l 2,16,17
 429 353 429 353 447 323 c 128,-1,18
 465 293 465 293 474 280 c 1,19,-1
 477 283 l 1,20,-1
 477 686 l 1,21,-1
 618 686 l 1,22,-1
 618 0 l 1,23,-1
 487 0 l 1,8,-1
EndSplineSet
EndChar

StartChar: Ncommaaccent
Encoding: 325 325 55
Width: 691
GlyphClass: 2
Flags: MW
HStem: -167 137<279 342 279 425> 0 21G<72 213 72 72 487 618 487 487> 666 20G<72 203 203 203 477 618 618 618>
VStem: 72 141<0 402 0 686> 279 146<-143 -30 -143 -30 -143 -30> 477 141<283 686 0 686>
AnchorPoint: "Bottom" 346 0 basechar 0
LayerCount: 2
Fore
SplineSet
487 0 m 1,0,-1
 272 316 l 1,1,-1
 217 405 l 1,2,-1
 213 402 l 1,3,-1
 213 0 l 1,4,-1
 72 0 l 1,5,-1
 72 686 l 1,6,-1
 203 686 l 1,7,-1
 419 368 l 2,8,9
 429 353 429 353 447 323 c 128,-1,10
 465 293 465 293 474 280 c 1,11,-1
 477 283 l 1,12,-1
 477 686 l 1,13,-1
 618 686 l 1,14,-1
 618 0 l 1,15,-1
 487 0 l 1,0,-1
342 -167 m 1,16,-1
 279 -167 l 1,17,-1
 279 -30 l 1,18,-1
 425 -30 l 1,19,-1
 425 -143 l 1,20,-1
 400 -250 l 1,21,-1
 326 -250 l 1,22,-1
 342 -167 l 1,16,-1
EndSplineSet
EndChar

StartChar: Ntilde
Encoding: 209 209 56
Width: 691
GlyphClass: 2
Flags: MW
HStem: 0 21G<72 213 72 72 487 618 487 487> 666 20G<72 203 203 203 477 618 618 618> 749 86<410 451 410 468> 786 87<244 285>
VStem: 72 141<0 402 0 686> 477 141<283 686 0 686>
LayerCount: 2
Fore
SplineSet
490 873 m 1,0,-1
 555 873 l 1,1,2
 555 825 555 825 520 787 c 128,-1,3
 485 749 485 749 429 749 c 0,4,5
 396 749 396 749 340 767.5 c 128,-1,6
 284 786 284 786 258 786 c 0,7,8
 217 786 217 786 206 749 c 1,9,-1
 140 749 l 1,10,11
 140 796 140 796 175.5 834.5 c 128,-1,12
 211 873 211 873 267 873 c 0,13,14
 300 873 300 873 355.5 854 c 128,-1,15
 411 835 411 835 437 835 c 0,16,17
 478 835 478 835 490 873 c 1,0,-1
487 0 m 1,18,-1
 272 316 l 1,19,-1
 217 405 l 1,20,-1
 213 402 l 1,21,-1
 213 0 l 1,22,-1
 72 0 l 1,23,-1
 72 686 l 1,24,-1
 203 686 l 1,25,-1
 419 368 l 2,26,27
 429 353 429 353 447 323 c 128,-1,28
 465 293 465 293 474 280 c 1,29,-1
 477 283 l 1,30,-1
 477 686 l 1,31,-1
 618 686 l 1,32,-1
 618 0 l 1,33,-1
 487 0 l 1,18,-1
EndSplineSet
Position2: "'cpsp' Capital Spacing lookup 0 subtable" dx=5 dy=0 dh=10 dv=0
EndChar

StartChar: O
Encoding: 79 79 57
Width: 708
GlyphClass: 2
Flags: MW
HStem: -10 123<313 395 313 437.5> 573 123<313 395>
VStem: 48 162<294 392 392 414 219.5 489.5> 498 162<272 294 294 392 196.5 414 196.5 466.5>
LayerCount: 2
Fore
SplineSet
660 392 m 2,0,-1
 660 294 l 2,1,2
 660 153 660 153 572.5 71.5 c 128,-1,3
 485 -10 485 -10 354 -10 c 128,-1,4
 223 -10 223 -10 135.5 71.5 c 128,-1,5
 48 153 48 153 48 294 c 2,6,-1
 48 392 l 2,7,8
 48 533 48 533 135.5 614.5 c 128,-1,9
 223 696 223 696 354 696 c 128,-1,10
 485 696 485 696 572.5 614.5 c 128,-1,11
 660 533 660 533 660 392 c 2,0,-1
498 272 m 2,12,-1
 498 414 l 2,13,14
 498 490 498 490 458 531.5 c 128,-1,15
 418 573 418 573 354 573 c 128,-1,16
 290 573 290 573 250 531.5 c 128,-1,17
 210 490 210 490 210 414 c 2,18,-1
 210 272 l 2,19,20
 210 196 210 196 250 154.5 c 128,-1,21
 290 113 290 113 354 113 c 128,-1,22
 418 113 418 113 458 154.5 c 128,-1,23
 498 196 498 196 498 272 c 2,12,-1
EndSplineSet
Substitution2: "Single Substitution lookup 5 subtable" ordmasculine
Substitution2: "'aalt' Access All Alternates lookup 0 subtable" ordmasculine
Position2: "'cpsp' Capital Spacing lookup 0 subtable" dx=5 dy=0 dh=10 dv=0
EndChar

StartChar: Oacute
Encoding: 211 211 58
Width: 708
GlyphClass: 2
Flags: MW
HStem: -10 123<313 395 313 437.5> 573 123<313 395> 750 145<396 405 304 525>
VStem: 48 162<294 392 392 414 219.5 489.5> 498 162<272 294 294 392 196.5 414 196.5 466.5>
LayerCount: 2
Fore
SplineSet
396 895 m 1,0,-1
 525 895 l 1,1,-1
 526 892 l 1,2,-1
 405 750 l 1,3,-1
 304 750 l 1,4,-1
 396 895 l 1,0,-1
660 392 m 2,5,-1
 660 294 l 2,6,7
 660 153 660 153 572.5 71.5 c 128,-1,8
 485 -10 485 -10 354 -10 c 128,-1,9
 223 -10 223 -10 135.5 71.5 c 128,-1,10
 48 153 48 153 48 294 c 2,11,-1
 48 392 l 2,12,13
 48 533 48 533 135.5 614.5 c 128,-1,14
 223 696 223 696 354 696 c 128,-1,15
 485 696 485 696 572.5 614.5 c 128,-1,16
 660 533 660 533 660 392 c 2,5,-1
498 272 m 2,17,-1
 498 414 l 2,18,19
 498 490 498 490 458 531.5 c 128,-1,20
 418 573 418 573 354 573 c 128,-1,21
 290 573 290 573 250 531.5 c 128,-1,22
 210 490 210 490 210 414 c 2,23,-1
 210 272 l 2,24,25
 210 196 210 196 250 154.5 c 128,-1,26
 290 113 290 113 354 113 c 128,-1,27
 418 113 418 113 458 154.5 c 128,-1,28
 498 196 498 196 498 272 c 2,17,-1
EndSplineSet
Position2: "'cpsp' Capital Spacing lookup 0 subtable" dx=5 dy=0 dh=10 dv=0
EndChar

StartChar: Ocircumflex
Encoding: 212 212 59
Width: 708
GlyphClass: 2
Flags: MW
HStem: -10 123<313 395 313 437.5> 573 123<313 395> 750 145<162 403 162 403 300 540 300 435>
VStem: 48 162<294 392 392 414 219.5 489.5> 498 162<272 294 294 392 196.5 414 196.5 466.5>
LayerCount: 2
Fore
SplineSet
300 895 m 1,0,-1
 403 895 l 1,1,2
 491 801 491 801 540 750 c 1,3,-1
 435 750 l 1,4,-1
 351 833 l 1,5,-1
 266 750 l 1,6,-1
 162 750 l 1,7,-1
 300 895 l 1,0,-1
660 392 m 2,8,-1
 660 294 l 2,9,10
 660 153 660 153 572.5 71.5 c 128,-1,11
 485 -10 485 -10 354 -10 c 128,-1,12
 223 -10 223 -10 135.5 71.5 c 128,-1,13
 48 153 48 153 48 294 c 2,14,-1
 48 392 l 2,15,16
 48 533 48 533 135.5 614.5 c 128,-1,17
 223 696 223 696 354 696 c 128,-1,18
 485 696 485 696 572.5 614.5 c 128,-1,19
 660 533 660 533 660 392 c 2,8,-1
498 272 m 2,20,-1
 498 414 l 2,21,22
 498 490 498 490 458 531.5 c 128,-1,23
 418 573 418 573 354 573 c 128,-1,24
 290 573 290 573 250 531.5 c 128,-1,25
 210 490 210 490 210 414 c 2,26,-1
 210 272 l 2,27,28
 210 196 210 196 250 154.5 c 128,-1,29
 290 113 290 113 354 113 c 128,-1,30
 418 113 418 113 458 154.5 c 128,-1,31
 498 196 498 196 498 272 c 2,20,-1
EndSplineSet
Position2: "'cpsp' Capital Spacing lookup 0 subtable" dx=5 dy=0 dh=10 dv=0
EndChar

StartChar: Odieresis
Encoding: 214 214 60
Width: 708
GlyphClass: 2
Flags: MW
HStem: -10 123<313 395 313 437.5> 573 123<313 395> 750 122<194 315 194 315 194 398 398 519>
VStem: 48 162<294 392 392 414 219.5 489.5> 194 121<750 872 750 872> 398 121<750 872 750 872> 498 162<272 294 294 392 196.5 414 196.5 466.5>
LayerCount: 2
Fore
SplineSet
315 872 m 1,0,-1
 315 750 l 1,1,-1
 194 750 l 1,2,-1
 194 872 l 1,3,-1
 315 872 l 1,0,-1
519 872 m 1,4,-1
 519 750 l 1,5,-1
 398 750 l 1,6,-1
 398 872 l 1,7,-1
 519 872 l 1,4,-1
660 392 m 2,8,-1
 660 294 l 2,9,10
 660 153 660 153 572.5 71.5 c 128,-1,11
 485 -10 485 -10 354 -10 c 128,-1,12
 223 -10 223 -10 135.5 71.5 c 128,-1,13
 48 153 48 153 48 294 c 2,14,-1
 48 392 l 2,15,16
 48 533 48 533 135.5 614.5 c 128,-1,17
 223 696 223 696 354 696 c 128,-1,18
 485 696 485 696 572.5 614.5 c 128,-1,19
 660 533 660 533 660 392 c 2,8,-1
498 272 m 2,20,-1
 498 414 l 2,21,22
 498 490 498 490 458 531.5 c 128,-1,23
 418 573 418 573 354 573 c 128,-1,24
 290 573 290 573 250 531.5 c 128,-1,25
 210 490 210 490 210 414 c 2,26,-1
 210 272 l 2,27,28
 210 196 210 196 250 154.5 c 128,-1,29
 290 113 290 113 354 113 c 128,-1,30
 418 113 418 113 458 154.5 c 128,-1,31
 498 196 498 196 498 272 c 2,20,-1
EndSplineSet
Position2: "'cpsp' Capital Spacing lookup 0 subtable" dx=5 dy=0 dh=10 dv=0
EndChar

StartChar: Ograve
Encoding: 210 210 61
Width: 708
GlyphClass: 2
Flags: MW
HStem: -10 123<313 395 313 437.5> 573 123<313 395> 750 145<307 316 188 409 307 307>
VStem: 48 162<294 392 392 414 219.5 489.5> 498 162<272 294 294 392 196.5 414 196.5 466.5>
LayerCount: 2
Fore
SplineSet
187 892 m 1,0,-1
 188 895 l 1,1,-1
 316 895 l 1,2,-1
 409 750 l 1,3,-1
 307 750 l 1,4,-1
 187 892 l 1,0,-1
660 392 m 2,5,-1
 660 294 l 2,6,7
 660 153 660 153 572.5 71.5 c 128,-1,8
 485 -10 485 -10 354 -10 c 128,-1,9
 223 -10 223 -10 135.5 71.5 c 128,-1,10
 48 153 48 153 48 294 c 2,11,-1
 48 392 l 2,12,13
 48 533 48 533 135.5 614.5 c 128,-1,14
 223 696 223 696 354 696 c 128,-1,15
 485 696 485 696 572.5 614.5 c 128,-1,16
 660 533 660 533 660 392 c 2,5,-1
498 272 m 2,17,-1
 498 414 l 2,18,19
 498 490 498 490 458 531.5 c 128,-1,20
 418 573 418 573 354 573 c 128,-1,21
 290 573 290 573 250 531.5 c 128,-1,22
 210 490 210 490 210 414 c 2,23,-1
 210 272 l 2,24,25
 210 196 210 196 250 154.5 c 128,-1,26
 290 113 290 113 354 113 c 128,-1,27
 418 113 418 113 458 154.5 c 128,-1,28
 498 196 498 196 498 272 c 2,17,-1
EndSplineSet
Position2: "'cpsp' Capital Spacing lookup 0 subtable" dx=5 dy=0 dh=10 dv=0
EndChar

StartChar: Ohungarumlaut
Encoding: 336 336 62
Width: 708
GlyphClass: 2
Flags: MW
HStem: -10 123<313 395 313 437.5> 573 123<313 395> 750 145<270 279 177 398 368 368 368 398 461 470>
VStem: 48 162<294 392 392 414 219.5 489.5> 498 162<272 294 294 392 196.5 414 196.5 466.5>
LayerCount: 2
Fore
SplineSet
270 895 m 1,0,-1
 398 895 l 1,1,-1
 400 892 l 1,2,-1
 279 750 l 1,3,-1
 177 750 l 1,4,-1
 270 895 l 1,0,-1
461 895 m 1,5,-1
 589 895 l 1,6,-1
 591 892 l 1,7,-1
 470 750 l 1,8,-1
 368 750 l 1,9,-1
 461 895 l 1,5,-1
660 392 m 2,10,-1
 660 294 l 2,11,12
 660 153 660 153 572.5 71.5 c 128,-1,13
 485 -10 485 -10 354 -10 c 128,-1,14
 223 -10 223 -10 135.5 71.5 c 128,-1,15
 48 153 48 153 48 294 c 2,16,-1
 48 392 l 2,17,18
 48 533 48 533 135.5 614.5 c 128,-1,19
 223 696 223 696 354 696 c 128,-1,20
 485 696 485 696 572.5 614.5 c 128,-1,21
 660 533 660 533 660 392 c 2,10,-1
498 272 m 2,22,-1
 498 414 l 2,23,24
 498 490 498 490 458 531.5 c 128,-1,25
 418 573 418 573 354 573 c 128,-1,26
 290 573 290 573 250 531.5 c 128,-1,27
 210 490 210 490 210 414 c 2,28,-1
 210 272 l 2,29,30
 210 196 210 196 250 154.5 c 128,-1,31
 290 113 290 113 354 113 c 128,-1,32
 418 113 418 113 458 154.5 c 128,-1,33
 498 196 498 196 498 272 c 2,22,-1
EndSplineSet
EndChar

StartChar: Omacron
Encoding: 332 332 63
Width: 708
GlyphClass: 2
Flags: MW
HStem: -10 123<313 395 313 437.5> 573 123<313 395> 837 74<195 513 195 513>
VStem: 48 162<294 392 392 414 219.5 489.5> 498 162<272 294 294 392 196.5 414 196.5 466.5>
LayerCount: 2
Fore
SplineSet
195 911 m 1,0,-1
 513 911 l 1,1,-1
 513 837 l 1,2,-1
 195 837 l 1,3,-1
 195 911 l 1,0,-1
660 392 m 2,4,-1
 660 294 l 2,5,6
 660 153 660 153 572.5 71.5 c 128,-1,7
 485 -10 485 -10 354 -10 c 128,-1,8
 223 -10 223 -10 135.5 71.5 c 128,-1,9
 48 153 48 153 48 294 c 2,10,-1
 48 392 l 2,11,12
 48 533 48 533 135.5 614.5 c 128,-1,13
 223 696 223 696 354 696 c 128,-1,14
 485 696 485 696 572.5 614.5 c 128,-1,15
 660 533 660 533 660 392 c 2,4,-1
498 272 m 2,16,-1
 498 414 l 2,17,18
 498 490 498 490 458 531.5 c 128,-1,19
 418 573 418 573 354 573 c 128,-1,20
 290 573 290 573 250 531.5 c 128,-1,21
 210 490 210 490 210 414 c 2,22,-1
 210 272 l 2,23,24
 210 196 210 196 250 154.5 c 128,-1,25
 290 113 290 113 354 113 c 128,-1,26
 418 113 418 113 458 154.5 c 128,-1,27
 498 196 498 196 498 272 c 2,16,-1
EndSplineSet
EndChar

StartChar: Oslash
Encoding: 216 216 64
Width: 708
GlyphClass: 2
Flags: MW
HStem: -10 123<338 395 338 437.5> 573 123<313 369>
VStem: 48 162<294 392 392 414 258 489.5> 498 162<272 294 294 392 196.5 414 196.5 428.5>
LayerCount: 2
Fore
SplineSet
660 392 m 2,0,-1
 660 294 l 2,1,2
 660 153 660 153 572.5 71.5 c 128,-1,3
 485 -10 485 -10 354 -10 c 0,4,5
 270 -10 270 -10 203 24 c 1,6,-1
 149 -65 l 1,7,-1
 63 -65 l 1,8,-1
 142 66 l 1,9,10
 48 149 48 149 48 294 c 2,11,-1
 48 392 l 2,12,13
 48 533 48 533 135.5 614.5 c 128,-1,14
 223 696 223 696 354 696 c 0,15,16
 436 696 436 696 503 663 c 1,17,-1
 558 754 l 1,18,-1
 644 754 l 1,19,-1
 564 622 l 1,20,21
 660 537 660 537 660 392 c 2,0,-1
210 414 m 2,22,-1
 210 272 l 2,23,24
 210 229 210 229 222 199 c 1,25,-1
 435 550 l 1,26,27
 400 573 400 573 354 573 c 0,28,29
 290 573 290 573 250 531.5 c 128,-1,30
 210 490 210 490 210 414 c 2,22,-1
498 272 m 2,31,-1
 498 414 l 2,32,33
 498 456 498 456 484 490 c 1,34,-1
 271 136 l 1,35,36
 306 113 306 113 362 113 c 0,37,38
 418 113 418 113 458 154.5 c 128,-1,39
 498 196 498 196 498 272 c 2,31,-1
EndSplineSet
Position2: "'cpsp' Capital Spacing lookup 0 subtable" dx=5 dy=0 dh=10 dv=0
EndChar

StartChar: Otilde
Encoding: 213 213 65
Width: 708
GlyphClass: 2
Flags: MW
HStem: -10 123<313 395 313 437.5> 573 123<313 395> 749 86<415 456 415 473> 786 87<249 290>
VStem: 48 162<294 392 392 414 219.5 489.5> 498 162<272 294 294 392 196.5 414 196.5 466.5>
LayerCount: 2
Fore
SplineSet
495 873 m 1,0,-1
 560 873 l 1,1,2
 560 825 560 825 525 787 c 128,-1,3
 490 749 490 749 434 749 c 0,4,5
 401 749 401 749 345 767.5 c 128,-1,6
 289 786 289 786 263 786 c 0,7,8
 222 786 222 786 211 749 c 1,9,-1
 145 749 l 1,10,11
 145 796 145 796 180.5 834.5 c 128,-1,12
 216 873 216 873 272 873 c 0,13,14
 305 873 305 873 360.5 854 c 128,-1,15
 416 835 416 835 442 835 c 0,16,17
 483 835 483 835 495 873 c 1,0,-1
660 392 m 2,18,-1
 660 294 l 2,19,20
 660 153 660 153 572.5 71.5 c 128,-1,21
 485 -10 485 -10 354 -10 c 128,-1,22
 223 -10 223 -10 135.5 71.5 c 128,-1,23
 48 153 48 153 48 294 c 2,24,-1
 48 392 l 2,25,26
 48 533 48 533 135.5 614.5 c 128,-1,27
 223 696 223 696 354 696 c 128,-1,28
 485 696 485 696 572.5 614.5 c 128,-1,29
 660 533 660 533 660 392 c 2,18,-1
498 272 m 2,30,-1
 498 414 l 2,31,32
 498 490 498 490 458 531.5 c 128,-1,33
 418 573 418 573 354 573 c 128,-1,34
 290 573 290 573 250 531.5 c 128,-1,35
 210 490 210 490 210 414 c 2,36,-1
 210 272 l 2,37,38
 210 196 210 196 250 154.5 c 128,-1,39
 290 113 290 113 354 113 c 128,-1,40
 418 113 418 113 458 154.5 c 128,-1,41
 498 196 498 196 498 272 c 2,30,-1
EndSplineSet
Position2: "'cpsp' Capital Spacing lookup 0 subtable" dx=5 dy=0 dh=10 dv=0
EndChar

StartChar: OE
Encoding: 338 338 66
Width: 1024
GlyphClass: 2
Flags: MW
HStem: -10 123<313 369.5> 0 123<652 962 652 984> 286 121<652 928 652 928> 562 124<652 949 652 652> 573 122<313 370 259 395>
VStem: 48 162<294 391 391 414 219.5 484.5> 498 154<0 286 29 286 272 286 407 414 414 466.5>
LayerCount: 2
Fore
SplineSet
498 0 m 1,0,-1
 498 29 l 1,1,2
 440 -10 440 -10 340 -10 c 0,3,4
 215 -10 215 -10 131.5 73.5 c 128,-1,5
 48 157 48 157 48 294 c 2,6,-1
 48 391 l 2,7,8
 48 528 48 528 131.5 611.5 c 128,-1,9
 215 695 215 695 340 695 c 0,10,11
 434 695 434 695 499 657 c 1,12,-1
 499 686 l 1,13,-1
 976 686 l 1,14,-1
 949 562 l 1,15,-1
 652 562 l 1,16,-1
 652 407 l 1,17,-1
 928 407 l 1,18,-1
 928 286 l 1,19,-1
 652 286 l 1,20,-1
 652 123 l 1,21,-1
 962 123 l 1,22,23
 970 82 970 82 984 0 c 1,24,-1
 498 0 l 1,0,-1
498 272 m 2,25,-1
 498 414 l 2,26,27
 498 490 498 490 458 531.5 c 128,-1,28
 418 573 418 573 354 573 c 128,-1,29
 290 573 290 573 250 531.5 c 128,-1,30
 210 490 210 490 210 414 c 2,31,-1
 210 272 l 2,32,33
 210 196 210 196 250 154.5 c 128,-1,34
 290 113 290 113 354 113 c 128,-1,35
 418 113 418 113 458 154.5 c 128,-1,36
 498 196 498 196 498 272 c 2,25,-1
EndSplineSet
Position2: "'cpsp' Capital Spacing lookup 0 subtable" dx=5 dy=0 dh=10 dv=0
EndChar

StartChar: P
Encoding: 80 80 67
Width: 629
GlyphClass: 2
Flags: MW
HStem: 0 21G<72 226 72 72> 265 121<226 367 367 393 226 403 226 367> 563 123<226 367 226 226>
VStem: 72 154<0 265 386 563> 455 155<471 475 475 477 477 481 417 499.5>
LayerCount: 2
Fore
SplineSet
226 0 m 1,0,-1
 72 0 l 1,1,-1
 72 686 l 1,2,-1
 403 686 l 2,3,4
 489 686 489 686 549.5 627.5 c 128,-1,5
 610 569 610 569 610 481 c 2,6,-1
 610 475 l 2,7,8
 610 388 610 388 550 326.5 c 128,-1,9
 490 265 490 265 403 265 c 2,10,-1
 226 265 l 1,11,-1
 226 0 l 1,0,-1
226 386 m 1,12,-1
 367 386 l 2,13,14
 405 386 405 386 430 411.5 c 128,-1,15
 455 437 455 437 455 471 c 2,16,-1
 455 477 l 2,17,18
 455 512 455 512 430.5 537.5 c 128,-1,19
 406 563 406 563 367 563 c 2,20,-1
 226 563 l 1,21,-1
 226 386 l 1,12,-1
EndSplineSet
Position2: "'cpsp' Capital Spacing lookup 0 subtable" dx=5 dy=0 dh=10 dv=0
EndChar

StartChar: Thorn
Encoding: 222 222 68
Width: 634
GlyphClass: 2
Flags: MW
HStem: 0 21G<72 226 72 72> 154 118<226 372 372 399 226 403 226 372> 450 122<226 372 226 403> 666 20G<72 226 226 226>
VStem: 72 154<0 154 272 450 572 686> 455 155<343.5 359 359 367 299.5 391.5>
LayerCount: 2
Fore
SplineSet
226 0 m 1,0,-1
 72 0 l 1,1,-1
 72 686 l 1,2,-1
 226 686 l 1,3,-1
 226 572 l 1,4,-1
 403 572 l 2,5,6
 490 572 490 572 550 513.5 c 128,-1,7
 610 455 610 455 610 367 c 2,8,-1
 610 359 l 2,9,10
 610 271 610 271 550 212.5 c 128,-1,11
 490 154 490 154 403 154 c 2,12,-1
 226 154 l 1,13,-1
 226 0 l 1,0,-1
226 272 m 1,14,-1
 372 272 l 2,15,16
 411 272 411 272 433 300.5 c 128,-1,17
 455 329 455 329 455 366 c 0,18,19
 455 403 455 403 431 426.5 c 128,-1,20
 407 450 407 450 372 450 c 2,21,-1
 226 450 l 1,22,-1
 226 272 l 1,14,-1
EndSplineSet
Position2: "'cpsp' Capital Spacing lookup 0 subtable" dx=5 dy=0 dh=10 dv=0
EndChar

StartChar: Q
Encoding: 81 81 69
Width: 708
GlyphClass: 2
Flags: MW
HStem: -153 99<505.5 544> 1 21G 573 123<313 395>
VStem: 48 162<294 392 392 414 219.5 489.5> 498 162<272 294 294 392 214.5 414 214.5 466.5>
LayerCount: 2
Fore
SplineSet
660 392 m 2,0,-1
 660 294 l 2,1,2
 660 179 660 179 600.5 103 c 128,-1,3
 541 27 541 27 443 1 c 1,4,5
 464 -54 464 -54 533 -54 c 0,6,7
 571.666666667 -54 571.666666667 -54 613.333333333 -41.5 c 128,-1,8
 655 -29 655 -29 655 -28 c 2,9,-1
 655 -116 l 1,10,11
 590 -153 590 -153 497.5 -153 c 128,-1,12
 405 -153 405 -153 354 -108.5 c 128,-1,13
 303 -64 303 -64 290 -4 c 1,14,15
 183 15 183 15 115.5 93 c 128,-1,16
 48 171 48 171 48 294 c 2,17,-1
 48 392 l 2,18,19
 48 533 48 533 135.5 614.5 c 128,-1,20
 223 696 223 696 354 696 c 128,-1,21
 485 696 485 696 572.5 614.5 c 128,-1,22
 660 533 660 533 660 392 c 2,0,-1
498 272 m 2,23,-1
 498 414 l 2,24,25
 498 490 498 490 458 531.5 c 128,-1,26
 418 573 418 573 354 573 c 128,-1,27
 290 573 290 573 250 531.5 c 128,-1,28
 210 490 210 490 210 414 c 2,29,-1
 210 272 l 2,30,31
 210 196 210 196 250 154.5 c 128,-1,32
 290 113 290 113 354 113 c 128,-1,33
 418 113 418 113 458 154.5 c 128,-1,34
 498 196 498 196 498 272 c 2,23,-1
EndSplineSet
Position2: "'cpsp' Capital Spacing lookup 0 subtable" dx=5 dy=0 dh=10 dv=0
EndChar

StartChar: R
Encoding: 82 82 70
Width: 665
GlyphClass: 2
Flags: MW
HStem: -7 21G<532.5 576.5> 0 21G<72 224 72 72> 284 121<224 340 224 374> 563 123<224 374 224 224>
VStem: 72 152<0 284 405 563> 447 150<144 152> 454 156<480 487 487 508.5>
AnchorPoint: "Bottom" 333 0 basechar 0
LayerCount: 2
Fore
SplineSet
648 40 m 1,0,-1
 648 6 l 1,1,2
 615 -7 615 -7 562 -7 c 0,3,4
 447 -7 447 -7 447 102 c 0,5,6
 447 158 447 158 439.5 195 c 128,-1,7
 432 232 432 232 407 258 c 128,-1,8
 382 284 382 284 340 284 c 2,9,-1
 224 284 l 1,10,-1
 224 0 l 1,11,-1
 72 0 l 1,12,-1
 72 686 l 1,13,-1
 379 686 l 2,14,15
 471.131578947 686 471.131578947 686 536.5 650 c 0,16,17
 610 609.52173913 610 609.52173913 610 516 c 0,18,19
 610 460 610 460 574.5 412 c 128,-1,20
 539 364 539 364 487 354 c 1,21,-1
 487 349 l 1,22,23
 531 335 531 335 564 289 c 128,-1,24
 597 243 597 243 597 166 c 0,25,26
 597 56 597 56 648 40 c 1,0,-1
224 405 m 1,27,-1
 374 405 l 2,28,29
 407 405 407 405 430.5 427 c 128,-1,30
 454 449 454 449 454 480 c 2,31,-1
 454 487 l 2,32,33
 454 520 454 520 431.5 541.5 c 128,-1,34
 409 563 409 563 374 563 c 2,35,-1
 224 563 l 1,36,-1
 224 405 l 1,27,-1
EndSplineSet
Position2: "'cpsp' Capital Spacing lookup 0 subtable" dx=5 dy=0 dh=10 dv=0
EndChar

StartChar: Racute
Encoding: 340 340 71
Width: 665
GlyphClass: 2
Flags: MW
HStem: -7 21G<532.5 576.5> 0 21G<72 224 72 72> 284 121<224 340 224 374> 563 123<224 374 224 224> 750 145<344 353 252 473>
VStem: 72 152<0 284 405 563> 447 150<144 152> 454 156<480 487 487 508.5>
AnchorPoint: "Bottom" 333 0 basechar 0
LayerCount: 2
Fore
SplineSet
344 895 m 1,0,-1
 473 895 l 1,1,-1
 474 892 l 1,2,-1
 353 750 l 1,3,-1
 252 750 l 1,4,-1
 344 895 l 1,0,-1
648 40 m 1,5,-1
 648 6 l 1,6,7
 615 -7 615 -7 562 -7 c 0,8,9
 447 -7 447 -7 447 102 c 0,10,11
 447 158 447 158 439.5 195 c 128,-1,12
 432 232 432 232 407 258 c 128,-1,13
 382 284 382 284 340 284 c 2,14,-1
 224 284 l 1,15,-1
 224 0 l 1,16,-1
 72 0 l 1,17,-1
 72 686 l 1,18,-1
 379 686 l 2,19,20
 471.131578947 686 471.131578947 686 536.5 650 c 0,21,22
 610 609.52173913 610 609.52173913 610 516 c 0,23,24
 610 460 610 460 574.5 412 c 128,-1,25
 539 364 539 364 487 354 c 1,26,-1
 487 349 l 1,27,28
 531 335 531 335 564 289 c 128,-1,29
 597 243 597 243 597 166 c 0,30,31
 597 56 597 56 648 40 c 1,5,-1
224 405 m 1,32,-1
 374 405 l 2,33,34
 407 405 407 405 430.5 427 c 128,-1,35
 454 449 454 449 454 480 c 2,36,-1
 454 487 l 2,37,38
 454 520 454 520 431.5 541.5 c 128,-1,39
 409 563 409 563 374 563 c 2,40,-1
 224 563 l 1,41,-1
 224 405 l 1,32,-1
EndSplineSet
EndChar

StartChar: Rcaron
Encoding: 344 344 72
Width: 665
GlyphClass: 2
Flags: MW
HStem: -7 21G<532.5 576.5> 0 21G<72 224 72 72> 284 121<224 340 224 374> 563 123<224 374 224 224> 750 145<144 385 144 282>
VStem: 72 152<0 284 405 563> 447 150<144 152> 454 156<480 487 487 508.5>
AnchorPoint: "Bottom" 333 0 basechar 0
LayerCount: 2
Fore
SplineSet
249 895 m 1,0,-1
 334 812 l 1,1,-1
 418 895 l 1,2,-1
 522 895 l 1,3,4
 473 844 473 844 385 750 c 1,5,-1
 282 750 l 1,6,-1
 144 895 l 1,7,-1
 249 895 l 1,0,-1
648 40 m 1,8,-1
 648 6 l 1,9,10
 615 -7 615 -7 562 -7 c 0,11,12
 447 -7 447 -7 447 102 c 0,13,14
 447 158 447 158 439.5 195 c 128,-1,15
 432 232 432 232 407 258 c 128,-1,16
 382 284 382 284 340 284 c 2,17,-1
 224 284 l 1,18,-1
 224 0 l 1,19,-1
 72 0 l 1,20,-1
 72 686 l 1,21,-1
 379 686 l 2,22,23
 471.131578947 686 471.131578947 686 536.5 650 c 0,24,25
 610 609.52173913 610 609.52173913 610 516 c 0,26,27
 610 460 610 460 574.5 412 c 128,-1,28
 539 364 539 364 487 354 c 1,29,-1
 487 349 l 1,30,31
 531 335 531 335 564 289 c 128,-1,32
 597 243 597 243 597 166 c 0,33,34
 597 56 597 56 648 40 c 1,8,-1
224 405 m 1,35,-1
 374 405 l 2,36,37
 407 405 407 405 430.5 427 c 128,-1,38
 454 449 454 449 454 480 c 2,39,-1
 454 487 l 2,40,41
 454 520 454 520 431.5 541.5 c 128,-1,42
 409 563 409 563 374 563 c 2,43,-1
 224 563 l 1,44,-1
 224 405 l 1,35,-1
EndSplineSet
EndChar

StartChar: Rcommaaccent
Encoding: 342 342 73
Width: 665
GlyphClass: 2
Flags: MW
HStem: -167 137<266 329 266 412> -7 21G<532.5 576.5> 0 21G<72 224 72 72> 284 121<224 340 224 374> 563 123<224 374 224 224>
VStem: 72 152<0 284 405 563> 266 146<-143 -30 -143 -30 -143 -30> 447 150<144 152> 454 156<480 487 487 508.5>
AnchorPoint: "Bottom" 333 0 basechar 0
LayerCount: 2
Fore
SplineSet
648 40 m 1,0,-1
 648 6 l 1,1,2
 615 -7 615 -7 562 -7 c 0,3,4
 447 -7 447 -7 447 102 c 0,5,6
 447 158 447 158 439.5 195 c 128,-1,7
 432 232 432 232 407 258 c 128,-1,8
 382 284 382 284 340 284 c 2,9,-1
 224 284 l 1,10,-1
 224 0 l 1,11,-1
 72 0 l 1,12,-1
 72 686 l 1,13,-1
 379 686 l 2,14,15
 471.131578947 686 471.131578947 686 536.5 650 c 0,16,17
 610 609.52173913 610 609.52173913 610 516 c 0,18,19
 610 460 610 460 574.5 412 c 128,-1,20
 539 364 539 364 487 354 c 1,21,-1
 487 349 l 1,22,23
 531 335 531 335 564 289 c 128,-1,24
 597 243 597 243 597 166 c 0,25,26
 597 56 597 56 648 40 c 1,0,-1
224 405 m 1,27,-1
 374 405 l 2,28,29
 407 405 407 405 430.5 427 c 128,-1,30
 454 449 454 449 454 480 c 2,31,-1
 454 487 l 2,32,33
 454 520 454 520 431.5 541.5 c 128,-1,34
 409 563 409 563 374 563 c 2,35,-1
 224 563 l 1,36,-1
 224 405 l 1,27,-1
329 -167 m 1,37,-1
 266 -167 l 1,38,-1
 266 -30 l 1,39,-1
 412 -30 l 1,40,-1
 412 -143 l 1,41,-1
 387 -250 l 1,42,-1
 313 -250 l 1,43,-1
 329 -167 l 1,37,-1
EndSplineSet
EndChar

StartChar: S
Encoding: 83 83 74
Width: 635
GlyphClass: 2
Flags: MW
HStem: -10 123<266 357.5 266 395> 573 123<285 357.5>
VStem: 35 146<179.5 206> 51 155<444 528 444 561.5> 435 145<483 492 492 495 483 517> 438 157<171.5 257>
AnchorPoint: "Bottom" 318 0 basechar 0
LayerCount: 2
Fore
SplineSet
182 224 m 1,0,-1
 181 208 l 1,1,2
 181 164 181 164 214 138.5 c 128,-1,3
 247 113 247 113 312 113 c 128,-1,4
 377 113 377 113 407.5 135 c 128,-1,5
 438 157 438 157 438 187 c 128,-1,6
 438 217 438 217 416.5 235 c 128,-1,7
 395 253 395 253 361 263 c 128,-1,8
 327 273 327 273 285.5 282.5 c 128,-1,9
 244 292 244 292 203 306 c 128,-1,10
 162 320 162 320 128 341 c 128,-1,11
 94 362 94 362 72.5 401 c 128,-1,12
 51 440 51 440 51 493 c 0,13,14
 51 591 51 591 127 643.5 c 128,-1,15
 203 696 203 696 318.5 696 c 128,-1,16
 434 696 434 696 507 645.5 c 128,-1,17
 580 595 580 595 580 495 c 2,18,-1
 580 483 l 1,19,-1
 435 483 l 1,20,-1
 435 492 l 2,21,22
 435 530 435 530 405 551.5 c 128,-1,23
 375 573 375 573 321 573 c 128,-1,24
 267 573 267 573 236.5 555.5 c 128,-1,25
 206 538 206 538 206 508.5 c 128,-1,26
 206 479 206 479 235 459.5 c 128,-1,27
 264 440 264 440 307 431 c 128,-1,28
 350 422 350 422 400.5 407.5 c 128,-1,29
 451 393 451 393 494 374.5 c 128,-1,30
 537 356 537 356 566 315.5 c 128,-1,31
 595 275 595 275 595 216 c 0,32,33
 595 99 595 99 519.5 44.5 c 128,-1,34
 444 -10 444 -10 318 -10 c 128,-1,35
 192 -10 192 -10 113.5 42.5 c 128,-1,36
 35 95 35 95 35 202 c 1,37,-1
 36 224 l 1,38,-1
 182 224 l 1,0,-1
EndSplineSet
Position2: "'cpsp' Capital Spacing lookup 0 subtable" dx=5 dy=0 dh=10 dv=0
EndChar

StartChar: Sacute
Encoding: 346 346 75
Width: 635
GlyphClass: 2
Flags: MW
HStem: -10 123<266 357.5 266 395> 573 123<285 357.5> 750 145<329 338 237 458>
VStem: 35 146<179.5 206> 51 155<444 528 444 561.5> 435 145<483 492 492 495 483 517> 438 157<171.5 257>
AnchorPoint: "Bottom" 318 0 basechar 0
LayerCount: 2
Fore
SplineSet
329 895 m 1,0,-1
 458 895 l 1,1,-1
 459 892 l 1,2,-1
 338 750 l 1,3,-1
 237 750 l 1,4,-1
 329 895 l 1,0,-1
182 224 m 1,5,-1
 181 208 l 1,6,7
 181 164 181 164 214 138.5 c 128,-1,8
 247 113 247 113 312 113 c 128,-1,9
 377 113 377 113 407.5 135 c 128,-1,10
 438 157 438 157 438 187 c 128,-1,11
 438 217 438 217 416.5 235 c 128,-1,12
 395 253 395 253 361 263 c 128,-1,13
 327 273 327 273 285.5 282.5 c 128,-1,14
 244 292 244 292 203 306 c 128,-1,15
 162 320 162 320 128 341 c 128,-1,16
 94 362 94 362 72.5 401 c 128,-1,17
 51 440 51 440 51 493 c 0,18,19
 51 591 51 591 127 643.5 c 128,-1,20
 203 696 203 696 318.5 696 c 128,-1,21
 434 696 434 696 507 645.5 c 128,-1,22
 580 595 580 595 580 495 c 2,23,-1
 580 483 l 1,24,-1
 435 483 l 1,25,-1
 435 492 l 2,26,27
 435 530 435 530 405 551.5 c 128,-1,28
 375 573 375 573 321 573 c 128,-1,29
 267 573 267 573 236.5 555.5 c 128,-1,30
 206 538 206 538 206 508.5 c 128,-1,31
 206 479 206 479 235 459.5 c 128,-1,32
 264 440 264 440 307 431 c 128,-1,33
 350 422 350 422 400.5 407.5 c 128,-1,34
 451 393 451 393 494 374.5 c 128,-1,35
 537 356 537 356 566 315.5 c 128,-1,36
 595 275 595 275 595 216 c 0,37,38
 595 99 595 99 519.5 44.5 c 128,-1,39
 444 -10 444 -10 318 -10 c 128,-1,40
 192 -10 192 -10 113.5 42.5 c 128,-1,41
 35 95 35 95 35 202 c 1,42,-1
 36 224 l 1,43,-1
 182 224 l 1,5,-1
EndSplineSet
EndChar

StartChar: Scaron
Encoding: 352 352 76
Width: 635
GlyphClass: 2
Flags: MW
HStem: -10 123<266 357.5 266 395> 573 123<285 357.5> 750 145<129 370 129 267>
VStem: 35 146<179.5 206> 51 155<444 528 444 561.5> 435 145<483 492 492 495 483 517> 438 157<171.5 257>
LayerCount: 2
Fore
SplineSet
234 895 m 1,0,-1
 319 812 l 1,1,-1
 403 895 l 1,2,-1
 507 895 l 1,3,4
 458 844 458 844 370 750 c 1,5,-1
 267 750 l 1,6,-1
 129 895 l 1,7,-1
 234 895 l 1,0,-1
182 224 m 1,8,-1
 181 208 l 1,9,10
 181 164 181 164 214 138.5 c 128,-1,11
 247 113 247 113 312 113 c 128,-1,12
 377 113 377 113 407.5 135 c 128,-1,13
 438 157 438 157 438 187 c 128,-1,14
 438 217 438 217 416.5 235 c 128,-1,15
 395 253 395 253 361 263 c 128,-1,16
 327 273 327 273 285.5 282.5 c 128,-1,17
 244 292 244 292 203 306 c 128,-1,18
 162 320 162 320 128 341 c 128,-1,19
 94 362 94 362 72.5 401 c 128,-1,20
 51 440 51 440 51 493 c 0,21,22
 51 591 51 591 127 643.5 c 128,-1,23
 203 696 203 696 318.5 696 c 128,-1,24
 434 696 434 696 507 645.5 c 128,-1,25
 580 595 580 595 580 495 c 2,26,-1
 580 483 l 1,27,-1
 435 483 l 1,28,-1
 435 492 l 2,29,30
 435 530 435 530 405 551.5 c 128,-1,31
 375 573 375 573 321 573 c 128,-1,32
 267 573 267 573 236.5 555.5 c 128,-1,33
 206 538 206 538 206 508.5 c 128,-1,34
 206 479 206 479 235 459.5 c 128,-1,35
 264 440 264 440 307 431 c 128,-1,36
 350 422 350 422 400.5 407.5 c 128,-1,37
 451 393 451 393 494 374.5 c 128,-1,38
 537 356 537 356 566 315.5 c 128,-1,39
 595 275 595 275 595 216 c 0,40,41
 595 99 595 99 519.5 44.5 c 128,-1,42
 444 -10 444 -10 318 -10 c 128,-1,43
 192 -10 192 -10 113.5 42.5 c 128,-1,44
 35 95 35 95 35 202 c 1,45,-1
 36 224 l 1,46,-1
 182 224 l 1,8,-1
EndSplineSet
Position2: "'cpsp' Capital Spacing lookup 0 subtable" dx=5 dy=0 dh=10 dv=0
EndChar

StartChar: Scedilla
Encoding: 350 350 77
Width: 635
GlyphClass: 2
Flags: MW
HStem: -197 55<293.5 321.5 284.5 334> -68 51<292 312 292 315> -10 123<266 357.5 266 395> 573 123<285 357.5>
VStem: 35 146<179.5 206> 51 155<444 528 444 561.5> 357 74<-117.5 -92.5> 435 145<483 492 492 495 483 517> 438 157<171.5 257>
AnchorPoint: "Bottom" 318 0 basechar 0
LayerCount: 2
Fore
SplineSet
182 224 m 1,0,-1
 181 208 l 1,1,2
 181 164 181 164 214 138.5 c 128,-1,3
 247 113 247 113 312 113 c 128,-1,4
 377 113 377 113 407.5 135 c 128,-1,5
 438 157 438 157 438 187 c 128,-1,6
 438 217 438 217 416.5 235 c 128,-1,7
 395 253 395 253 361 263 c 128,-1,8
 327 273 327 273 285.5 282.5 c 128,-1,9
 244 292 244 292 203 306 c 128,-1,10
 162 320 162 320 128 341 c 128,-1,11
 94 362 94 362 72.5 401 c 128,-1,12
 51 440 51 440 51 493 c 0,13,14
 51 591 51 591 127 643.5 c 128,-1,15
 203 696 203 696 318.5 696 c 128,-1,16
 434 696 434 696 507 645.5 c 128,-1,17
 580 595 580 595 580 495 c 2,18,-1
 580 483 l 1,19,-1
 435 483 l 1,20,-1
 435 492 l 2,21,22
 435 530 435 530 405 551.5 c 128,-1,23
 375 573 375 573 321 573 c 128,-1,24
 267 573 267 573 236.5 555.5 c 128,-1,25
 206 538 206 538 206 508.5 c 128,-1,26
 206 479 206 479 235 459.5 c 128,-1,27
 264 440 264 440 307 431 c 128,-1,28
 350 422 350 422 400.5 407.5 c 128,-1,29
 451 393 451 393 494 374.5 c 128,-1,30
 537 356 537 356 566 315.5 c 128,-1,31
 595 275 595 275 595 216 c 0,32,33
 595 99 595 99 519.5 44.5 c 128,-1,34
 444 -10 444 -10 318 -10 c 128,-1,35
 192 -10 192 -10 113.5 42.5 c 128,-1,36
 35 95 35 95 35 202 c 1,37,-1
 36 224 l 1,38,-1
 182 224 l 1,0,-1
225 -116 m 1,39,40
 269.571428571 -142 269.571428571 -142 308 -142 c 0,41,42
 357 -142 357 -142 357 -104 c 0,43,44
 357 -68 357 -68 312 -68 c 2,45,-1
 292 -68 l 1,46,-1
 292 -17 l 1,47,-1
 315 -17 l 2,48,49
 431 -17 431 -17 431 -107 c 0,50,51
 431 -142 431 -142 409 -163.5 c 128,-1,52
 387 -185 387 -185 363 -191 c 128,-1,53
 339 -197 339 -197 312 -197 c 0,54,55
 245 -197 245 -197 204 -168 c 1,56,-1
 225 -116 l 1,39,40
EndSplineSet
EndChar

StartChar: Scommaaccent
Encoding: 536 536 78
Width: 635
GlyphClass: 2
Flags: MW
HStem: -167 137<251 314 251 397> -10 123<266 357.5 266 395> 573 123<285 357.5>
VStem: 35 146<179.5 206> 51 155<444 528 444 561.5> 251 146<-143 -30 -143 -30 -143 -30> 435 145<483 492 492 495 483 517> 438 157<171.5 257>
AnchorPoint: "Bottom" 318 0 basechar 0
LayerCount: 2
Fore
SplineSet
182 224 m 1,0,-1
 181 208 l 1,1,2
 181 164 181 164 214 138.5 c 128,-1,3
 247 113 247 113 312 113 c 128,-1,4
 377 113 377 113 407.5 135 c 128,-1,5
 438 157 438 157 438 187 c 128,-1,6
 438 217 438 217 416.5 235 c 128,-1,7
 395 253 395 253 361 263 c 128,-1,8
 327 273 327 273 285.5 282.5 c 128,-1,9
 244 292 244 292 203 306 c 128,-1,10
 162 320 162 320 128 341 c 128,-1,11
 94 362 94 362 72.5 401 c 128,-1,12
 51 440 51 440 51 493 c 0,13,14
 51 591 51 591 127 643.5 c 128,-1,15
 203 696 203 696 318.5 696 c 128,-1,16
 434 696 434 696 507 645.5 c 128,-1,17
 580 595 580 595 580 495 c 2,18,-1
 580 483 l 1,19,-1
 435 483 l 1,20,-1
 435 492 l 2,21,22
 435 530 435 530 405 551.5 c 128,-1,23
 375 573 375 573 321 573 c 128,-1,24
 267 573 267 573 236.5 555.5 c 128,-1,25
 206 538 206 538 206 508.5 c 128,-1,26
 206 479 206 479 235 459.5 c 128,-1,27
 264 440 264 440 307 431 c 128,-1,28
 350 422 350 422 400.5 407.5 c 128,-1,29
 451 393 451 393 494 374.5 c 128,-1,30
 537 356 537 356 566 315.5 c 128,-1,31
 595 275 595 275 595 216 c 0,32,33
 595 99 595 99 519.5 44.5 c 128,-1,34
 444 -10 444 -10 318 -10 c 128,-1,35
 192 -10 192 -10 113.5 42.5 c 128,-1,36
 35 95 35 95 35 202 c 1,37,-1
 36 224 l 1,38,-1
 182 224 l 1,0,-1
314 -167 m 1,39,-1
 251 -167 l 1,40,-1
 251 -30 l 1,41,-1
 397 -30 l 1,42,-1
 397 -143 l 1,43,-1
 372 -250 l 1,44,-1
 298 -250 l 1,45,-1
 314 -167 l 1,39,-1
EndSplineSet
EndChar

StartChar: T
Encoding: 84 84 79
Width: 557
GlyphClass: 2
Flags: MW
HStem: 0 21G<202 355 202 202> 562 124<7 202 7 549 355 355 355 549>
VStem: 202 153<0 562>
AnchorPoint: "Bottom" 279 0 basechar 0
LayerCount: 2
Fore
SplineSet
355 0 m 1,0,-1
 202 0 l 1,1,-1
 202 562 l 1,2,-1
 7 562 l 1,3,-1
 7 686 l 1,4,-1
 549 686 l 1,5,-1
 549 562 l 1,6,-1
 355 562 l 1,7,-1
 355 0 l 1,0,-1
EndSplineSet
Position2: "'cpsp' Capital Spacing lookup 0 subtable" dx=5 dy=0 dh=10 dv=0
EndChar

StartChar: Tcaron
Encoding: 356 356 80
Width: 557
GlyphClass: 2
Flags: MW
HStem: 0 21G<202 355 202 202> 562 124<7 202 7 549 355 355 355 549> 750 145<90 331 90 228>
VStem: 202 153<0 562>
AnchorPoint: "Bottom" 279 0 basechar 0
LayerCount: 2
Fore
SplineSet
195 895 m 1,0,-1
 280 812 l 1,1,-1
 364 895 l 1,2,-1
 468 895 l 1,3,4
 419 844 419 844 331 750 c 1,5,-1
 228 750 l 1,6,-1
 90 895 l 1,7,-1
 195 895 l 1,0,-1
355 0 m 1,8,-1
 202 0 l 1,9,-1
 202 562 l 1,10,-1
 7 562 l 1,11,-1
 7 686 l 1,12,-1
 549 686 l 1,13,-1
 549 562 l 1,14,-1
 355 562 l 1,15,-1
 355 0 l 1,8,-1
EndSplineSet
EndChar

StartChar: Tcedilla
Encoding: 354 354 81
Width: 557
GlyphClass: 2
Flags: MW
HStem: -197 55<254.5 282.5 245.5 295> -68 51<253 273 253 276> 0 21G<202 355 202 202> 562 124<7 202 7 549 355 355 355 549>
VStem: 202 153<0 562> 318 74<-117.5 -92.5>
AnchorPoint: "Bottom" 279 0 basechar 0
LayerCount: 2
Fore
SplineSet
355 0 m 1,0,-1
 202 0 l 1,1,-1
 202 562 l 1,2,-1
 7 562 l 1,3,-1
 7 686 l 1,4,-1
 549 686 l 1,5,-1
 549 562 l 1,6,-1
 355 562 l 1,7,-1
 355 0 l 1,0,-1
186 -116 m 1,8,9
 230.571428571 -142 230.571428571 -142 269 -142 c 0,10,11
 318 -142 318 -142 318 -104 c 0,12,13
 318 -68 318 -68 273 -68 c 2,14,-1
 253 -68 l 1,15,-1
 253 -17 l 1,16,-1
 276 -17 l 2,17,18
 392 -17 392 -17 392 -107 c 0,19,20
 392 -142 392 -142 370 -163.5 c 128,-1,21
 348 -185 348 -185 324 -191 c 128,-1,22
 300 -197 300 -197 273 -197 c 0,23,24
 206 -197 206 -197 165 -168 c 1,25,-1
 186 -116 l 1,8,9
EndSplineSet
EndChar

StartChar: Tcommaaccent
Encoding: 538 538 82
Width: 557
GlyphClass: 2
Flags: MW
HStem: -167 137<212 275 212 358> 0 21G<202 355 202 202> 562 124<7 202 7 549 355 355 355 549>
VStem: 202 153<0 562>
AnchorPoint: "Bottom" 279 0 basechar 0
LayerCount: 2
Fore
SplineSet
355 0 m 1,0,-1
 202 0 l 1,1,-1
 202 562 l 1,2,-1
 7 562 l 1,3,-1
 7 686 l 1,4,-1
 549 686 l 1,5,-1
 549 562 l 1,6,-1
 355 562 l 1,7,-1
 355 0 l 1,0,-1
275 -167 m 1,8,-1
 212 -167 l 1,9,-1
 212 -30 l 1,10,-1
 358 -30 l 1,11,-1
 358 -143 l 1,12,-1
 333 -250 l 1,13,-1
 259 -250 l 1,14,-1
 275 -167 l 1,8,-1
EndSplineSet
EndChar

StartChar: U
Encoding: 85 85 83
Width: 673
GlyphClass: 2
Flags: MW
HStem: -10 122<302 322 322 350> 666 20G<64 218 218 218 455 609 609 609>
VStem: 64 154<218 221 221 686> 455 154<221 686>
LayerCount: 2
Fore
SplineSet
609 686 m 1,0,-1
 609 218 l 2,1,2
 609 115 609 115 538 52.5 c 128,-1,3
 467 -10 467 -10 350 -10 c 2,4,-1
 322 -10 l 2,5,6
 205 -10 205 -10 134.5 52.5 c 128,-1,7
 64 115 64 115 64 218 c 2,8,-1
 64 686 l 1,9,-1
 218 686 l 1,10,-1
 218 221 l 2,11,12
 218 174 218 174 251.5 143 c 128,-1,13
 285 112 285 112 337.5 112 c 0,14,15
 390 112 390 112 422.5 142.5 c 128,-1,16
 455 173 455 173 455 221 c 2,17,-1
 455 686 l 1,18,-1
 609 686 l 1,0,-1
EndSplineSet
Position2: "'cpsp' Capital Spacing lookup 0 subtable" dx=5 dy=0 dh=10 dv=0
EndChar

StartChar: Uacute
Encoding: 218 218 84
Width: 673
GlyphClass: 2
Flags: MW
HStem: -10 122<302 322 322 350> 666 20G<64 218 218 218 455 609 609 609> 750 145<377 386 285 506>
VStem: 64 154<218 221 221 686> 455 154<221 686>
LayerCount: 2
Fore
SplineSet
377 895 m 1,0,-1
 506 895 l 1,1,-1
 507 892 l 1,2,-1
 386 750 l 1,3,-1
 285 750 l 1,4,-1
 377 895 l 1,0,-1
609 686 m 1,5,-1
 609 218 l 2,6,7
 609 115 609 115 538 52.5 c 128,-1,8
 467 -10 467 -10 350 -10 c 2,9,-1
 322 -10 l 2,10,11
 205 -10 205 -10 134.5 52.5 c 128,-1,12
 64 115 64 115 64 218 c 2,13,-1
 64 686 l 1,14,-1
 218 686 l 1,15,-1
 218 221 l 2,16,17
 218 174 218 174 251.5 143 c 128,-1,18
 285 112 285 112 337.5 112 c 0,19,20
 390 112 390 112 422.5 142.5 c 128,-1,21
 455 173 455 173 455 221 c 2,22,-1
 455 686 l 1,23,-1
 609 686 l 1,5,-1
EndSplineSet
Position2: "'cpsp' Capital Spacing lookup 0 subtable" dx=5 dy=0 dh=10 dv=0
EndChar

StartChar: Ucircumflex
Encoding: 219 219 85
Width: 673
GlyphClass: 2
Flags: MW
HStem: -10 122<302 322 322 350> 666 20G<64 218 218 218 455 609 609 609> 750 145<149 390 149 390 287 527 287 422>
VStem: 64 154<218 221 221 686> 455 154<221 686>
LayerCount: 2
Fore
SplineSet
287 895 m 1,0,-1
 390 895 l 1,1,2
 478 801 478 801 527 750 c 1,3,-1
 422 750 l 1,4,-1
 338 833 l 1,5,-1
 253 750 l 1,6,-1
 149 750 l 1,7,-1
 287 895 l 1,0,-1
609 686 m 1,8,-1
 609 218 l 2,9,10
 609 115 609 115 538 52.5 c 128,-1,11
 467 -10 467 -10 350 -10 c 2,12,-1
 322 -10 l 2,13,14
 205 -10 205 -10 134.5 52.5 c 128,-1,15
 64 115 64 115 64 218 c 2,16,-1
 64 686 l 1,17,-1
 218 686 l 1,18,-1
 218 221 l 2,19,20
 218 174 218 174 251.5 143 c 128,-1,21
 285 112 285 112 337.5 112 c 0,22,23
 390 112 390 112 422.5 142.5 c 128,-1,24
 455 173 455 173 455 221 c 2,25,-1
 455 686 l 1,26,-1
 609 686 l 1,8,-1
EndSplineSet
Position2: "'cpsp' Capital Spacing lookup 0 subtable" dx=5 dy=0 dh=10 dv=0
EndChar

StartChar: Udieresis
Encoding: 220 220 86
Width: 673
GlyphClass: 2
Flags: MW
HStem: -10 122<302 322 322 350> 666 20G<64 218 218 218 455 609 609 609> 750 122<175 296 175 296 175 379 379 500>
VStem: 64 154<218 221 221 686> 175 121<750 872 750 872> 379 121<750 872 750 872> 455 154<221 686>
LayerCount: 2
Fore
SplineSet
296 872 m 1,0,-1
 296 750 l 1,1,-1
 175 750 l 1,2,-1
 175 872 l 1,3,-1
 296 872 l 1,0,-1
500 872 m 1,4,-1
 500 750 l 1,5,-1
 379 750 l 1,6,-1
 379 872 l 1,7,-1
 500 872 l 1,4,-1
609 686 m 1,8,-1
 609 218 l 2,9,10
 609 115 609 115 538 52.5 c 128,-1,11
 467 -10 467 -10 350 -10 c 2,12,-1
 322 -10 l 2,13,14
 205 -10 205 -10 134.5 52.5 c 128,-1,15
 64 115 64 115 64 218 c 2,16,-1
 64 686 l 1,17,-1
 218 686 l 1,18,-1
 218 221 l 2,19,20
 218 174 218 174 251.5 143 c 128,-1,21
 285 112 285 112 337.5 112 c 0,22,23
 390 112 390 112 422.5 142.5 c 128,-1,24
 455 173 455 173 455 221 c 2,25,-1
 455 686 l 1,26,-1
 609 686 l 1,8,-1
EndSplineSet
Position2: "'cpsp' Capital Spacing lookup 0 subtable" dx=5 dy=0 dh=10 dv=0
EndChar

StartChar: Ugrave
Encoding: 217 217 87
Width: 673
GlyphClass: 2
Flags: MW
HStem: -10 122<302 322 322 350> 666 20G<64 218 218 218 455 609 609 609> 750 145<290 299 171 392 290 290>
VStem: 64 154<218 221 221 686> 455 154<221 686>
LayerCount: 2
Fore
SplineSet
170 892 m 1,0,-1
 171 895 l 1,1,-1
 299 895 l 1,2,-1
 392 750 l 1,3,-1
 290 750 l 1,4,-1
 170 892 l 1,0,-1
609 686 m 1,5,-1
 609 218 l 2,6,7
 609 115 609 115 538 52.5 c 128,-1,8
 467 -10 467 -10 350 -10 c 2,9,-1
 322 -10 l 2,10,11
 205 -10 205 -10 134.5 52.5 c 128,-1,12
 64 115 64 115 64 218 c 2,13,-1
 64 686 l 1,14,-1
 218 686 l 1,15,-1
 218 221 l 2,16,17
 218 174 218 174 251.5 143 c 128,-1,18
 285 112 285 112 337.5 112 c 0,19,20
 390 112 390 112 422.5 142.5 c 128,-1,21
 455 173 455 173 455 221 c 2,22,-1
 455 686 l 1,23,-1
 609 686 l 1,5,-1
EndSplineSet
Position2: "'cpsp' Capital Spacing lookup 0 subtable" dx=5 dy=0 dh=10 dv=0
EndChar

StartChar: Uhungarumlaut
Encoding: 368 368 88
Width: 673
GlyphClass: 2
Flags: MW
HStem: -10 122<302 322 322 350> 666 20G<64 218 218 218 455 609 609 609> 750 145<253 262 160 381 351 351 351 381 444 453>
VStem: 64 154<218 221 221 686> 455 154<221 686>
LayerCount: 2
Fore
SplineSet
253 895 m 1,0,-1
 381 895 l 1,1,-1
 383 892 l 1,2,-1
 262 750 l 1,3,-1
 160 750 l 1,4,-1
 253 895 l 1,0,-1
444 895 m 1,5,-1
 572 895 l 1,6,-1
 574 892 l 1,7,-1
 453 750 l 1,8,-1
 351 750 l 1,9,-1
 444 895 l 1,5,-1
609 686 m 1,10,-1
 609 218 l 2,11,12
 609 115 609 115 538 52.5 c 128,-1,13
 467 -10 467 -10 350 -10 c 2,14,-1
 322 -10 l 2,15,16
 205 -10 205 -10 134.5 52.5 c 128,-1,17
 64 115 64 115 64 218 c 2,18,-1
 64 686 l 1,19,-1
 218 686 l 1,20,-1
 218 221 l 2,21,22
 218 174 218 174 251.5 143 c 128,-1,23
 285 112 285 112 337.5 112 c 0,24,25
 390 112 390 112 422.5 142.5 c 128,-1,26
 455 173 455 173 455 221 c 2,27,-1
 455 686 l 1,28,-1
 609 686 l 1,10,-1
EndSplineSet
EndChar

StartChar: Umacron
Encoding: 362 362 89
Width: 673
GlyphClass: 2
Flags: MW
HStem: -10 122<302 322 322 350> 666 20G<64 218 218 218 455 609 609 609> 837 74<178 496 178 496>
VStem: 64 154<218 221 221 686> 455 154<221 686>
LayerCount: 2
Fore
SplineSet
178 911 m 1,0,-1
 496 911 l 1,1,-1
 496 837 l 1,2,-1
 178 837 l 1,3,-1
 178 911 l 1,0,-1
609 686 m 1,4,-1
 609 218 l 2,5,6
 609 115 609 115 538 52.5 c 128,-1,7
 467 -10 467 -10 350 -10 c 2,8,-1
 322 -10 l 2,9,10
 205 -10 205 -10 134.5 52.5 c 128,-1,11
 64 115 64 115 64 218 c 2,12,-1
 64 686 l 1,13,-1
 218 686 l 1,14,-1
 218 221 l 2,15,16
 218 174 218 174 251.5 143 c 128,-1,17
 285 112 285 112 337.5 112 c 0,18,19
 390 112 390 112 422.5 142.5 c 128,-1,20
 455 173 455 173 455 221 c 2,21,-1
 455 686 l 1,22,-1
 609 686 l 1,4,-1
EndSplineSet
EndChar

StartChar: Uogonek
Encoding: 370 370 90
Width: 673
GlyphClass: 2
Flags: MW
HStem: -143 50<432.5 443.5> -10 122<302 322 322 350> 666 20G<64 218 218 218 455 609 609 609>
VStem: 64 154<218 221 221 686> 330 69<-71 -58> 455 154<221 686>
LayerCount: 2
Fore
SplineSet
609 686 m 1,0,-1
 609 218 l 2,1,2
 609 135 609 135 562.5 77.5 c 128,-1,3
 516 20 516 20 435 0 c 1,4,-1
 446 0 l 1,5,6
 399 -26 399 -26 399 -57 c 0,7,8
 399 -93 399 -93 443 -93 c 0,9,10
 473 -93 473 -93 510 -79 c 1,11,-1
 523 -119 l 1,12,13
 480 -143 480 -143 433.5 -143 c 0,14,15
 330 -143 330 -143 330 -71 c 0,16,17
 330 -41 330 -41 370 -9 c 1,18,-1
 350 -10 l 1,19,-1
 322 -10 l 2,20,21
 205 -10 205 -10 134.5 52.5 c 128,-1,22
 64 115 64 115 64 218 c 2,23,-1
 64 686 l 1,24,-1
 218 686 l 1,25,-1
 218 221 l 2,26,27
 218 174 218 174 251.5 143 c 128,-1,28
 285 112 285 112 337.5 112 c 128,-1,29
 390 112 390 112 422.5 142.5 c 128,-1,30
 455 173 455 173 455 221 c 2,31,-1
 455 686 l 1,32,-1
 609 686 l 1,0,-1
EndSplineSet
EndChar

StartChar: Uring
Encoding: 366 366 91
Width: 673
GlyphClass: 2
Flags: MW
HStem: -10 122<302 322 322 350> 666 20G<64 218 218 218 455 609 609 609> 719 57<325 349 325 365> 864 57<325 349>
VStem: 64 154<218 221 221 686> 236 57<808 832 808 848> 381 57<808 832> 455 154<221 686>
LayerCount: 2
Fore
SplineSet
236 820 m 128,-1,1
 236 862 236 862 265.5 891.5 c 128,-1,2
 295 921 295 921 337 921 c 128,-1,3
 379 921 379 921 408.5 891.5 c 128,-1,4
 438 862 438 862 438 820 c 128,-1,5
 438 778 438 778 408.5 748.5 c 128,-1,6
 379 719 379 719 337 719 c 128,-1,7
 295 719 295 719 265.5 748.5 c 128,-1,0
 236 778 236 778 236 820 c 128,-1,1
293 820 m 128,-1,9
 293 802 293 802 306 789 c 128,-1,10
 319 776 319 776 337 776 c 128,-1,11
 355 776 355 776 368 789 c 128,-1,12
 381 802 381 802 381 820 c 128,-1,13
 381 838 381 838 368 851 c 128,-1,14
 355 864 355 864 337 864 c 128,-1,15
 319 864 319 864 306 851 c 128,-1,8
 293 838 293 838 293 820 c 128,-1,9
609 686 m 1,16,-1
 609 218 l 2,17,18
 609 115 609 115 538 52.5 c 128,-1,19
 467 -10 467 -10 350 -10 c 2,20,-1
 322 -10 l 2,21,22
 205 -10 205 -10 134.5 52.5 c 128,-1,23
 64 115 64 115 64 218 c 2,24,-1
 64 686 l 1,25,-1
 218 686 l 1,26,-1
 218 221 l 2,27,28
 218 174 218 174 251.5 143 c 128,-1,29
 285 112 285 112 337.5 112 c 0,30,31
 390 112 390 112 422.5 142.5 c 128,-1,32
 455 173 455 173 455 221 c 2,33,-1
 455 686 l 1,34,-1
 609 686 l 1,16,-1
EndSplineSet
EndChar

StartChar: V
Encoding: 86 86 92
Width: 643
GlyphClass: 2
Flags: MW
HStem: 0 21G<232 409 232 232> 666 20G<7 169 169 169 487 635 635 635>
VStem: 7 628<686 686>
LayerCount: 2
Fore
SplineSet
487 686 m 1,0,-1
 635 686 l 1,1,-1
 409 0 l 1,2,-1
 232 0 l 1,3,-1
 7 686 l 1,4,-1
 169 686 l 1,5,-1
 325 196 l 1,6,-1
 330 196 l 1,7,-1
 487 686 l 1,0,-1
EndSplineSet
Position2: "'cpsp' Capital Spacing lookup 0 subtable" dx=5 dy=0 dh=10 dv=0
EndChar

StartChar: W
Encoding: 87 87 93
Width: 972
GlyphClass: 2
Flags: MW
HStem: 0 21G<199 370 199 199 602 602 602 771> 666 20G<7 168 168 168 416 571 571 571 818 964 964 964>
VStem: 7 957<686 686>
LayerCount: 2
Fore
SplineSet
697 237 m 1,0,-1
 818 686 l 1,1,-1
 964 686 l 1,2,-1
 771 0 l 1,3,-1
 602 0 l 1,4,-1
 490 412 l 1,5,-1
 484 412 l 1,6,-1
 370 0 l 1,7,-1
 199 0 l 1,8,-1
 7 686 l 1,9,-1
 168 686 l 1,10,-1
 289 237 l 1,11,-1
 294 237 l 1,12,-1
 416 686 l 1,13,-1
 571 686 l 1,14,-1
 692 237 l 1,15,-1
 697 237 l 1,0,-1
EndSplineSet
Position2: "'cpsp' Capital Spacing lookup 0 subtable" dx=5 dy=0 dh=10 dv=0
EndChar

StartChar: X
Encoding: 88 88 94
Width: 658
GlyphClass: 2
Flags: MW
HStem: 0 21G<0 0 0 167 477 477 477 658> 666 20G<22 203 203 203 470 637 637 637>
VStem: 0 658<0 0>
LayerCount: 2
Fore
SplineSet
0 0 m 1,0,-1
 232 360 l 1,1,-1
 22 686 l 1,2,-1
 203 686 l 1,3,-1
 333 476 l 1,4,-1
 337 476 l 1,5,6
 439 630 439 630 470 686 c 1,7,-1
 637 686 l 1,8,9
 517 499 517 499 426 362 c 1,10,-1
 658 0 l 1,11,-1
 477 0 l 1,12,-1
 325 245 l 1,13,-1
 321 245 l 1,14,15
 192 46 192 46 167 0 c 1,16,-1
 0 0 l 1,0,-1
EndSplineSet
Position2: "'cpsp' Capital Spacing lookup 0 subtable" dx=5 dy=0 dh=10 dv=0
EndChar

StartChar: Y
Encoding: 89 89 95
Width: 637
GlyphClass: 2
Flags: MW
HStem: 0 21G<242 396 242 242> 666 20G<7 181 181 181 472 630 630 630>
VStem: 242 154<0 263>
LayerCount: 2
Fore
SplineSet
396 0 m 1,0,-1
 242 0 l 1,1,-1
 242 263 l 1,2,-1
 7 686 l 1,3,-1
 181 686 l 1,4,-1
 324 414 l 1,5,-1
 329 414 l 1,6,-1
 472 686 l 1,7,-1
 630 686 l 1,8,-1
 396 263 l 1,9,-1
 396 0 l 1,0,-1
EndSplineSet
Position2: "'cpsp' Capital Spacing lookup 0 subtable" dx=5 dy=0 dh=10 dv=0
EndChar

StartChar: Yacute
Encoding: 221 221 96
Width: 637
GlyphClass: 2
Flags: MW
HStem: 0 21G<242 396 242 242> 666 20G<7 181 181 181 472 630 630 630> 750 145<367 376 275 496>
VStem: 242 154<0 263>
LayerCount: 2
Fore
SplineSet
367 895 m 1,0,-1
 496 895 l 1,1,-1
 497 892 l 1,2,-1
 376 750 l 1,3,-1
 275 750 l 1,4,-1
 367 895 l 1,0,-1
396 0 m 1,5,-1
 242 0 l 1,6,-1
 242 263 l 1,7,-1
 7 686 l 1,8,-1
 181 686 l 1,9,-1
 324 414 l 1,10,-1
 329 414 l 1,11,-1
 472 686 l 1,12,-1
 630 686 l 1,13,-1
 396 263 l 1,14,-1
 396 0 l 1,5,-1
EndSplineSet
Position2: "'cpsp' Capital Spacing lookup 0 subtable" dx=5 dy=0 dh=10 dv=0
EndChar

StartChar: Ydieresis
Encoding: 376 376 97
Width: 637
GlyphClass: 2
Flags: MW
HStem: 0 21G<242 396 242 242> 666 20G<7 181 181 181 472 630 630 630> 749 122<168 289 168 289 168 372 372 493>
VStem: 168 121<749 871 749 871> 242 154<0 263> 372 121<749 871 749 871>
LayerCount: 2
Fore
SplineSet
289 871 m 1,0,-1
 289 749 l 1,1,-1
 168 749 l 1,2,-1
 168 871 l 1,3,-1
 289 871 l 1,0,-1
493 871 m 1,4,-1
 493 749 l 1,5,-1
 372 749 l 1,6,-1
 372 871 l 1,7,-1
 493 871 l 1,4,-1
396 0 m 1,8,-1
 242 0 l 1,9,-1
 242 263 l 1,10,-1
 7 686 l 1,11,-1
 181 686 l 1,12,-1
 324 414 l 1,13,-1
 329 414 l 1,14,-1
 472 686 l 1,15,-1
 630 686 l 1,16,-1
 396 263 l 1,17,-1
 396 0 l 1,8,-1
EndSplineSet
Position2: "'cpsp' Capital Spacing lookup 0 subtable" dx=5 dy=0 dh=10 dv=0
EndChar

StartChar: Z
Encoding: 90 90 98
Width: 631
GlyphClass: 2
Flags: MW
HStem: 0 123<266 589 266 589> 563 123<66 358 66 581>
VStem: 42 547<0 49 49 49>
LayerCount: 2
Fore
SplineSet
42 49 m 1,0,-1
 358 563 l 1,1,-1
 66 563 l 1,2,-1
 66 686 l 1,3,-1
 581 686 l 1,4,-1
 581 636 l 1,5,-1
 266 123 l 1,6,-1
 589 123 l 1,7,-1
 589 0 l 1,8,-1
 42 0 l 1,9,-1
 42 49 l 1,0,-1
EndSplineSet
Position2: "'cpsp' Capital Spacing lookup 0 subtable" dx=5 dy=0 dh=10 dv=0
EndChar

StartChar: Zacute
Encoding: 377 377 99
Width: 631
GlyphClass: 2
Flags: MW
HStem: 0 123<266 589 266 589> 563 123<66 358 66 581> 750 145<327 336 235 456>
VStem: 42 547<0 49 49 49>
LayerCount: 2
Fore
SplineSet
327 895 m 1,0,-1
 456 895 l 1,1,-1
 457 892 l 1,2,-1
 336 750 l 1,3,-1
 235 750 l 1,4,-1
 327 895 l 1,0,-1
42 49 m 1,5,-1
 358 563 l 1,6,-1
 66 563 l 1,7,-1
 66 686 l 1,8,-1
 581 686 l 1,9,-1
 581 636 l 1,10,-1
 266 123 l 1,11,-1
 589 123 l 1,12,-1
 589 0 l 1,13,-1
 42 0 l 1,14,-1
 42 49 l 1,5,-1
EndSplineSet
EndChar

StartChar: Zcaron
Encoding: 381 381 100
Width: 631
GlyphClass: 2
Flags: MW
HStem: 0 123<266 589 266 589> 563 123<66 358 66 581> 750 145<133 374 133 271>
VStem: 42 547<0 49 49 49>
LayerCount: 2
Fore
SplineSet
238 895 m 1,0,-1
 323 812 l 1,1,-1
 407 895 l 1,2,-1
 511 895 l 1,3,4
 462 844 462 844 374 750 c 1,5,-1
 271 750 l 1,6,-1
 133 895 l 1,7,-1
 238 895 l 1,0,-1
42 49 m 1,8,-1
 358 563 l 1,9,-1
 66 563 l 1,10,-1
 66 686 l 1,11,-1
 581 686 l 1,12,-1
 581 636 l 1,13,-1
 266 123 l 1,14,-1
 589 123 l 1,15,-1
 589 0 l 1,16,-1
 42 0 l 1,17,-1
 42 49 l 1,8,-1
EndSplineSet
Position2: "'cpsp' Capital Spacing lookup 0 subtable" dx=5 dy=0 dh=10 dv=0
EndChar

StartChar: Zdotaccent
Encoding: 379 379 101
Width: 631
GlyphClass: 2
Flags: MW
HStem: 0 123<266 589 266 589> 563 123<66 358 66 581> 779 132<297.5 333.5>
VStem: 250 132<827 863 826 863.5>
LayerCount: 2
Fore
SplineSet
363 891.5 m 128,-1,1
 382 872 382 872 382 844.5 c 128,-1,2
 382 817 382 817 362.5 798 c 128,-1,3
 343 779 343 779 316 779 c 128,-1,4
 289 779 289 779 269.5 798.5 c 128,-1,5
 250 818 250 818 250 845.5 c 128,-1,6
 250 873 250 873 269 892 c 128,-1,7
 288 911 288 911 316 911 c 128,-1,0
 344 911 344 911 363 891.5 c 128,-1,1
42 49 m 1,8,-1
 358 563 l 1,9,-1
 66 563 l 1,10,-1
 66 686 l 1,11,-1
 581 686 l 1,12,-1
 581 636 l 1,13,-1
 266 123 l 1,14,-1
 589 123 l 1,15,-1
 589 0 l 1,16,-1
 42 0 l 1,17,-1
 42 49 l 1,8,-1
EndSplineSet
EndChar

StartChar: a
Encoding: 97 97 102
Width: 598
GlyphClass: 2
Flags: MW
HStem: -10 100<241.5 255> 229 82<317.5 379> 421 100<281 302 302 322>
VStem: 40 151<127.5 179 127.5 212.5> 56 143<354 415> 379 143<202 229 229 229 311 345 345 362>
LayerCount: 2
Fore
SplineSet
379 311 m 1,0,-1
 379 345 l 2,1,2
 379 421 379 421 288 421 c 0,3,4
 248 421 248 421 223.5 401.5 c 128,-1,5
 199 382 199 382 199 362 c 2,6,-1
 199 354 l 1,7,-1
 58 354 l 1,8,9
 56 366 56 366 56 372 c 0,10,11
 56 437 56 437 118.5 479 c 128,-1,12
 181 521 181 521 281 521 c 2,13,-1
 302 521 l 2,14,15
 410 521 410 521 466 478.5 c 128,-1,16
 522 436 522 436 522 362 c 2,17,-1
 522 126 l 2,18,19
 522 108 522 108 530.5 99 c 128,-1,20
 539 90 539 90 554.5 90 c 128,-1,21
 570 90 570 90 592 101 c 1,22,-1
 592 11 l 1,23,24
 555 -10 555 -10 504 -10 c 0,25,26
 396 -10 396 -10 386 76 c 1,27,28
 316 -10 316 -10 214 -10 c 0,29,30
 40 -10 40 -10 40 139 c 0,31,32
 40 221.890909091 40 221.890909091 99.5 263 c 0,33,34
 152.098069261 299.340484217 152.098069261 299.340484217 264 307.5 c 0,35,36
 312 311 312 311 379 311 c 1,0,-1
379 202 m 2,37,-1
 379 229 l 1,38,39
 284 229 284 229 237.5 210.5 c 128,-1,40
 191 192 191 192 191 154.5 c 128,-1,41
 191 117 191 117 209.5 103.5 c 128,-1,42
 228 90 228 90 267.5 90 c 128,-1,43
 307 90 307 90 343 122 c 128,-1,44
 379 154 379 154 379 202 c 2,37,-1
EndSplineSet
Substitution2: "Single Substitution lookup 5 subtable" ordfeminine
Substitution2: "'aalt' Access All Alternates lookup 0 subtable" ordfeminine
EndChar

StartChar: aacute
Encoding: 225 225 103
Width: 598
GlyphClass: 2
Flags: MW
HStem: -10 100<241.5 255> 229 82<317.5 379> 421 100<281 302 302 322> 575 145<338 347 246 467>
VStem: 40 151<127.5 179 127.5 212.5> 56 143<354 415> 379 143<202 229 229 229 311 345 345 362>
LayerCount: 2
Fore
SplineSet
338 720 m 1,0,-1
 467 720 l 1,1,-1
 468 717 l 1,2,-1
 347 575 l 1,3,-1
 246 575 l 1,4,-1
 338 720 l 1,0,-1
379 311 m 1,5,-1
 379 345 l 2,6,7
 379 421 379 421 288 421 c 0,8,9
 248 421 248 421 223.5 401.5 c 128,-1,10
 199 382 199 382 199 362 c 2,11,-1
 199 354 l 1,12,-1
 58 354 l 1,13,14
 56 366 56 366 56 372 c 0,15,16
 56 437 56 437 118.5 479 c 128,-1,17
 181 521 181 521 281 521 c 2,18,-1
 302 521 l 2,19,20
 410 521 410 521 466 478.5 c 128,-1,21
 522 436 522 436 522 362 c 2,22,-1
 522 126 l 2,23,24
 522 108 522 108 530.5 99 c 128,-1,25
 539 90 539 90 554.5 90 c 128,-1,26
 570 90 570 90 592 101 c 1,27,-1
 592 11 l 1,28,29
 555 -10 555 -10 504 -10 c 0,30,31
 396 -10 396 -10 386 76 c 1,32,33
 316 -10 316 -10 214 -10 c 0,34,35
 40 -10 40 -10 40 139 c 0,36,37
 40 221.890909091 40 221.890909091 99.5 263 c 0,38,39
 152.098069261 299.340484217 152.098069261 299.340484217 264 307.5 c 0,40,41
 312 311 312 311 379 311 c 1,5,-1
379 202 m 2,42,-1
 379 229 l 1,43,44
 284 229 284 229 237.5 210.5 c 128,-1,45
 191 192 191 192 191 154.5 c 128,-1,46
 191 117 191 117 209.5 103.5 c 128,-1,47
 228 90 228 90 267.5 90 c 128,-1,48
 307 90 307 90 343 122 c 128,-1,49
 379 154 379 154 379 202 c 2,42,-1
EndSplineSet
EndChar

StartChar: abreve
Encoding: 259 259 104
Width: 598
GlyphClass: 2
Flags: MW
HStem: -10 100<241.5 255> 229 82<317.5 379> 421 100<281 302 302 322> 613 74<269 326 269 351.5>
VStem: 40 151<127.5 179 127.5 212.5> 56 143<354 415> 379 143<202 229 229 229 311 345 345 362>
LayerCount: 2
Fore
SplineSet
298 613 m 128,-1,1
 221 613 221 613 163.5 652.5 c 128,-1,2
 106 692 106 692 106 737 c 1,3,-1
 187 737 l 1,4,5
 192 718 192 718 224 702.5 c 128,-1,6
 256 687 256 687 297 687 c 128,-1,7
 338 687 338 687 371.5 703 c 128,-1,8
 405 719 405 719 409 737 c 1,9,-1
 491 737 l 1,10,11
 491 692 491 692 433 652.5 c 128,-1,0
 375 613 375 613 298 613 c 128,-1,1
379 311 m 1,12,-1
 379 345 l 2,13,14
 379 421 379 421 288 421 c 0,15,16
 248 421 248 421 223.5 401.5 c 128,-1,17
 199 382 199 382 199 362 c 2,18,-1
 199 354 l 1,19,-1
 58 354 l 1,20,21
 56 366 56 366 56 372 c 0,22,23
 56 437 56 437 118.5 479 c 128,-1,24
 181 521 181 521 281 521 c 2,25,-1
 302 521 l 2,26,27
 410 521 410 521 466 478.5 c 128,-1,28
 522 436 522 436 522 362 c 2,29,-1
 522 126 l 2,30,31
 522 108 522 108 530.5 99 c 128,-1,32
 539 90 539 90 554.5 90 c 128,-1,33
 570 90 570 90 592 101 c 1,34,-1
 592 11 l 1,35,36
 555 -10 555 -10 504 -10 c 0,37,38
 396 -10 396 -10 386 76 c 1,39,40
 316 -10 316 -10 214 -10 c 0,41,42
 40 -10 40 -10 40 139 c 0,43,44
 40 221.890909091 40 221.890909091 99.5 263 c 0,45,46
 152.098069261 299.340484217 152.098069261 299.340484217 264 307.5 c 0,47,48
 312 311 312 311 379 311 c 1,12,-1
379 202 m 2,49,-1
 379 229 l 1,50,51
 284 229 284 229 237.5 210.5 c 128,-1,52
 191 192 191 192 191 154.5 c 128,-1,53
 191 117 191 117 209.5 103.5 c 128,-1,54
 228 90 228 90 267.5 90 c 128,-1,55
 307 90 307 90 343 122 c 128,-1,56
 379 154 379 154 379 202 c 2,49,-1
EndSplineSet
EndChar

StartChar: acircumflex
Encoding: 226 226 105
Width: 598
GlyphClass: 2
Flags: MW
HStem: -10 100<241.5 255> 229 82<317.5 379> 421 100<281 302 302 322> 575 145<104 345 104 345 242 482 242 377>
VStem: 40 151<127.5 179 127.5 212.5> 56 143<354 415> 379 143<202 229 229 229 311 345 345 362>
LayerCount: 2
Fore
SplineSet
242 720 m 1,0,-1
 345 720 l 1,1,2
 433 626 433 626 482 575 c 1,3,-1
 377 575 l 1,4,-1
 293 658 l 1,5,-1
 208 575 l 1,6,-1
 104 575 l 1,7,-1
 242 720 l 1,0,-1
379 311 m 1,8,-1
 379 345 l 2,9,10
 379 421 379 421 288 421 c 0,11,12
 248 421 248 421 223.5 401.5 c 128,-1,13
 199 382 199 382 199 362 c 2,14,-1
 199 354 l 1,15,-1
 58 354 l 1,16,17
 56 366 56 366 56 372 c 0,18,19
 56 437 56 437 118.5 479 c 128,-1,20
 181 521 181 521 281 521 c 2,21,-1
 302 521 l 2,22,23
 410 521 410 521 466 478.5 c 128,-1,24
 522 436 522 436 522 362 c 2,25,-1
 522 126 l 2,26,27
 522 108 522 108 530.5 99 c 128,-1,28
 539 90 539 90 554.5 90 c 128,-1,29
 570 90 570 90 592 101 c 1,30,-1
 592 11 l 1,31,32
 555 -10 555 -10 504 -10 c 0,33,34
 396 -10 396 -10 386 76 c 1,35,36
 316 -10 316 -10 214 -10 c 0,37,38
 40 -10 40 -10 40 139 c 0,39,40
 40 221.890909091 40 221.890909091 99.5 263 c 0,41,42
 152.098069261 299.340484217 152.098069261 299.340484217 264 307.5 c 0,43,44
 312 311 312 311 379 311 c 1,8,-1
379 202 m 2,45,-1
 379 229 l 1,46,47
 284 229 284 229 237.5 210.5 c 128,-1,48
 191 192 191 192 191 154.5 c 128,-1,49
 191 117 191 117 209.5 103.5 c 128,-1,50
 228 90 228 90 267.5 90 c 128,-1,51
 307 90 307 90 343 122 c 128,-1,52
 379 154 379 154 379 202 c 2,45,-1
EndSplineSet
EndChar

StartChar: adieresis
Encoding: 228 228 106
Width: 598
GlyphClass: 2
Flags: MW
HStem: -10 100<241.5 255> 229 82<317.5 379> 421 100<281 302 302 322> 598 122<128 249 128 249 128 332 332 453>
VStem: 40 151<127.5 179 127.5 212.5> 56 143<354 415> 128 121<598 720 598 720> 332 121<598 720 598 720> 379 143<202 229 229 229 311 345 345 362>
LayerCount: 2
Fore
SplineSet
249 720 m 1,0,-1
 249 598 l 1,1,-1
 128 598 l 1,2,-1
 128 720 l 1,3,-1
 249 720 l 1,0,-1
453 720 m 1,4,-1
 453 598 l 1,5,-1
 332 598 l 1,6,-1
 332 720 l 1,7,-1
 453 720 l 1,4,-1
379 311 m 1,8,-1
 379 345 l 2,9,10
 379 421 379 421 288 421 c 0,11,12
 248 421 248 421 223.5 401.5 c 128,-1,13
 199 382 199 382 199 362 c 2,14,-1
 199 354 l 1,15,-1
 58 354 l 1,16,17
 56 366 56 366 56 372 c 0,18,19
 56 437 56 437 118.5 479 c 128,-1,20
 181 521 181 521 281 521 c 2,21,-1
 302 521 l 2,22,23
 410 521 410 521 466 478.5 c 128,-1,24
 522 436 522 436 522 362 c 2,25,-1
 522 126 l 2,26,27
 522 108 522 108 530.5 99 c 128,-1,28
 539 90 539 90 554.5 90 c 128,-1,29
 570 90 570 90 592 101 c 1,30,-1
 592 11 l 1,31,32
 555 -10 555 -10 504 -10 c 0,33,34
 396 -10 396 -10 386 76 c 1,35,36
 316 -10 316 -10 214 -10 c 0,37,38
 40 -10 40 -10 40 139 c 0,39,40
 40 221.890909091 40 221.890909091 99.5 263 c 0,41,42
 152.098069261 299.340484217 152.098069261 299.340484217 264 307.5 c 0,43,44
 312 311 312 311 379 311 c 1,8,-1
379 202 m 2,45,-1
 379 229 l 1,46,47
 284 229 284 229 237.5 210.5 c 128,-1,48
 191 192 191 192 191 154.5 c 128,-1,49
 191 117 191 117 209.5 103.5 c 128,-1,50
 228 90 228 90 267.5 90 c 128,-1,51
 307 90 307 90 343 122 c 128,-1,52
 379 154 379 154 379 202 c 2,45,-1
EndSplineSet
EndChar

StartChar: agrave
Encoding: 224 224 107
Width: 598
GlyphClass: 2
Flags: MW
HStem: -10 100<241.5 255> 229 82<317.5 379> 421 100<281 302 302 322> 575 145<242 251 123 344 242 242>
VStem: 40 151<127.5 179 127.5 212.5> 56 143<354 415> 379 143<202 229 229 229 311 345 345 362>
LayerCount: 2
Fore
SplineSet
122 717 m 1,0,-1
 123 720 l 1,1,-1
 251 720 l 1,2,-1
 344 575 l 1,3,-1
 242 575 l 1,4,-1
 122 717 l 1,0,-1
379 311 m 1,5,-1
 379 345 l 2,6,7
 379 421 379 421 288 421 c 0,8,9
 248 421 248 421 223.5 401.5 c 128,-1,10
 199 382 199 382 199 362 c 2,11,-1
 199 354 l 1,12,-1
 58 354 l 1,13,14
 56 366 56 366 56 372 c 0,15,16
 56 437 56 437 118.5 479 c 128,-1,17
 181 521 181 521 281 521 c 2,18,-1
 302 521 l 2,19,20
 410 521 410 521 466 478.5 c 128,-1,21
 522 436 522 436 522 362 c 2,22,-1
 522 126 l 2,23,24
 522 108 522 108 530.5 99 c 128,-1,25
 539 90 539 90 554.5 90 c 128,-1,26
 570 90 570 90 592 101 c 1,27,-1
 592 11 l 1,28,29
 555 -10 555 -10 504 -10 c 0,30,31
 396 -10 396 -10 386 76 c 1,32,33
 316 -10 316 -10 214 -10 c 0,34,35
 40 -10 40 -10 40 139 c 0,36,37
 40 221.890909091 40 221.890909091 99.5 263 c 0,38,39
 152.098069261 299.340484217 152.098069261 299.340484217 264 307.5 c 0,40,41
 312 311 312 311 379 311 c 1,5,-1
379 202 m 2,42,-1
 379 229 l 1,43,44
 284 229 284 229 237.5 210.5 c 128,-1,45
 191 192 191 192 191 154.5 c 128,-1,46
 191 117 191 117 209.5 103.5 c 128,-1,47
 228 90 228 90 267.5 90 c 128,-1,48
 307 90 307 90 343 122 c 128,-1,49
 379 154 379 154 379 202 c 2,42,-1
EndSplineSet
EndChar

StartChar: amacron
Encoding: 257 257 108
Width: 598
GlyphClass: 2
Flags: MW
HStem: -10 100<241.5 255> 229 82<317.5 379> 421 100<281 302 302 322> 662 74<140 458 140 458>
VStem: 40 151<127.5 179 127.5 212.5> 56 143<354 415> 379 143<202 229 229 229 311 345 345 362>
LayerCount: 2
Fore
SplineSet
140 736 m 1,0,-1
 458 736 l 1,1,-1
 458 662 l 1,2,-1
 140 662 l 1,3,-1
 140 736 l 1,0,-1
379 311 m 1,4,-1
 379 345 l 2,5,6
 379 421 379 421 288 421 c 0,7,8
 248 421 248 421 223.5 401.5 c 128,-1,9
 199 382 199 382 199 362 c 2,10,-1
 199 354 l 1,11,-1
 58 354 l 1,12,13
 56 366 56 366 56 372 c 0,14,15
 56 437 56 437 118.5 479 c 128,-1,16
 181 521 181 521 281 521 c 2,17,-1
 302 521 l 2,18,19
 410 521 410 521 466 478.5 c 128,-1,20
 522 436 522 436 522 362 c 2,21,-1
 522 126 l 2,22,23
 522 108 522 108 530.5 99 c 128,-1,24
 539 90 539 90 554.5 90 c 128,-1,25
 570 90 570 90 592 101 c 1,26,-1
 592 11 l 1,27,28
 555 -10 555 -10 504 -10 c 0,29,30
 396 -10 396 -10 386 76 c 1,31,32
 316 -10 316 -10 214 -10 c 0,33,34
 40 -10 40 -10 40 139 c 0,35,36
 40 221.890909091 40 221.890909091 99.5 263 c 0,37,38
 152.098069261 299.340484217 152.098069261 299.340484217 264 307.5 c 0,39,40
 312 311 312 311 379 311 c 1,4,-1
379 202 m 2,41,-1
 379 229 l 1,42,43
 284 229 284 229 237.5 210.5 c 128,-1,44
 191 192 191 192 191 154.5 c 128,-1,45
 191 117 191 117 209.5 103.5 c 128,-1,46
 228 90 228 90 267.5 90 c 128,-1,47
 307 90 307 90 343 122 c 128,-1,48
 379 154 379 154 379 202 c 2,41,-1
EndSplineSet
EndChar

StartChar: aogonek
Encoding: 261 261 109
Width: 598
GlyphClass: 2
Flags: MW
HStem: -143 50<524.5 535.5> -10 100<241.5 255> -7 21G 229 82<317.5 379> 421 100<281 302 302 322>
VStem: 40 151<127.5 179 127.5 212.5> 56 143<354 415> 379 143<202 229 229 229 311 345 345 362> 422 69<-71 -57>
LayerCount: 2
Fore
SplineSet
602 -79 m 1,0,-1
 615 -119 l 1,1,2
 572 -143 572 -143 525.5 -143 c 0,3,4
 422 -143 422 -143 422 -71 c 0,5,6
 422 -38 422 -38 466 -7 c 1,7,8
 394 7 394 7 386 76 c 1,9,10
 316 -10 316 -10 214 -10 c 0,11,12
 40 -10 40 -10 40 139 c 0,13,14
 40 221.890909091 40 221.890909091 99.5 263 c 0,15,16
 152.098069261 299.340484217 152.098069261 299.340484217 264 307.5 c 0,17,18
 312 311 312 311 379 311 c 1,19,-1
 379 345 l 2,20,21
 379 421 379 421 288 421 c 0,22,23
 248 421 248 421 223.5 401.5 c 128,-1,24
 199 382 199 382 199 362 c 2,25,-1
 199 354 l 1,26,-1
 58 354 l 1,27,28
 56 366 56 366 56 372 c 0,29,30
 56 437 56 437 118.5 479 c 128,-1,31
 181 521 181 521 281 521 c 2,32,-1
 302 521 l 2,33,34
 410 521 410 521 466 478.5 c 128,-1,35
 522 436 522 436 522 362 c 2,36,-1
 522 126 l 2,37,38
 522 108 522 108 530.5 99 c 128,-1,39
 539 90 539 90 554.5 90 c 128,-1,40
 570 90 570 90 592 101 c 1,41,-1
 592 11 l 1,42,43
 557 -6 557 -6 523 -9 c 1,44,45
 491 -33 491 -33 491 -57 c 0,46,47
 491 -93 491 -93 535 -93 c 0,48,49
 565 -93 565 -93 602 -79 c 1,0,-1
379 202 m 2,50,-1
 379 229 l 1,51,52
 284 229 284 229 237.5 210.5 c 128,-1,53
 191 192 191 192 191 154.5 c 128,-1,54
 191 117 191 117 209.5 103.5 c 128,-1,55
 228 90 228 90 267.5 90 c 128,-1,56
 307 90 307 90 343 122 c 128,-1,57
 379 154 379 154 379 202 c 2,50,-1
EndSplineSet
EndChar

StartChar: aring
Encoding: 229 229 110
Width: 598
GlyphClass: 2
Flags: MW
HStem: -10 100<241.5 255> 229 82<317.5 379> 421 100<281 302 302 322> 556 57<279 303 279 319> 701 57<279 303>
VStem: 40 151<127.5 179 127.5 212.5> 56 143<354 415> 190 57<645 669 645 685> 335 57<645 669> 379 143<202 229 229 229 311 345 345 362>
LayerCount: 2
Fore
SplineSet
190 657 m 128,-1,1
 190 699 190 699 219.5 728.5 c 128,-1,2
 249 758 249 758 291 758 c 128,-1,3
 333 758 333 758 362.5 728.5 c 128,-1,4
 392 699 392 699 392 657 c 128,-1,5
 392 615 392 615 362.5 585.5 c 128,-1,6
 333 556 333 556 291 556 c 128,-1,7
 249 556 249 556 219.5 585.5 c 128,-1,0
 190 615 190 615 190 657 c 128,-1,1
247 657 m 128,-1,9
 247 639 247 639 260 626 c 128,-1,10
 273 613 273 613 291 613 c 128,-1,11
 309 613 309 613 322 626 c 128,-1,12
 335 639 335 639 335 657 c 128,-1,13
 335 675 335 675 322 688 c 128,-1,14
 309 701 309 701 291 701 c 128,-1,15
 273 701 273 701 260 688 c 128,-1,8
 247 675 247 675 247 657 c 128,-1,9
379 311 m 1,16,-1
 379 345 l 2,17,18
 379 421 379 421 288 421 c 0,19,20
 248 421 248 421 223.5 401.5 c 128,-1,21
 199 382 199 382 199 362 c 2,22,-1
 199 354 l 1,23,-1
 58 354 l 1,24,25
 56 366 56 366 56 372 c 0,26,27
 56 437 56 437 118.5 479 c 128,-1,28
 181 521 181 521 281 521 c 2,29,-1
 302 521 l 2,30,31
 410 521 410 521 466 478.5 c 128,-1,32
 522 436 522 436 522 362 c 2,33,-1
 522 126 l 2,34,35
 522 108 522 108 530.5 99 c 128,-1,36
 539 90 539 90 554.5 90 c 128,-1,37
 570 90 570 90 592 101 c 1,38,-1
 592 11 l 1,39,40
 555 -10 555 -10 504 -10 c 0,41,42
 396 -10 396 -10 386 76 c 1,43,44
 316 -10 316 -10 214 -10 c 0,45,46
 40 -10 40 -10 40 139 c 0,47,48
 40 221.890909091 40 221.890909091 99.5 263 c 0,49,50
 152.098069261 299.340484217 152.098069261 299.340484217 264 307.5 c 0,51,52
 312 311 312 311 379 311 c 1,16,-1
379 202 m 2,53,-1
 379 229 l 1,54,55
 284 229 284 229 237.5 210.5 c 128,-1,56
 191 192 191 192 191 154.5 c 128,-1,57
 191 117 191 117 209.5 103.5 c 128,-1,58
 228 90 228 90 267.5 90 c 128,-1,59
 307 90 307 90 343 122 c 128,-1,60
 379 154 379 154 379 202 c 2,53,-1
EndSplineSet
EndChar

StartChar: atilde
Encoding: 227 227 111
Width: 598
GlyphClass: 2
Flags: MW
HStem: -10 100<241.5 255> 229 82<317.5 379> 421 100<281 302 302 322> 596 86<356 397 356 414> 633 87<190 231>
VStem: 40 151<127.5 179 127.5 212.5> 56 143<354 415> 379 143<202 229 229 229 311 345 345 362>
LayerCount: 2
Fore
SplineSet
436 720 m 1,0,-1
 501 720 l 1,1,2
 501 672 501 672 466 634 c 128,-1,3
 431 596 431 596 375 596 c 0,4,5
 342 596 342 596 286 614.5 c 128,-1,6
 230 633 230 633 204 633 c 0,7,8
 163 633 163 633 152 596 c 1,9,-1
 86 596 l 1,10,11
 86 643 86 643 121.5 681.5 c 128,-1,12
 157 720 157 720 213 720 c 0,13,14
 246 720 246 720 301.5 701 c 128,-1,15
 357 682 357 682 383 682 c 0,16,17
 424 682 424 682 436 720 c 1,0,-1
379 311 m 1,18,-1
 379 345 l 2,19,20
 379 421 379 421 288 421 c 0,21,22
 248 421 248 421 223.5 401.5 c 128,-1,23
 199 382 199 382 199 362 c 2,24,-1
 199 354 l 1,25,-1
 58 354 l 1,26,27
 56 366 56 366 56 372 c 0,28,29
 56 437 56 437 118.5 479 c 128,-1,30
 181 521 181 521 281 521 c 2,31,-1
 302 521 l 2,32,33
 410 521 410 521 466 478.5 c 128,-1,34
 522 436 522 436 522 362 c 2,35,-1
 522 126 l 2,36,37
 522 108 522 108 530.5 99 c 128,-1,38
 539 90 539 90 554.5 90 c 128,-1,39
 570 90 570 90 592 101 c 1,40,-1
 592 11 l 1,41,42
 555 -10 555 -10 504 -10 c 0,43,44
 396 -10 396 -10 386 76 c 1,45,46
 316 -10 316 -10 214 -10 c 0,47,48
 40 -10 40 -10 40 139 c 0,49,50
 40 221.890909091 40 221.890909091 99.5 263 c 0,51,52
 152.098069261 299.340484217 152.098069261 299.340484217 264 307.5 c 0,53,54
 312 311 312 311 379 311 c 1,18,-1
379 202 m 2,55,-1
 379 229 l 1,56,57
 284 229 284 229 237.5 210.5 c 128,-1,58
 191 192 191 192 191 154.5 c 128,-1,59
 191 117 191 117 209.5 103.5 c 128,-1,60
 228 90 228 90 267.5 90 c 128,-1,61
 307 90 307 90 343 122 c 128,-1,62
 379 154 379 154 379 202 c 2,55,-1
EndSplineSet
EndChar

StartChar: ae
Encoding: 230 230 112
Width: 918
GlyphClass: 2
Flags: MW
HStem: -10 98<248.5 262.5 596 631 631 641> 231 80<529 729> 425 96<281 302 302 324>
VStem: 40 151<126 179 126 212.5> 56 143<354 415> 379 149<197 229 229 229 188.5 349 188.5 368> 729 144<231 324 231 354.5> 736 136<170.5 191>
LayerCount: 2
Fore
SplineSet
873 231 m 1,0,-1
 528 231 l 1,1,2
 528 88 528 88 637 88 c 0,3,4
 691 88 691 88 713.5 119.5 c 128,-1,5
 736 151 736 151 736 191 c 1,6,-1
 872 191 l 1,7,8
 872 102 872 102 809 46 c 128,-1,9
 746 -10 746 -10 641 -10 c 2,10,-1
 631 -10 l 2,11,12
 499 -10 499 -10 430 79 c 1,13,14
 397 37 397 37 340.5 13.5 c 128,-1,15
 284 -10 284 -10 221 -10 c 0,16,17
 40 -10 40 -10 40 139 c 0,18,19
 40 221.890909091 40 221.890909091 99.5 263 c 0,20,21
 152.098069261 299.340484217 152.098069261 299.340484217 264 307.5 c 0,22,23
 312 311 312 311 379 311 c 1,24,-1
 379 349 l 2,25,26
 379 425 379 425 288 425 c 0,27,28
 242 425 242 425 220.5 404 c 128,-1,29
 199 383 199 383 199 362 c 2,30,-1
 199 354 l 1,31,-1
 58 354 l 1,32,33
 56 366 56 366 56 372 c 0,34,35
 56 437 56 437 118.5 479 c 128,-1,36
 181 521 181 521 281 521 c 2,37,-1
 302 521 l 2,38,39
 414 521 414 521 469 472 c 1,40,41
 532 521 532 521 626 521 c 2,42,-1
 642 521 l 2,43,44
 748 521 748 521 810.5 459.5 c 128,-1,45
 873 398 873 398 873 298 c 2,46,-1
 873 231 l 1,0,-1
701 396 m 128,-1,48
 673 423 673 423 629.5 423 c 128,-1,49
 586 423 586 423 559.5 393 c 128,-1,50
 533 363 533 363 529 311 c 1,51,-1
 729 311 l 1,52,-1
 729 324 l 2,53,47
 729 369 729 369 701 396 c 128,-1,48
379 197 m 2,54,-1
 379 229 l 1,55,56
 284 229 284 229 237.5 210.5 c 128,-1,57
 191 192 191 192 191 150 c 0,58,59
 191 88 191 88 273 88 c 0,60,61
 316 88 316 88 347.5 118 c 128,-1,62
 379 148 379 148 379 197 c 2,54,-1
EndSplineSet
EndChar

StartChar: b
Encoding: 98 98 113
Width: 595
GlyphClass: 2
Flags: MW
HStem: -10 100<303 335 281 398.5> 0 21G<66 119 66 66> 415 106<320 335>
VStem: 66 146<170.5 211 211 294 452 720> 404 148<211 253 253 264 163 294 163 334.5>
LayerCount: 2
Fore
SplineSet
212 720 m 1,0,-1
 212 452 l 1,1,2
 264 521 264 521 352.5 521 c 0,3,4
 441 521 441 521 496.5 454 c 128,-1,5
 552 387 552 387 552 264 c 2,6,-1
 552 253 l 2,7,8
 552 124 552 124 492.5 57 c 128,-1,9
 433 -10 433 -10 340 -10 c 0,10,11
 229 -10 229 -10 170 78 c 1,12,-1
 119 0 l 1,13,-1
 66 0 l 1,14,-1
 66 720 l 1,15,-1
 212 720 l 1,0,-1
404 211 m 2,16,-1
 404 294 l 2,17,18
 404 352 404 352 377 383.5 c 128,-1,19
 350 415 350 415 308 415 c 128,-1,20
 266 415 266 415 239 383.5 c 128,-1,21
 212 352 212 352 212 294 c 2,22,-1
 212 211 l 2,23,24
 212 153 212 153 239 121.5 c 128,-1,25
 266 90 266 90 308 90 c 128,-1,26
 350 90 350 90 377 121.5 c 128,-1,27
 404 153 404 153 404 211 c 2,16,-1
EndSplineSet
EndChar

StartChar: c
Encoding: 99 99 114
Width: 567
GlyphClass: 2
Flags: MW
HStem: -10 100<256.5 287 287 303> 421 100<287 303 303 319>
VStem: 43 148<241 270 270 296 174.5 349.5> 386 138<165 203>
AnchorPoint: "Bottom" 284 0 basechar 0
LayerCount: 2
Fore
SplineSet
191 296 m 2,0,-1
 191 207 l 2,1,2
 191 157 191 157 217 123.5 c 128,-1,3
 243 90 243 90 288 90 c 0,4,5
 333 90 333 90 359.5 118.5 c 128,-1,6
 386 147 386 147 386 203 c 1,7,-1
 524 203 l 1,8,9
 524 98 524 98 460.5 44 c 128,-1,10
 397 -10 397 -10 303 -10 c 2,11,-1
 287 -10 l 2,12,13
 175 -10 175 -10 109 56.5 c 128,-1,14
 43 123 43 123 43 241 c 2,15,-1
 43 270 l 2,16,17
 43 387 43 387 111 454 c 128,-1,18
 179 521 179 521 287 521 c 2,19,-1
 303 521 l 2,20,21
 395 521 395 521 459.5 463.5 c 128,-1,22
 524 406 524 406 524 307 c 1,23,-1
 379 307 l 1,24,25
 379 359 379 359 356 390 c 128,-1,26
 333 421 333 421 288 421 c 128,-1,27
 243 421 243 421 217 385.5 c 128,-1,28
 191 350 191 350 191 296 c 2,0,-1
EndSplineSet
EndChar

StartChar: cacute
Encoding: 263 263 115
Width: 567
GlyphClass: 2
Flags: MW
HStem: -10 100<256.5 287 287 303> 421 100<287 303 303 319> 575 145<295 304 203 424>
VStem: 43 148<241 270 270 296 174.5 349.5> 386 138<165 203>
AnchorPoint: "Bottom" 284 0 basechar 0
LayerCount: 2
Fore
SplineSet
295 720 m 1,0,-1
 424 720 l 1,1,-1
 425 717 l 1,2,-1
 304 575 l 1,3,-1
 203 575 l 1,4,-1
 295 720 l 1,0,-1
191 296 m 2,5,-1
 191 207 l 2,6,7
 191 157 191 157 217 123.5 c 128,-1,8
 243 90 243 90 288 90 c 0,9,10
 333 90 333 90 359.5 118.5 c 128,-1,11
 386 147 386 147 386 203 c 1,12,-1
 524 203 l 1,13,14
 524 98 524 98 460.5 44 c 128,-1,15
 397 -10 397 -10 303 -10 c 2,16,-1
 287 -10 l 2,17,18
 175 -10 175 -10 109 56.5 c 128,-1,19
 43 123 43 123 43 241 c 2,20,-1
 43 270 l 2,21,22
 43 387 43 387 111 454 c 128,-1,23
 179 521 179 521 287 521 c 2,24,-1
 303 521 l 2,25,26
 395 521 395 521 459.5 463.5 c 128,-1,27
 524 406 524 406 524 307 c 1,28,-1
 379 307 l 1,29,30
 379 359 379 359 356 390 c 128,-1,31
 333 421 333 421 288 421 c 128,-1,32
 243 421 243 421 217 385.5 c 128,-1,33
 191 350 191 350 191 296 c 2,5,-1
EndSplineSet
EndChar

StartChar: ccaron
Encoding: 269 269 116
Width: 567
GlyphClass: 2
Flags: MW
HStem: -10 100<256.5 287 287 303> 421 100<287 303 303 319> 575 145<95 336 95 233>
VStem: 43 148<241 270 270 296 174.5 349.5> 386 138<165 203>
AnchorPoint: "Bottom" 284 0 basechar 0
LayerCount: 2
Fore
SplineSet
200 720 m 1,0,-1
 285 637 l 1,1,-1
 369 720 l 1,2,-1
 473 720 l 1,3,4
 424 669 424 669 336 575 c 1,5,-1
 233 575 l 1,6,-1
 95 720 l 1,7,-1
 200 720 l 1,0,-1
191 296 m 2,8,-1
 191 207 l 2,9,10
 191 157 191 157 217 123.5 c 128,-1,11
 243 90 243 90 288 90 c 0,12,13
 333 90 333 90 359.5 118.5 c 128,-1,14
 386 147 386 147 386 203 c 1,15,-1
 524 203 l 1,16,17
 524 98 524 98 460.5 44 c 128,-1,18
 397 -10 397 -10 303 -10 c 2,19,-1
 287 -10 l 2,20,21
 175 -10 175 -10 109 56.5 c 128,-1,22
 43 123 43 123 43 241 c 2,23,-1
 43 270 l 2,24,25
 43 387 43 387 111 454 c 128,-1,26
 179 521 179 521 287 521 c 2,27,-1
 303 521 l 2,28,29
 395 521 395 521 459.5 463.5 c 128,-1,30
 524 406 524 406 524 307 c 1,31,-1
 379 307 l 1,32,33
 379 359 379 359 356 390 c 128,-1,34
 333 421 333 421 288 421 c 128,-1,35
 243 421 243 421 217 385.5 c 128,-1,36
 191 350 191 350 191 296 c 2,8,-1
EndSplineSet
EndChar

StartChar: ccedilla
Encoding: 231 231 117
Width: 571
GlyphClass: 2
Flags: MW
HStem: -197 55<264.5 292.5 255.5 305> -68 51<263 283 263 286> -10 100<258.5 289 289 305> 421 100<289 305 305 321>
VStem: 45 148<241 270 270 296 174.5 349.5> 328 74<-117.5 -92.5> 388 138<165 203>
LayerCount: 2
Fore
SplineSet
193 296 m 2,0,-1
 193 207 l 2,1,2
 193 157 193 157 219 123.5 c 128,-1,3
 245 90 245 90 290 90 c 128,-1,4
 335 90 335 90 361.5 118.5 c 128,-1,5
 388 147 388 147 388 203 c 1,6,-1
 526 203 l 1,7,8
 526 98 526 98 462.5 44 c 128,-1,9
 399 -10 399 -10 305 -10 c 2,10,-1
 289 -10 l 2,11,12
 177 -10 177 -10 111 56.5 c 128,-1,13
 45 123 45 123 45 241 c 2,14,-1
 45 270 l 2,15,16
 45 387 45 387 113 454 c 128,-1,17
 181 521 181 521 289 521 c 2,18,-1
 305 521 l 2,19,20
 397 521 397 521 461.5 463.5 c 128,-1,21
 526 406 526 406 526 307 c 1,22,-1
 381 307 l 1,23,24
 381 359 381 359 358 390 c 128,-1,25
 335 421 335 421 290 421 c 128,-1,26
 245 421 245 421 219 385.5 c 128,-1,27
 193 350 193 350 193 296 c 2,0,-1
196 -116 m 1,28,29
 240.571428571 -142 240.571428571 -142 279 -142 c 0,30,31
 328 -142 328 -142 328 -104 c 0,32,33
 328 -68 328 -68 283 -68 c 2,34,-1
 263 -68 l 1,35,-1
 263 -17 l 1,36,-1
 286 -17 l 2,37,38
 402 -17 402 -17 402 -107 c 0,39,40
 402 -142 402 -142 380 -163.5 c 128,-1,41
 358 -185 358 -185 334 -191 c 128,-1,42
 310 -197 310 -197 283 -197 c 0,43,44
 216 -197 216 -197 175 -168 c 1,45,-1
 196 -116 l 1,28,29
EndSplineSet
EndChar

StartChar: d
Encoding: 100 100 118
Width: 595
GlyphClass: 2
Flags: MW
HStem: -10 100<260 288.5> 0 21G<414 414 414 529> 415 106<260 275 185.5 314>
VStem: 43 148<253 264 264 294 170.5 349.5> 383 146<211 294 294 334.5 452 720 0 720>
LayerCount: 2
Fore
SplineSet
414 0 m 1,0,-1
 399 64 l 1,1,2
 343 -10 343 -10 252.5 -10 c 0,3,4
 162 -10 162 -10 102.5 57 c 128,-1,5
 43 124 43 124 43 253 c 2,6,-1
 43 264 l 2,7,8
 43 387 43 387 98.5 454 c 128,-1,9
 154 521 154 521 242.5 521 c 0,10,11
 331 521 331 521 383 452 c 1,12,-1
 383 720 l 1,13,-1
 529 720 l 1,14,-1
 529 0 l 1,15,-1
 414 0 l 1,0,-1
191 294 m 2,16,-1
 191 211 l 2,17,18
 191 153 191 153 218 121.5 c 128,-1,19
 245 90 245 90 287 90 c 128,-1,20
 329 90 329 90 356 121.5 c 128,-1,21
 383 153 383 153 383 211 c 2,22,-1
 383 294 l 2,23,24
 383 352 383 352 356 383.5 c 128,-1,25
 329 415 329 415 287 415 c 128,-1,26
 245 415 245 415 218 383.5 c 128,-1,27
 191 352 191 352 191 294 c 2,16,-1
EndSplineSet
EndChar

StartChar: eth
Encoding: 240 240 119
Width: 614
GlyphClass: 2
Flags: MW
HStem: -10 100<272 295 295 311> 421 93<272 297 227.5 334>
VStem: 45 148<241 270 270 296 173 349.5> 413 148<215 241 241 270 161 296 161 338>
LayerCount: 2
Fore
SplineSet
561 270 m 2,0,-1
 561 241 l 2,1,2
 561 124 561 124 490.5 57 c 128,-1,3
 420 -10 420 -10 311 -10 c 2,4,-1
 295 -10 l 2,5,6
 186 -10 186 -10 115.5 57.5 c 128,-1,7
 45 125 45 125 45 241 c 2,8,-1
 45 270 l 2,9,10
 45 385 45 385 116.5 449.5 c 128,-1,11
 188 514 188 514 297 514 c 1,12,13
 273 552 273 552 237 592 c 1,14,-1
 158 555 l 1,15,-1
 111 597 l 1,16,-1
 195 637 l 1,17,18
 155 671 155 671 110 692 c 1,19,20
 110 696.680851064 110 696.680851064 151.5 714.340425532 c 128,-1,21
 193 732 193 732 197 734 c 0,22,23
 244 713 244 713 291 684 c 1,24,-1
 374 722 l 1,25,-1
 417 680 l 1,26,27
 379 661 379 661 344 646 c 1,28,29
 440 570 440 570 500.5 471.5 c 128,-1,30
 561 373 561 373 561 270 c 2,0,-1
413 215 m 2,31,-1
 413 296 l 2,32,33
 413 357 413 357 382.5 389 c 128,-1,34
 352 421 352 421 303 421 c 128,-1,35
 254 421 254 421 223.5 389 c 128,-1,36
 193 357 193 357 193 296 c 2,37,-1
 193 215 l 2,38,39
 193 154 193 154 223.5 122 c 128,-1,40
 254 90 254 90 303 90 c 128,-1,41
 352 90 352 90 382.5 122 c 128,-1,42
 413 154 413 154 413 215 c 2,31,-1
EndSplineSet
EndChar

StartChar: dcaron
Encoding: 271 271 120
Width: 595
GlyphClass: 2
Flags: MW
HStem: -10 100<260 288.5> 0 21G<414 414 414 529> 415 106<260 275 185.5 314> 539 147<584 647 584 730> 539 181<383 647 383 584>
VStem: 43 148<253 264 264 294 170.5 349.5> 383 146<211 294 294 334.5 452 720 0 720> 584 146<563 686 563 686 563 686>
LayerCount: 2
Fore
SplineSet
414 0 m 1,0,-1
 399 64 l 1,1,2
 343 -10 343 -10 252.5 -10 c 0,3,4
 162 -10 162 -10 102.5 57 c 128,-1,5
 43 124 43 124 43 253 c 2,6,-1
 43 264 l 2,7,8
 43 387 43 387 98.5 454 c 128,-1,9
 154 521 154 521 242.5 521 c 0,10,11
 331 521 331 521 383 452 c 1,12,-1
 383 720 l 1,13,-1
 529 720 l 1,14,-1
 529 0 l 1,15,-1
 414 0 l 1,0,-1
688 395 m 1,16,-1
 615 395 l 1,17,18
 625 443 625 443 647 539 c 1,19,-1
 584 539 l 1,20,-1
 584 686 l 1,21,-1
 730 686 l 1,22,-1
 730 563 l 1,23,-1
 688 395 l 1,16,-1
191 294 m 2,24,-1
 191 211 l 2,25,26
 191 153 191 153 218 121.5 c 128,-1,27
 245 90 245 90 287 90 c 128,-1,28
 329 90 329 90 356 121.5 c 128,-1,29
 383 153 383 153 383 211 c 2,30,-1
 383 294 l 2,31,32
 383 352 383 352 356 383.5 c 128,-1,33
 329 415 329 415 287 415 c 128,-1,34
 245 415 245 415 218 383.5 c 128,-1,35
 191 352 191 352 191 294 c 2,24,-1
EndSplineSet
EndChar

StartChar: dcroat
Encoding: 273 273 121
Width: 595
GlyphClass: 2
Flags: MW
HStem: -10 100<260 288.5> 0 21G<414 529 414 414> 415 106<260 275 185.5 314> 592 74<215 383 215 383 529 597>
VStem: 43 148<253 264 264 294 170.5 349.5> 383 146<211 294 294 334.5 452 592 0 592 666 720 0 720>
LayerCount: 2
Fore
SplineSet
597 592 m 1,0,-1
 529 592 l 1,1,-1
 529 0 l 1,2,-1
 414 0 l 1,3,-1
 399 64 l 1,4,5
 343 -10 343 -10 252.5 -10 c 0,6,7
 162 -10 162 -10 102.5 57 c 128,-1,8
 43 124 43 124 43 253 c 2,9,-1
 43 264 l 2,10,11
 43 387 43 387 98.5 454 c 128,-1,12
 154 521 154 521 242.5 521 c 0,13,14
 331 521 331 521 383 452 c 1,15,-1
 383 592 l 1,16,-1
 215 592 l 1,17,-1
 215 666 l 1,18,-1
 383 666 l 1,19,-1
 383 720 l 1,20,-1
 529 720 l 1,21,-1
 529 666 l 1,22,-1
 597 666 l 1,23,-1
 597 592 l 1,0,-1
383 211 m 2,24,-1
 383 294 l 2,25,26
 383 352 383 352 356 383.5 c 128,-1,27
 329 415 329 415 287 415 c 128,-1,28
 245 415 245 415 218 383.5 c 128,-1,29
 191 352 191 352 191 294 c 2,30,-1
 191 211 l 2,31,32
 191 153 191 153 218 121.5 c 128,-1,33
 245 90 245 90 287 90 c 128,-1,34
 329 90 329 90 356 121.5 c 128,-1,35
 383 153 383 153 383 211 c 2,24,-1
EndSplineSet
EndChar

StartChar: e
Encoding: 101 101 122
Width: 584
GlyphClass: 2
Flags: MW
HStem: -10 100<266 293 293 309> 231 80<191 393 191 541 191 393> 421 100<293 309 309 330.5>
VStem: 43 148<174.5 270 174.5 311 174.5 349.5> 393 148<231 342.5> 400 140<157 191>
AnchorPoint: "Bottom" 292 0 basechar 0
LayerCount: 2
Fore
SplineSet
400 191 m 1,0,-1
 540 191 l 1,1,2
 540 92 540 92 473 41 c 128,-1,3
 406 -10 406 -10 309 -10 c 2,4,-1
 293 -10 l 2,5,6
 184 -10 184 -10 113.5 57.5 c 128,-1,7
 43 125 43 125 43 241 c 2,8,-1
 43 270 l 2,9,10
 43 386 43 386 114 453.5 c 128,-1,11
 185 521 185 521 293 521 c 2,12,-1
 309 521 l 2,13,14
 405 521 405 521 473 463.5 c 128,-1,15
 541 406 541 406 541 307 c 2,16,-1
 541 231 l 1,17,-1
 191 231 l 1,18,-1
 191 207 l 2,19,20
 191 157 191 157 220.5 123.5 c 128,-1,21
 250 90 250 90 298.5 90 c 0,22,23
 347 90 347 90 373.5 115.5 c 128,-1,24
 400 141 400 141 400 191 c 1,0,-1
294 421 m 0,25,26
 250 421 250 421 222.5 390 c 128,-1,27
 195 359 195 359 191 311 c 1,28,-1
 393 311 l 1,29,30
 393 421 393 421 294 421 c 0,25,26
EndSplineSet
EndChar

StartChar: eacute
Encoding: 233 233 123
Width: 588
GlyphClass: 2
Flags: MW
HStem: -10 100<268 295 295 311> 231 80<193 395 193 543 193 395> 421 100<295 311 311 332.5> 575 145<339 348 247 468>
VStem: 45 148<174.5 270 174.5 311 174.5 349.5> 395 148<231 342.5> 402 140<157 191>
LayerCount: 2
Fore
SplineSet
339 720 m 1,0,-1
 468 720 l 1,1,-1
 469 717 l 1,2,-1
 348 575 l 1,3,-1
 247 575 l 1,4,-1
 339 720 l 1,0,-1
402 191 m 1,5,-1
 542 191 l 1,6,7
 542 92 542 92 475 41 c 128,-1,8
 408 -10 408 -10 311 -10 c 2,9,-1
 295 -10 l 2,10,11
 186 -10 186 -10 115.5 57.5 c 128,-1,12
 45 125 45 125 45 241 c 2,13,-1
 45 270 l 2,14,15
 45 386 45 386 116 453.5 c 128,-1,16
 187 521 187 521 295 521 c 2,17,-1
 311 521 l 2,18,19
 407 521 407 521 475 463.5 c 128,-1,20
 543 406 543 406 543 307 c 2,21,-1
 543 231 l 1,22,-1
 193 231 l 1,23,-1
 193 207 l 2,24,25
 193 157 193 157 222.5 123.5 c 128,-1,26
 252 90 252 90 300.5 90 c 0,27,28
 349 90 349 90 375.5 115.5 c 128,-1,29
 402 141 402 141 402 191 c 1,5,-1
296 421 m 0,30,31
 252 421 252 421 224.5 390 c 128,-1,32
 197 359 197 359 193 311 c 1,33,-1
 395 311 l 1,34,35
 395 421 395 421 296 421 c 0,30,31
EndSplineSet
EndChar

StartChar: ecaron
Encoding: 283 283 124
Width: 584
GlyphClass: 2
Flags: MW
HStem: -10 100<266 293 293 309> 231 80<191 393 191 541 191 393> 421 100<293 309 309 330.5> 575 145<103 344 103 241>
VStem: 43 148<174.5 270 174.5 311 174.5 349.5> 393 148<231 342.5> 400 140<157 191>
AnchorPoint: "Bottom" 292 0 basechar 0
LayerCount: 2
Fore
SplineSet
208 720 m 1,0,-1
 293 637 l 1,1,-1
 377 720 l 1,2,-1
 481 720 l 1,3,4
 432 669 432 669 344 575 c 1,5,-1
 241 575 l 1,6,-1
 103 720 l 1,7,-1
 208 720 l 1,0,-1
400 191 m 1,8,-1
 540 191 l 1,9,10
 540 92 540 92 473 41 c 128,-1,11
 406 -10 406 -10 309 -10 c 2,12,-1
 293 -10 l 2,13,14
 184 -10 184 -10 113.5 57.5 c 128,-1,15
 43 125 43 125 43 241 c 2,16,-1
 43 270 l 2,17,18
 43 386 43 386 114 453.5 c 128,-1,19
 185 521 185 521 293 521 c 2,20,-1
 309 521 l 2,21,22
 405 521 405 521 473 463.5 c 128,-1,23
 541 406 541 406 541 307 c 2,24,-1
 541 231 l 1,25,-1
 191 231 l 1,26,-1
 191 207 l 2,27,28
 191 157 191 157 220.5 123.5 c 128,-1,29
 250 90 250 90 298.5 90 c 0,30,31
 347 90 347 90 373.5 115.5 c 128,-1,32
 400 141 400 141 400 191 c 1,8,-1
294 421 m 0,33,34
 250 421 250 421 222.5 390 c 128,-1,35
 195 359 195 359 191 311 c 1,36,-1
 393 311 l 1,37,38
 393 421 393 421 294 421 c 0,33,34
EndSplineSet
EndChar

StartChar: ecircumflex
Encoding: 234 234 125
Width: 588
GlyphClass: 2
Flags: MW
HStem: -10 100<268 295 295 311> 231 80<193 395 193 543 193 395> 421 100<295 311 311 332.5> 575 145<112 353 112 353 250 490 250 385>
VStem: 45 148<174.5 270 174.5 311 174.5 349.5> 395 148<231 342.5> 402 140<157 191>
LayerCount: 2
Fore
SplineSet
250 720 m 1,0,-1
 353 720 l 1,1,2
 441 626 441 626 490 575 c 1,3,-1
 385 575 l 1,4,-1
 301 658 l 1,5,-1
 216 575 l 1,6,-1
 112 575 l 1,7,-1
 250 720 l 1,0,-1
402 191 m 1,8,-1
 542 191 l 1,9,10
 542 92 542 92 475 41 c 128,-1,11
 408 -10 408 -10 311 -10 c 2,12,-1
 295 -10 l 2,13,14
 186 -10 186 -10 115.5 57.5 c 128,-1,15
 45 125 45 125 45 241 c 2,16,-1
 45 270 l 2,17,18
 45 386 45 386 116 453.5 c 128,-1,19
 187 521 187 521 295 521 c 2,20,-1
 311 521 l 2,21,22
 407 521 407 521 475 463.5 c 128,-1,23
 543 406 543 406 543 307 c 2,24,-1
 543 231 l 1,25,-1
 193 231 l 1,26,-1
 193 207 l 2,27,28
 193 157 193 157 222.5 123.5 c 128,-1,29
 252 90 252 90 300.5 90 c 0,30,31
 349 90 349 90 375.5 115.5 c 128,-1,32
 402 141 402 141 402 191 c 1,8,-1
296 421 m 0,33,34
 252 421 252 421 224.5 390 c 128,-1,35
 197 359 197 359 193 311 c 1,36,-1
 395 311 l 1,37,38
 395 421 395 421 296 421 c 0,33,34
EndSplineSet
EndChar

StartChar: edieresis
Encoding: 235 235 126
Width: 588
GlyphClass: 2
Flags: MW
HStem: -10 100<268 295 295 311> 231 80<193 395 193 543 193 395> 421 100<295 311 311 332.5> 598 122<138 259 138 259 138 342 342 463>
VStem: 45 148<174.5 270 174.5 311 174.5 349.5> 138 121<598 720 598 720> 342 121<598 720 598 720> 395 148<231 342.5> 402 140<157 191>
LayerCount: 2
Fore
SplineSet
259 720 m 1,0,-1
 259 598 l 1,1,-1
 138 598 l 1,2,-1
 138 720 l 1,3,-1
 259 720 l 1,0,-1
463 720 m 1,4,-1
 463 598 l 1,5,-1
 342 598 l 1,6,-1
 342 720 l 1,7,-1
 463 720 l 1,4,-1
402 191 m 1,8,-1
 542 191 l 1,9,10
 542 92 542 92 475 41 c 128,-1,11
 408 -10 408 -10 311 -10 c 2,12,-1
 295 -10 l 2,13,14
 186 -10 186 -10 115.5 57.5 c 128,-1,15
 45 125 45 125 45 241 c 2,16,-1
 45 270 l 2,17,18
 45 386 45 386 116 453.5 c 128,-1,19
 187 521 187 521 295 521 c 2,20,-1
 311 521 l 2,21,22
 407 521 407 521 475 463.5 c 128,-1,23
 543 406 543 406 543 307 c 2,24,-1
 543 231 l 1,25,-1
 193 231 l 1,26,-1
 193 207 l 2,27,28
 193 157 193 157 222.5 123.5 c 128,-1,29
 252 90 252 90 300.5 90 c 0,30,31
 349 90 349 90 375.5 115.5 c 128,-1,32
 402 141 402 141 402 191 c 1,8,-1
296 421 m 0,33,34
 252 421 252 421 224.5 390 c 128,-1,35
 197 359 197 359 193 311 c 1,36,-1
 395 311 l 1,37,38
 395 421 395 421 296 421 c 0,33,34
EndSplineSet
EndChar

StartChar: edotaccent
Encoding: 279 279 127
Width: 584
GlyphClass: 2
Flags: MW
HStem: -10 100<266 293 293 309> 231 80<191 393 191 541 191 393> 421 100<293 309 309 330.5> 604 132<273.5 309.5>
VStem: 43 148<174.5 270 174.5 311 174.5 349.5> 226 132<652 688 651 688.5> 393 148<231 342.5> 400 140<157 191>
AnchorPoint: "Bottom" 292 0 basechar 0
LayerCount: 2
Fore
SplineSet
339 716.5 m 128,-1,1
 358 697 358 697 358 669.5 c 128,-1,2
 358 642 358 642 338.5 623 c 128,-1,3
 319 604 319 604 292 604 c 128,-1,4
 265 604 265 604 245.5 623.5 c 128,-1,5
 226 643 226 643 226 670.5 c 128,-1,6
 226 698 226 698 245 717 c 128,-1,7
 264 736 264 736 292 736 c 128,-1,0
 320 736 320 736 339 716.5 c 128,-1,1
400 191 m 1,8,-1
 540 191 l 1,9,10
 540 92 540 92 473 41 c 128,-1,11
 406 -10 406 -10 309 -10 c 2,12,-1
 293 -10 l 2,13,14
 184 -10 184 -10 113.5 57.5 c 128,-1,15
 43 125 43 125 43 241 c 2,16,-1
 43 270 l 2,17,18
 43 386 43 386 114 453.5 c 128,-1,19
 185 521 185 521 293 521 c 2,20,-1
 309 521 l 2,21,22
 405 521 405 521 473 463.5 c 128,-1,23
 541 406 541 406 541 307 c 2,24,-1
 541 231 l 1,25,-1
 191 231 l 1,26,-1
 191 207 l 2,27,28
 191 157 191 157 220.5 123.5 c 128,-1,29
 250 90 250 90 298.5 90 c 128,-1,30
 347 90 347 90 373.5 115.5 c 128,-1,31
 400 141 400 141 400 191 c 1,8,-1
294 421 m 0,32,33
 250 421 250 421 222.5 390 c 128,-1,34
 195 359 195 359 191 311 c 1,35,-1
 393 311 l 1,36,37
 393 421 393 421 294 421 c 0,32,33
EndSplineSet
EndChar

StartChar: egrave
Encoding: 232 232 128
Width: 588
GlyphClass: 2
Flags: MW
HStem: -10 100<268 295 295 311> 231 80<193 395 193 543 193 395> 421 100<295 311 311 332.5> 575 145<250 259 131 352 250 250>
VStem: 45 148<174.5 270 174.5 311 174.5 349.5> 395 148<231 342.5> 402 140<157 191>
LayerCount: 2
Fore
SplineSet
130 717 m 1,0,-1
 131 720 l 1,1,-1
 259 720 l 1,2,-1
 352 575 l 1,3,-1
 250 575 l 1,4,-1
 130 717 l 1,0,-1
402 191 m 1,5,-1
 542 191 l 1,6,7
 542 92 542 92 475 41 c 128,-1,8
 408 -10 408 -10 311 -10 c 2,9,-1
 295 -10 l 2,10,11
 186 -10 186 -10 115.5 57.5 c 128,-1,12
 45 125 45 125 45 241 c 2,13,-1
 45 270 l 2,14,15
 45 386 45 386 116 453.5 c 128,-1,16
 187 521 187 521 295 521 c 2,17,-1
 311 521 l 2,18,19
 407 521 407 521 475 463.5 c 128,-1,20
 543 406 543 406 543 307 c 2,21,-1
 543 231 l 1,22,-1
 193 231 l 1,23,-1
 193 207 l 2,24,25
 193 157 193 157 222.5 123.5 c 128,-1,26
 252 90 252 90 300.5 90 c 0,27,28
 349 90 349 90 375.5 115.5 c 128,-1,29
 402 141 402 141 402 191 c 1,5,-1
296 421 m 0,30,31
 252 421 252 421 224.5 390 c 128,-1,32
 197 359 197 359 193 311 c 1,33,-1
 395 311 l 1,34,35
 395 421 395 421 296 421 c 0,30,31
EndSplineSet
EndChar

StartChar: emacron
Encoding: 275 275 129
Width: 584
GlyphClass: 2
Flags: MW
HStem: -10 100<266 293 293 309> 231 80<191 393 191 541 191 393> 421 100<293 309 309 330.5> 662 74<133 451 133 451>
VStem: 43 148<174.5 270 174.5 311 174.5 349.5> 393 148<231 342.5> 400 140<157 191>
AnchorPoint: "Bottom" 292 0 basechar 0
LayerCount: 2
Fore
SplineSet
133 736 m 1,0,-1
 451 736 l 1,1,-1
 451 662 l 1,2,-1
 133 662 l 1,3,-1
 133 736 l 1,0,-1
400 191 m 1,4,-1
 540 191 l 1,5,6
 540 92 540 92 473 41 c 128,-1,7
 406 -10 406 -10 309 -10 c 2,8,-1
 293 -10 l 2,9,10
 184 -10 184 -10 113.5 57.5 c 128,-1,11
 43 125 43 125 43 241 c 2,12,-1
 43 270 l 2,13,14
 43 386 43 386 114 453.5 c 128,-1,15
 185 521 185 521 293 521 c 2,16,-1
 309 521 l 2,17,18
 405 521 405 521 473 463.5 c 128,-1,19
 541 406 541 406 541 307 c 2,20,-1
 541 231 l 1,21,-1
 191 231 l 1,22,-1
 191 207 l 2,23,24
 191 157 191 157 220.5 123.5 c 128,-1,25
 250 90 250 90 298.5 90 c 0,26,27
 347 90 347 90 373.5 115.5 c 128,-1,28
 400 141 400 141 400 191 c 1,4,-1
294 421 m 0,29,30
 250 421 250 421 222.5 390 c 128,-1,31
 195 359 195 359 191 311 c 1,32,-1
 393 311 l 1,33,34
 393 421 393 421 294 421 c 0,29,30
EndSplineSet
EndChar

StartChar: eogonek
Encoding: 281 281 130
Width: 584
GlyphClass: 2
Flags: MW
HStem: -143 50<382.5 393.5> -10 100<266 293 293 309 309 320> 231 80<191 393 191 393 191 541> 421 100<293 309 309 330.5>
VStem: 43 148<174.5 270 174.5 311 174.5 349.5> 280 69<-71 -58> 393 148<231 342.5> 400 140<157 191>
AnchorPoint: "Bottom" 292 0 basechar 0
LayerCount: 2
Fore
SplineSet
191 231 m 1,0,-1
 191 207 l 2,1,2
 191 157 191 157 220.5 123.5 c 128,-1,3
 250 90 250 90 298.5 90 c 128,-1,4
 347 90 347 90 373.5 115.5 c 128,-1,5
 400 141 400 141 400 191 c 1,6,-1
 540 191 l 1,7,8
 540 114 540 114 498.5 66 c 128,-1,9
 457 18 457 18 389 0 c 1,10,-1
 396 0 l 1,11,12
 349 -26 349 -26 349 -57 c 0,13,14
 349 -93 349 -93 393 -93 c 0,15,16
 423 -93 423 -93 460 -79 c 1,17,-1
 473 -119 l 1,18,19
 430 -143 430 -143 383.5 -143 c 0,20,21
 280 -143 280 -143 280 -71 c 0,22,23
 280 -40 280 -40 320 -10 c 1,24,-1
 293 -10 l 2,25,26
 184 -10 184 -10 113.5 57.5 c 128,-1,27
 43 125 43 125 43 241 c 2,28,-1
 43 270 l 2,29,30
 43 386 43 386 114 453.5 c 128,-1,31
 185 521 185 521 293 521 c 2,32,-1
 309 521 l 2,33,34
 405 521 405 521 473 463.5 c 128,-1,35
 541 406 541 406 541 307 c 2,36,-1
 541 231 l 1,37,-1
 191 231 l 1,0,-1
294 421 m 0,38,39
 250 421 250 421 222.5 390 c 128,-1,40
 195 359 195 359 191 311 c 1,41,-1
 393 311 l 1,42,43
 393 421 393 421 294 421 c 0,38,39
EndSplineSet
EndChar

StartChar: f
Encoding: 102 102 131
Width: 363
GlyphClass: 2
Flags: MW
HStem: 0 21G<85 231 85 85> 411 100<25 85 25 85 231 350> 629 99<190.5 295.5>
VStem: 85 146<0 411 0 411 511 569>
LayerCount: 2
Fore
SplineSet
350 707 m 1,0,-1
 350 618 l 1,1,2
 315 629 315 629 288 629 c 0,3,4
 231 629 231 629 231 569 c 2,5,-1
 231 511 l 1,6,-1
 350 511 l 1,7,-1
 350 411 l 1,8,-1
 231 411 l 1,9,-1
 231 0 l 1,10,-1
 85 0 l 1,11,-1
 85 411 l 1,12,-1
 25 411 l 1,13,-1
 25 511 l 1,14,-1
 85 511 l 1,15,-1
 85 578 l 2,16,17
 85 728 85 728 239 728 c 0,18,19
 305 728 305 728 350 707 c 1,0,-1
EndSplineSet
EndChar

StartChar: g
Encoding: 103 103 132
Width: 572
GlyphClass: 2
Flags: MW
HStem: -188 90<117 363 195 363 363 367> 1 115<180 417 239 369> 200 86<217.5 307.5 258.5 307.5 258.5 308> 434 87<273 289 289 304 273 307.5>
VStem: 12 129<-61.5 -37.5> 41 135<145.5 158> 55 140<335.5 384.5> 372 136<335.5 381.5 316 384.5> 427 135<-60 -33> 448 114<603 603>
LayerCount: 2
Fore
SplineSet
239 116 m 2,0,-1
 417 116 l 2,1,2
 487 116 487 116 524.5 76.5 c 128,-1,3
 562 37 562 37 562 -30 c 0,4,5
 562 -97 562 -97 505.5 -142.5 c 128,-1,6
 449 -188 449 -188 367 -188 c 2,7,-1
 156 -188 l 2,8,9
 95 -188 95 -188 53.5 -154.5 c 128,-1,10
 12 -121 12 -121 12 -62 c 0,11,12
 12 -26 12 -26 33.5 3.5 c 128,-1,13
 55 33 55 33 88 48 c 1,14,15
 41 79 41 79 41 133 c 0,16,17
 41 170 41 170 65 197.5 c 128,-1,18
 89 225 89 225 127 237 c 1,19,20
 55 282 55 282 55 356.5 c 0,21,22
 55 431 55 431 110.5 476 c 128,-1,23
 166 521 166 521 273 521 c 2,24,-1
 289 521 l 2,25,26
 336 521 336 521 373 509 c 1,27,28
 442 550 442 550 448 603 c 1,29,-1
 562 603 l 1,30,31
 562 497 562 497 456 471 c 1,32,-1
 455 468 l 1,33,34
 508 423 508 423 508 357.5 c 0,35,36
 508 292 508 292 452.5 246 c 128,-1,37
 397 200 397 200 308 200 c 2,38,-1
 239 200 l 2,39,40
 209 200 209 200 192.5 187 c 128,-1,41
 176 174 176 174 176 158 c 0,42,43
 176 116 176 116 239 116 c 2,0,-1
195 360 m 128,-1,45
 195 325 195 325 220 305.5 c 128,-1,46
 245 286 245 286 283.5 286 c 0,47,48
 322 286 322 286 347 305.5 c 128,-1,49
 372 325 372 325 372 360 c 128,-1,50
 372 395 372 395 347 414.5 c 128,-1,51
 322 434 322 434 283.5 434 c 0,52,53
 245 434 245 434 220 414.5 c 128,-1,44
 195 395 195 395 195 360 c 128,-1,45
195 -98 m 2,54,-1
 363 -98 l 2,55,56
 389 -98 389 -98 408 -82.5 c 128,-1,57
 427 -67 427 -67 427 -46.5 c 0,58,59
 427 -26 427 -26 411 -12.5 c 128,-1,60
 395 1 395 1 369 1 c 2,61,-1
 195 1 l 2,62,63
 173 1 173 1 157 -13.5 c 128,-1,64
 141 -28 141 -28 141 -48 c 128,-1,65
 141 -68 141 -68 157 -83 c 128,-1,66
 173 -98 173 -98 195 -98 c 2,54,-1
EndSplineSet
EndChar

StartChar: gbreve
Encoding: 287 287 133
Width: 572
GlyphClass: 2
Flags: MW
HStem: -188 90<117 363 195 363 363 367> 1 115<180 417 239 369> 200 86<217.5 307.5 258.5 307.5 258.5 308> 434 87<273 289 289 304 273 307.5> 613 74<256 313 256 338.5>
VStem: 12 129<-61.5 -37.5> 41 135<145.5 158> 55 140<335.5 384.5> 372 136<335.5 381.5 316 384.5> 427 135<-60 -33> 448 114<603 603>
LayerCount: 2
Fore
SplineSet
285 613 m 128,-1,1
 208 613 208 613 150.5 652.5 c 128,-1,2
 93 692 93 692 93 737 c 1,3,-1
 174 737 l 1,4,5
 179 718 179 718 211 702.5 c 128,-1,6
 243 687 243 687 284 687 c 0,7,8
 325 687 325 687 358.5 703 c 128,-1,9
 392 719 392 719 396 737 c 1,10,-1
 478 737 l 1,11,12
 478 692 478 692 420 652.5 c 128,-1,0
 362 613 362 613 285 613 c 128,-1,1
239 116 m 2,13,-1
 417 116 l 2,14,15
 487 116 487 116 524.5 76.5 c 128,-1,16
 562 37 562 37 562 -30 c 0,17,18
 562 -97 562 -97 505.5 -142.5 c 128,-1,19
 449 -188 449 -188 367 -188 c 2,20,-1
 156 -188 l 2,21,22
 95 -188 95 -188 53.5 -154.5 c 128,-1,23
 12 -121 12 -121 12 -62 c 0,24,25
 12 -26 12 -26 33.5 3.5 c 128,-1,26
 55 33 55 33 88 48 c 1,27,28
 41 79 41 79 41 133 c 0,29,30
 41 170 41 170 65 197.5 c 128,-1,31
 89 225 89 225 127 237 c 1,32,33
 55 282 55 282 55 356.5 c 0,34,35
 55 431 55 431 110.5 476 c 128,-1,36
 166 521 166 521 273 521 c 2,37,-1
 289 521 l 2,38,39
 336 521 336 521 373 509 c 1,40,41
 442 550 442 550 448 603 c 1,42,-1
 562 603 l 1,43,44
 562 497 562 497 456 471 c 1,45,-1
 455 468 l 1,46,47
 508 423 508 423 508 357.5 c 0,48,49
 508 292 508 292 452.5 246 c 128,-1,50
 397 200 397 200 308 200 c 2,51,-1
 239 200 l 2,52,53
 209 200 209 200 192.5 187 c 128,-1,54
 176 174 176 174 176 158 c 0,55,56
 176 116 176 116 239 116 c 2,13,-1
195 360 m 128,-1,58
 195 325 195 325 220 305.5 c 128,-1,59
 245 286 245 286 283.5 286 c 0,60,61
 322 286 322 286 347 305.5 c 128,-1,62
 372 325 372 325 372 360 c 128,-1,63
 372 395 372 395 347 414.5 c 128,-1,64
 322 434 322 434 283.5 434 c 0,65,66
 245 434 245 434 220 414.5 c 128,-1,57
 195 395 195 395 195 360 c 128,-1,58
195 -98 m 2,67,-1
 363 -98 l 2,68,69
 389 -98 389 -98 408 -82.5 c 128,-1,70
 427 -67 427 -67 427 -46.5 c 0,71,72
 427 -26 427 -26 411 -12.5 c 128,-1,73
 395 1 395 1 369 1 c 2,74,-1
 195 1 l 2,75,76
 173 1 173 1 157 -13.5 c 128,-1,77
 141 -28 141 -28 141 -48 c 128,-1,78
 141 -68 141 -68 157 -83 c 128,-1,79
 173 -98 173 -98 195 -98 c 2,67,-1
EndSplineSet
EndChar

StartChar: gcommaaccent
Encoding: 291 291 134
Width: 572
GlyphClass: 2
Flags: MW
HStem: -188 90<117 363 195 363 363 367> 1 115<180 417 239 369> 200 86<217.5 307.5 258.5 307.5 258.5 308> 434 87<273 289 289 304 273 307.5> 571 137<290 353 290 353 207 353>
VStem: 12 129<-61.5 -37.5> 41 135<145.5 158> 55 140<335.5 384.5> 207 146<571 684 684 684> 372 136<335.5 381.5 316 384.5> 427 135<-60 -33> 448 114<603 603>
LayerCount: 2
Fore
SplineSet
290 708 m 1,0,-1
 353 708 l 1,1,-1
 353 571 l 1,2,-1
 207 571 l 1,3,-1
 207 684 l 1,4,-1
 232 791 l 1,5,-1
 306 791 l 1,6,-1
 290 708 l 1,0,-1
239 116 m 2,7,-1
 417 116 l 2,8,9
 487 116 487 116 524.5 76.5 c 128,-1,10
 562 37 562 37 562 -30 c 0,11,12
 562 -97 562 -97 505.5 -142.5 c 128,-1,13
 449 -188 449 -188 367 -188 c 2,14,-1
 156 -188 l 2,15,16
 95 -188 95 -188 53.5 -154.5 c 128,-1,17
 12 -121 12 -121 12 -62 c 0,18,19
 12 -26 12 -26 33.5 3.5 c 128,-1,20
 55 33 55 33 88 48 c 1,21,22
 41 79 41 79 41 133 c 0,23,24
 41 170 41 170 65 197.5 c 128,-1,25
 89 225 89 225 127 237 c 1,26,27
 55 282 55 282 55 356.5 c 0,28,29
 55 431 55 431 110.5 476 c 128,-1,30
 166 521 166 521 273 521 c 2,31,-1
 289 521 l 2,32,33
 336 521 336 521 373 509 c 1,34,35
 442 550 442 550 448 603 c 1,36,-1
 562 603 l 1,37,38
 562 497 562 497 456 471 c 1,39,-1
 455 468 l 1,40,41
 508 423 508 423 508 357.5 c 0,42,43
 508 292 508 292 452.5 246 c 128,-1,44
 397 200 397 200 308 200 c 2,45,-1
 239 200 l 2,46,47
 209 200 209 200 192.5 187 c 128,-1,48
 176 174 176 174 176 158 c 0,49,50
 176 116 176 116 239 116 c 2,7,-1
195 360 m 128,-1,52
 195 325 195 325 220 305.5 c 128,-1,53
 245 286 245 286 283.5 286 c 0,54,55
 322 286 322 286 347 305.5 c 128,-1,56
 372 325 372 325 372 360 c 128,-1,57
 372 395 372 395 347 414.5 c 128,-1,58
 322 434 322 434 283.5 434 c 0,59,60
 245 434 245 434 220 414.5 c 128,-1,51
 195 395 195 395 195 360 c 128,-1,52
195 -98 m 2,61,-1
 363 -98 l 2,62,63
 389 -98 389 -98 408 -82.5 c 128,-1,64
 427 -67 427 -67 427 -46.5 c 0,65,66
 427 -26 427 -26 411 -12.5 c 128,-1,67
 395 1 395 1 369 1 c 2,68,-1
 195 1 l 2,69,70
 173 1 173 1 157 -13.5 c 128,-1,71
 141 -28 141 -28 141 -48 c 128,-1,72
 141 -68 141 -68 157 -83 c 128,-1,73
 173 -98 173 -98 195 -98 c 2,61,-1
EndSplineSet
EndChar

StartChar: h
Encoding: 104 104 135
Width: 598
GlyphClass: 2
Flags: MW
HStem: 0 21G<66 212 66 66 387 533 387 387> 415 106<322 330.5>
VStem: 66 146<0 314 461 720> 387 146<0 325 325 351>
LayerCount: 2
Fore
SplineSet
212 720 m 1,0,-1
 212 461 l 1,1,2
 270 521 270 521 351 521 c 0,3,4
 432 521 432 521 482.5 479 c 128,-1,5
 533 437 533 437 533 357 c 2,6,-1
 533 0 l 1,7,-1
 387 0 l 1,8,-1
 387 325 l 2,9,10
 387 364 387 364 364.5 389.5 c 128,-1,11
 342 415 342 415 305 415 c 0,12,13
 268 415 268 415 240 385.5 c 128,-1,14
 212 356 212 356 212 314 c 2,15,-1
 212 0 l 1,16,-1
 66 0 l 1,17,-1
 66 720 l 1,18,-1
 212 720 l 1,0,-1
EndSplineSet
EndChar

StartChar: i
Encoding: 105 105 136
Width: 278
GlyphClass: 2
Flags: MW
HStem: 0 21G<66 212 66 66> 491 20G<66 212 212 212> 605 115<65 213 65 213>
VStem: 66 146<0 511 0 511>
LayerCount: 2
Fore
SplineSet
213 720 m 1,0,-1
 213 605 l 1,1,-1
 65 605 l 1,2,-1
 65 720 l 1,3,-1
 213 720 l 1,0,-1
66 511 m 1,4,-1
 212 511 l 1,5,-1
 212 0 l 1,6,-1
 66 0 l 1,7,-1
 66 511 l 1,4,-1
EndSplineSet
EndChar

StartChar: dotlessi
Encoding: 305 305 137
Width: 278
GlyphClass: 2
Flags: MW
HStem: 0 21G<66 212 66 66> 491 20G<66 212 212 212>
VStem: 66 146<0 511 0 511>
LayerCount: 2
Fore
SplineSet
66 511 m 1,0,-1
 212 511 l 1,1,-1
 212 0 l 1,2,-1
 66 0 l 1,3,-1
 66 511 l 1,0,-1
EndSplineSet
EndChar

StartChar: iacute
Encoding: 237 237 138
Width: 278
GlyphClass: 2
Flags: MW
HStem: 0 21G<66 212 66 66> 491 20G<66 212 212 212> 575 145<162 171 70 291>
VStem: 66 146<0 511 0 511>
LayerCount: 2
Fore
SplineSet
162 720 m 1,0,-1
 291 720 l 1,1,-1
 292 717 l 1,2,-1
 171 575 l 1,3,-1
 70 575 l 1,4,-1
 162 720 l 1,0,-1
66 511 m 1,5,-1
 212 511 l 1,6,-1
 212 0 l 1,7,-1
 66 0 l 1,8,-1
 66 511 l 1,5,-1
EndSplineSet
EndChar

StartChar: icircumflex
Encoding: 238 238 139
Width: 278
GlyphClass: 2
Flags: MW
HStem: 0 21G<66 212 66 66> 491 20G<66 212 212 212> 575 145<-49 192 -49 192 89 329 89 224>
VStem: 66 146<0 511 0 511>
LayerCount: 2
Fore
SplineSet
89 720 m 1,0,-1
 192 720 l 1,1,2
 280 626 280 626 329 575 c 1,3,-1
 224 575 l 1,4,-1
 140 658 l 1,5,-1
 55 575 l 1,6,-1
 -49 575 l 1,7,-1
 89 720 l 1,0,-1
66 511 m 1,8,-1
 212 511 l 1,9,-1
 212 0 l 1,10,-1
 66 0 l 1,11,-1
 66 511 l 1,8,-1
EndSplineSet
EndChar

StartChar: idieresis
Encoding: 239 239 140
Width: 278
GlyphClass: 2
Flags: MW
HStem: 0 21G<66 212 66 66> 491 20G<66 212 212 212> 598 122<-23 98 -23 98 -23 181 181 302>
VStem: -23 121<598 720 598 720> 66 146<0 511 0 511> 181 121<598 720 598 720>
LayerCount: 2
Fore
SplineSet
98 720 m 1,0,-1
 98 598 l 1,1,-1
 -23 598 l 1,2,-1
 -23 720 l 1,3,-1
 98 720 l 1,0,-1
302 720 m 1,4,-1
 302 598 l 1,5,-1
 181 598 l 1,6,-1
 181 720 l 1,7,-1
 302 720 l 1,4,-1
66 511 m 1,8,-1
 212 511 l 1,9,-1
 212 0 l 1,10,-1
 66 0 l 1,11,-1
 66 511 l 1,8,-1
EndSplineSet
EndChar

StartChar: igrave
Encoding: 236 236 141
Width: 278
GlyphClass: 2
Flags: MW
HStem: 0 21G<66 212 66 66> 491 20G<66 212 212 212> 575 145<104 113 -15 206 104 104>
VStem: 66 146<0 511 0 511>
LayerCount: 2
Fore
SplineSet
-16 717 m 1,0,-1
 -15 720 l 1,1,-1
 113 720 l 1,2,-1
 206 575 l 1,3,-1
 104 575 l 1,4,-1
 -16 717 l 1,0,-1
66 511 m 1,5,-1
 212 511 l 1,6,-1
 212 0 l 1,7,-1
 66 0 l 1,8,-1
 66 511 l 1,5,-1
EndSplineSet
EndChar

StartChar: imacron
Encoding: 299 299 142
Width: 278
GlyphClass: 2
Flags: MW
HStem: 0 21G<66 212 66 66> 491 20G<66 212 212 212> 662 74<-20 298 -20 298>
VStem: 66 146<0 511 0 511>
LayerCount: 2
Fore
SplineSet
-20 736 m 1,0,-1
 298 736 l 1,1,-1
 298 662 l 1,2,-1
 -20 662 l 1,3,-1
 -20 736 l 1,0,-1
66 511 m 1,4,-1
 212 511 l 1,5,-1
 212 0 l 1,6,-1
 66 0 l 1,7,-1
 66 511 l 1,4,-1
EndSplineSet
EndChar

StartChar: iogonek
Encoding: 303 303 143
Width: 278
GlyphClass: 2
Flags: MW
HStem: -143 50<186.5 197.5> 0 21G<66 138 66 66 200 200 200 212> 491 20G<66 212 212 212> 605 115<65 213 65 213>
VStem: 66 146<0 511 0 511>
LayerCount: 2
Fore
SplineSet
213 605 m 1,0,-1
 65 605 l 1,1,-1
 65 720 l 1,2,-1
 213 720 l 1,3,-1
 213 605 l 1,0,-1
264 -79 m 1,4,-1
 277 -119 l 1,5,6
 233 -143 233 -143 187 -143 c 0,7,8
 84 -143 84 -143 84 -71 c 0,9,10
 84 -36 84 -36 138 0 c 1,11,-1
 66 0 l 1,12,-1
 66 511 l 1,13,-1
 212 511 l 1,14,-1
 212 0 l 1,15,-1
 200 0 l 1,16,17
 153 -26 153 -26 153 -57 c 0,18,19
 153 -93 153 -93 197 -93 c 0,20,21
 227 -93 227 -93 264 -79 c 1,4,-1
EndSplineSet
EndChar

StartChar: j
Encoding: 106 106 144
Width: 280
GlyphClass: 2
Flags: MW
HStem: -186 100<3.5 109.5> 490 20G<67 213 213 213> 605 115<66 214 66 214>
VStem: 67 146<-18 510>
LayerCount: 2
Fore
SplineSet
214 720 m 1,0,-1
 214 605 l 1,1,-1
 66 605 l 1,2,-1
 66 720 l 1,3,-1
 214 720 l 1,0,-1
213 510 m 1,4,-1
 213 -20 l 2,5,6
 213 -186 213 -186 59 -186 c 0,7,8
 -8 -186 -8 -186 -50 -166 c 1,9,-1
 -50 -73 l 1,10,11
 -22 -86 -22 -86 7.5 -86 c 0,12,13
 37 -86 37 -86 52 -72 c 128,-1,14
 67 -58 67 -58 67 -18 c 2,15,-1
 67 510 l 1,16,-1
 213 510 l 1,4,-1
EndSplineSet
EndChar

StartChar: k
Encoding: 107 107 145
Width: 562
GlyphClass: 2
Flags: MW
HStem: 0 21G<66 212 66 66 390 390 390 564> 491 20G<391 556 556 556>
VStem: 66 146<0 112 273 720>
AnchorPoint: "Bottom" 281 0 basechar 0
LayerCount: 2
Fore
SplineSet
269 167 m 1,0,-1
 212 112 l 1,1,-1
 212 0 l 1,2,-1
 66 0 l 1,3,-1
 66 720 l 1,4,-1
 212 720 l 1,5,-1
 212 273 l 1,6,-1
 391 511 l 1,7,-1
 556 511 l 1,8,-1
 368 271 l 1,9,-1
 564 0 l 1,10,-1
 390 0 l 1,11,-1
 269 167 l 1,0,-1
EndSplineSet
EndChar

StartChar: kcommaaccent
Encoding: 311 311 146
Width: 562
GlyphClass: 2
Flags: MW
HStem: -167 137<214 277 214 360> 0 21G<66 212 66 66 390 390 390 564> 491 20G<391 556 556 556>
VStem: 66 146<0 112 273 720> 214 146<-143 -30 -143 -30 -143 -30>
AnchorPoint: "Bottom" 281 0 basechar 0
LayerCount: 2
Fore
SplineSet
269 167 m 1,0,-1
 212 112 l 1,1,-1
 212 0 l 1,2,-1
 66 0 l 1,3,-1
 66 720 l 1,4,-1
 212 720 l 1,5,-1
 212 273 l 1,6,-1
 391 511 l 1,7,-1
 556 511 l 1,8,-1
 368 271 l 1,9,-1
 564 0 l 1,10,-1
 390 0 l 1,11,-1
 269 167 l 1,0,-1
277 -167 m 1,12,-1
 214 -167 l 1,13,-1
 214 -30 l 1,14,-1
 360 -30 l 1,15,-1
 360 -143 l 1,16,-1
 335 -250 l 1,17,-1
 261 -250 l 1,18,-1
 277 -167 l 1,12,-1
EndSplineSet
EndChar

StartChar: l
Encoding: 108 108 147
Width: 279
GlyphClass: 2
Flags: MW
HStem: 0 21G<66 212 66 66>
VStem: 66 146<0 720 0 720>
AnchorPoint: "Bottom" 140 0 basechar 0
LayerCount: 2
Fore
SplineSet
66 720 m 1,0,-1
 212 720 l 1,1,-1
 212 0 l 1,2,-1
 66 0 l 1,3,-1
 66 720 l 1,0,-1
EndSplineSet
EndChar

StartChar: lacute
Encoding: 314 314 148
Width: 279
GlyphClass: 2
Flags: MW
HStem: 0 21G<66 212 66 66> 750 145<151 160 59 280>
VStem: 66 146<0 720 0 720>
AnchorPoint: "Bottom" 140 0 basechar 0
LayerCount: 2
Fore
SplineSet
151 895 m 1,0,-1
 280 895 l 1,1,-1
 281 892 l 1,2,-1
 160 750 l 1,3,-1
 59 750 l 1,4,-1
 151 895 l 1,0,-1
66 720 m 1,5,-1
 212 720 l 1,6,-1
 212 0 l 1,7,-1
 66 0 l 1,8,-1
 66 720 l 1,5,-1
EndSplineSet
EndChar

StartChar: lcaron
Encoding: 318 318 149
Width: 279
GlyphClass: 2
Flags: MW
HStem: 0 21G<66 212 66 66> 539 147<258 321 258 404> 539 181<66 321 66 258>
VStem: 66 146<0 720 0 720> 258 146<563 686 563 686 563 686>
AnchorPoint: "Bottom" 140 0 basechar 0
LayerCount: 2
Fore
SplineSet
66 720 m 1,0,-1
 212 720 l 1,1,-1
 212 0 l 1,2,-1
 66 0 l 1,3,-1
 66 720 l 1,0,-1
362 395 m 1,4,-1
 289 395 l 1,5,6
 299 443 299 443 321 539 c 1,7,-1
 258 539 l 1,8,-1
 258 686 l 1,9,-1
 404 686 l 1,10,-1
 404 563 l 1,11,-1
 362 395 l 1,4,-1
EndSplineSet
EndChar

StartChar: lcommaaccent
Encoding: 316 316 150
Width: 279
GlyphClass: 2
Flags: MW
HStem: -167 137<73 136 73 219> 0 21G<66 212 66 66>
VStem: 66 146<0 720 0 720>
AnchorPoint: "Bottom" 140 0 basechar 0
LayerCount: 2
Fore
SplineSet
66 720 m 1,0,-1
 212 720 l 1,1,-1
 212 0 l 1,2,-1
 66 0 l 1,3,-1
 66 720 l 1,0,-1
136 -167 m 1,4,-1
 73 -167 l 1,5,-1
 73 -30 l 1,6,-1
 219 -30 l 1,7,-1
 219 -143 l 1,8,-1
 194 -250 l 1,9,-1
 120 -250 l 1,10,-1
 136 -167 l 1,4,-1
EndSplineSet
EndChar

StartChar: lslash
Encoding: 322 322 151
Width: 279
GlyphClass: 2
Flags: MW
HStem: 0 21G<66 212 66 66>
VStem: 66 146<0 303 303 303 464 720>
LayerCount: 2
Fore
SplineSet
-4 355 m 1,0,1
 31 372.5 31 372.5 66 390 c 1,2,-1
 66 720 l 1,3,-1
 212 720 l 1,4,-1
 212 464 l 1,5,-1
 283 500 l 1,6,-1
 283 412 l 1,7,-1
 212 377 l 1,8,-1
 212 0 l 1,9,-1
 66 0 l 1,10,-1
 66 303 l 1,11,12
 58 299 58 299 43.5 292 c 128,-1,13
 29 285 29 285 17.5 279 c 128,-1,14
 6 273 6 273 -4 268 c 1,15,-1
 -4 355 l 1,0,1
EndSplineSet
EndChar

StartChar: m
Encoding: 109 109 152
Width: 870
GlyphClass: 2
Flags: MW
HStem: 0 21G<66 212 66 66 363 509 363 363 660 806 660 660> 415 106<312 315 609 613> 491 20G<66 176 176 176>
VStem: 66 146<0 317 0 511> 363 146<0 317 0 328 0 356> 660 146<0 328 328 356>
LayerCount: 2
Fore
SplineSet
192 436 m 1,0,1
 246 521 246 521 346.5 521 c 128,-1,2
 447 521 447 521 490 439 c 1,3,4
 542 521 542 521 639 521 c 0,5,6
 711 521 711 521 758.5 477.5 c 128,-1,7
 806 434 806 434 806 357 c 2,8,-1
 806 0 l 1,9,-1
 660 0 l 1,10,-1
 660 328 l 2,11,12
 660 370 660 370 642 392.5 c 128,-1,13
 624 415 624 415 590.5 415 c 128,-1,14
 557 415 557 415 533 387 c 128,-1,15
 509 359 509 359 509 317 c 2,16,-1
 509 0 l 1,17,-1
 363 0 l 1,18,-1
 363 328 l 2,19,20
 363 369 363 369 344.5 392 c 128,-1,21
 326 415 326 415 292.5 415 c 128,-1,22
 259 415 259 415 235.5 387 c 128,-1,23
 212 359 212 359 212 317 c 2,24,-1
 212 0 l 1,25,-1
 66 0 l 1,26,-1
 66 511 l 1,27,-1
 176 511 l 1,28,29
 182 486 182 486 192 436 c 1,0,1
EndSplineSet
EndChar

StartChar: n
Encoding: 110 110 153
Width: 597
GlyphClass: 2
Flags: MW
HStem: 0 21G<66 212 66 66 387 533 387 387> 415 106<314.5 330.5> 491 20G<66 175 175 175>
VStem: 66 146<0 314 0 511> 387 146<0 325 325 351>
AnchorPoint: "Bottom" 299 0 basechar 0
LayerCount: 2
Fore
SplineSet
175 511 m 1,0,-1
 191 436 l 1,1,2
 254 521 254 521 354 521 c 0,3,4
 432 521 432 521 482.5 479 c 128,-1,5
 533 437 533 437 533 357 c 2,6,-1
 533 0 l 1,7,-1
 387 0 l 1,8,-1
 387 325 l 2,9,10
 387 364 387 364 364.5 389.5 c 128,-1,11
 342 415 342 415 305 415 c 0,12,13
 268 415 268 415 240 385.5 c 128,-1,14
 212 356 212 356 212 314 c 2,15,-1
 212 0 l 1,16,-1
 66 0 l 1,17,-1
 66 511 l 1,18,-1
 175 511 l 1,0,-1
EndSplineSet
EndChar

StartChar: nacute
Encoding: 324 324 154
Width: 597
GlyphClass: 2
Flags: MW
HStem: 0 21G<66 212 66 66 387 533 387 387> 415 106<314.5 330.5> 491 20G<66 175 175 175> 575 145<310 319 218 439>
VStem: 66 146<0 314 0 511> 387 146<0 325 325 351>
AnchorPoint: "Bottom" 299 0 basechar 0
LayerCount: 2
Fore
SplineSet
310 720 m 1,0,-1
 439 720 l 1,1,-1
 440 717 l 1,2,-1
 319 575 l 1,3,-1
 218 575 l 1,4,-1
 310 720 l 1,0,-1
175 511 m 1,5,-1
 191 436 l 1,6,7
 254 521 254 521 354 521 c 0,8,9
 432 521 432 521 482.5 479 c 128,-1,10
 533 437 533 437 533 357 c 2,11,-1
 533 0 l 1,12,-1
 387 0 l 1,13,-1
 387 325 l 2,14,15
 387 364 387 364 364.5 389.5 c 128,-1,16
 342 415 342 415 305 415 c 0,17,18
 268 415 268 415 240 385.5 c 128,-1,19
 212 356 212 356 212 314 c 2,20,-1
 212 0 l 1,21,-1
 66 0 l 1,22,-1
 66 511 l 1,23,-1
 175 511 l 1,5,-1
EndSplineSet
EndChar

StartChar: ncaron
Encoding: 328 328 155
Width: 597
GlyphClass: 2
Flags: MW
HStem: 0 21G<66 212 66 66 387 533 387 387> 415 106<314.5 330.5> 491 20G<66 175 175 175> 575 145<110 351 110 248>
VStem: 66 146<0 314 0 511> 387 146<0 325 325 351>
AnchorPoint: "Bottom" 299 0 basechar 0
LayerCount: 2
Fore
SplineSet
215 720 m 1,0,-1
 300 637 l 1,1,-1
 384 720 l 1,2,-1
 488 720 l 1,3,4
 439 669 439 669 351 575 c 1,5,-1
 248 575 l 1,6,-1
 110 720 l 1,7,-1
 215 720 l 1,0,-1
175 511 m 1,8,-1
 191 436 l 1,9,10
 254 521 254 521 354 521 c 0,11,12
 432 521 432 521 482.5 479 c 128,-1,13
 533 437 533 437 533 357 c 2,14,-1
 533 0 l 1,15,-1
 387 0 l 1,16,-1
 387 325 l 2,17,18
 387 364 387 364 364.5 389.5 c 128,-1,19
 342 415 342 415 305 415 c 0,20,21
 268 415 268 415 240 385.5 c 128,-1,22
 212 356 212 356 212 314 c 2,23,-1
 212 0 l 1,24,-1
 66 0 l 1,25,-1
 66 511 l 1,26,-1
 175 511 l 1,8,-1
EndSplineSet
EndChar

StartChar: ncommaaccent
Encoding: 326 326 156
Width: 597
GlyphClass: 2
Flags: MW
HStem: -167 137<232 295 232 378> 0 21G<66 212 66 66 387 533 387 387> 415 106<314.5 330.5> 491 20G<66 175 175 175>
VStem: 66 146<0 314 0 511> 232 146<-143 -30 -143 -30 -143 -30> 387 146<0 325 325 351>
AnchorPoint: "Bottom" 299 0 basechar 0
LayerCount: 2
Fore
SplineSet
175 511 m 1,0,-1
 191 436 l 1,1,2
 254 521 254 521 354 521 c 0,3,4
 432 521 432 521 482.5 479 c 128,-1,5
 533 437 533 437 533 357 c 2,6,-1
 533 0 l 1,7,-1
 387 0 l 1,8,-1
 387 325 l 2,9,10
 387 364 387 364 364.5 389.5 c 128,-1,11
 342 415 342 415 305 415 c 0,12,13
 268 415 268 415 240 385.5 c 128,-1,14
 212 356 212 356 212 314 c 2,15,-1
 212 0 l 1,16,-1
 66 0 l 1,17,-1
 66 511 l 1,18,-1
 175 511 l 1,0,-1
295 -167 m 1,19,-1
 232 -167 l 1,20,-1
 232 -30 l 1,21,-1
 378 -30 l 1,22,-1
 378 -143 l 1,23,-1
 353 -250 l 1,24,-1
 279 -250 l 1,25,-1
 295 -167 l 1,19,-1
EndSplineSet
EndChar

StartChar: ntilde
Encoding: 241 241 157
Width: 598
GlyphClass: 2
Flags: MW
HStem: 0 21G<66 212 66 66 387 533 387 387> 415 106<314.5 330.5> 491 20G<66 175 175 175> 596 86<370 411 370 428> 633 87<204 245>
VStem: 66 146<0 314 0 511> 387 146<0 325 325 351>
LayerCount: 2
Fore
SplineSet
450 720 m 1,0,-1
 515 720 l 1,1,2
 515 672 515 672 480 634 c 128,-1,3
 445 596 445 596 389 596 c 0,4,5
 356 596 356 596 300 614.5 c 128,-1,6
 244 633 244 633 218 633 c 0,7,8
 177 633 177 633 166 596 c 1,9,-1
 100 596 l 1,10,11
 100 643 100 643 135.5 681.5 c 128,-1,12
 171 720 171 720 227 720 c 0,13,14
 260 720 260 720 315.5 701 c 128,-1,15
 371 682 371 682 397 682 c 0,16,17
 438 682 438 682 450 720 c 1,0,-1
175 511 m 1,18,-1
 191 436 l 1,19,20
 254 521 254 521 354 521 c 0,21,22
 432 521 432 521 482.5 479 c 128,-1,23
 533 437 533 437 533 357 c 2,24,-1
 533 0 l 1,25,-1
 387 0 l 1,26,-1
 387 325 l 2,27,28
 387 364 387 364 364.5 389.5 c 128,-1,29
 342 415 342 415 305 415 c 0,30,31
 268 415 268 415 240 385.5 c 128,-1,32
 212 356 212 356 212 314 c 2,33,-1
 212 0 l 1,34,-1
 66 0 l 1,35,-1
 66 511 l 1,36,-1
 175 511 l 1,18,-1
EndSplineSet
EndChar

StartChar: o
Encoding: 111 111 158
Width: 602
GlyphClass: 2
Flags: MW
HStem: -10 100<270 293 293 309> 421 100<293 309 309 332>
VStem: 43 148<241 270 270 296 173 349.5> 411 148<215 241 241 270 161.5 296 161.5 338>
LayerCount: 2
Fore
SplineSet
559 270 m 2,0,-1
 559 241 l 2,1,2
 559 125 559 125 488.5 57.5 c 128,-1,3
 418 -10 418 -10 309 -10 c 2,4,-1
 293 -10 l 2,5,6
 184 -10 184 -10 113.5 57.5 c 128,-1,7
 43 125 43 125 43 241 c 2,8,-1
 43 270 l 2,9,10
 43 386 43 386 113.5 453.5 c 128,-1,11
 184 521 184 521 293 521 c 2,12,-1
 309 521 l 2,13,14
 418 521 418 521 488.5 453.5 c 128,-1,15
 559 386 559 386 559 270 c 2,0,-1
411 215 m 2,16,-1
 411 296 l 2,17,18
 411 357 411 357 380.5 389 c 128,-1,19
 350 421 350 421 301 421 c 128,-1,20
 252 421 252 421 221.5 389 c 128,-1,21
 191 357 191 357 191 296 c 2,22,-1
 191 215 l 2,23,24
 191 154 191 154 221.5 122 c 128,-1,25
 252 90 252 90 301 90 c 128,-1,26
 350 90 350 90 380.5 122 c 128,-1,27
 411 154 411 154 411 215 c 2,16,-1
EndSplineSet
Substitution2: "Single Substitution lookup 5 subtable" ordmasculine
Substitution2: "'aalt' Access All Alternates lookup 0 subtable" ordmasculine
EndChar

StartChar: oacute
Encoding: 243 243 159
Width: 606
GlyphClass: 2
Flags: MW
HStem: -10 100<272 295 295 311> 421 100<295 311 311 334> 575 145<346 355 254 475>
VStem: 45 148<241 270 270 296 173 349.5> 413 148<215 241 241 270 161.5 296 161.5 338>
LayerCount: 2
Fore
SplineSet
346 720 m 1,0,-1
 475 720 l 1,1,-1
 476 717 l 1,2,-1
 355 575 l 1,3,-1
 254 575 l 1,4,-1
 346 720 l 1,0,-1
561 270 m 2,5,-1
 561 241 l 2,6,7
 561 125 561 125 490.5 57.5 c 128,-1,8
 420 -10 420 -10 311 -10 c 2,9,-1
 295 -10 l 2,10,11
 186 -10 186 -10 115.5 57.5 c 128,-1,12
 45 125 45 125 45 241 c 2,13,-1
 45 270 l 2,14,15
 45 386 45 386 115.5 453.5 c 128,-1,16
 186 521 186 521 295 521 c 2,17,-1
 311 521 l 2,18,19
 420 521 420 521 490.5 453.5 c 128,-1,20
 561 386 561 386 561 270 c 2,5,-1
413 215 m 2,21,-1
 413 296 l 2,22,23
 413 357 413 357 382.5 389 c 128,-1,24
 352 421 352 421 303 421 c 128,-1,25
 254 421 254 421 223.5 389 c 128,-1,26
 193 357 193 357 193 296 c 2,27,-1
 193 215 l 2,28,29
 193 154 193 154 223.5 122 c 128,-1,30
 254 90 254 90 303 90 c 128,-1,31
 352 90 352 90 382.5 122 c 128,-1,32
 413 154 413 154 413 215 c 2,21,-1
EndSplineSet
EndChar

StartChar: ocircumflex
Encoding: 244 244 160
Width: 606
GlyphClass: 2
Flags: MW
HStem: -10 100<272 295 295 311> 421 100<295 311 311 334> 575 145<112 353 112 353 250 490 250 385>
VStem: 45 148<241 270 270 296 173 349.5> 413 148<215 241 241 270 161.5 296 161.5 338>
LayerCount: 2
Fore
SplineSet
250 720 m 1,0,-1
 353 720 l 1,1,2
 441 626 441 626 490 575 c 1,3,-1
 385 575 l 1,4,-1
 301 658 l 1,5,-1
 216 575 l 1,6,-1
 112 575 l 1,7,-1
 250 720 l 1,0,-1
561 270 m 2,8,-1
 561 241 l 2,9,10
 561 125 561 125 490.5 57.5 c 128,-1,11
 420 -10 420 -10 311 -10 c 2,12,-1
 295 -10 l 2,13,14
 186 -10 186 -10 115.5 57.5 c 128,-1,15
 45 125 45 125 45 241 c 2,16,-1
 45 270 l 2,17,18
 45 386 45 386 115.5 453.5 c 128,-1,19
 186 521 186 521 295 521 c 2,20,-1
 311 521 l 2,21,22
 420 521 420 521 490.5 453.5 c 128,-1,23
 561 386 561 386 561 270 c 2,8,-1
413 215 m 2,24,-1
 413 296 l 2,25,26
 413 357 413 357 382.5 389 c 128,-1,27
 352 421 352 421 303 421 c 128,-1,28
 254 421 254 421 223.5 389 c 128,-1,29
 193 357 193 357 193 296 c 2,30,-1
 193 215 l 2,31,32
 193 154 193 154 223.5 122 c 128,-1,33
 254 90 254 90 303 90 c 128,-1,34
 352 90 352 90 382.5 122 c 128,-1,35
 413 154 413 154 413 215 c 2,24,-1
EndSplineSet
EndChar

StartChar: odieresis
Encoding: 246 246 161
Width: 606
GlyphClass: 2
Flags: MW
HStem: -10 100<272 295 295 311> 421 100<295 311 311 334> 598 122<139 260 139 260 139 343 343 464>
VStem: 45 148<241 270 270 296 173 349.5> 139 121<598 720 598 720> 343 121<598 720 598 720> 413 148<215 241 241 270 161.5 296 161.5 338>
LayerCount: 2
Fore
SplineSet
260 720 m 1,0,-1
 260 598 l 1,1,-1
 139 598 l 1,2,-1
 139 720 l 1,3,-1
 260 720 l 1,0,-1
464 720 m 1,4,-1
 464 598 l 1,5,-1
 343 598 l 1,6,-1
 343 720 l 1,7,-1
 464 720 l 1,4,-1
561 270 m 2,8,-1
 561 241 l 2,9,10
 561 125 561 125 490.5 57.5 c 128,-1,11
 420 -10 420 -10 311 -10 c 2,12,-1
 295 -10 l 2,13,14
 186 -10 186 -10 115.5 57.5 c 128,-1,15
 45 125 45 125 45 241 c 2,16,-1
 45 270 l 2,17,18
 45 386 45 386 115.5 453.5 c 128,-1,19
 186 521 186 521 295 521 c 2,20,-1
 311 521 l 2,21,22
 420 521 420 521 490.5 453.5 c 128,-1,23
 561 386 561 386 561 270 c 2,8,-1
413 215 m 2,24,-1
 413 296 l 2,25,26
 413 357 413 357 382.5 389 c 128,-1,27
 352 421 352 421 303 421 c 128,-1,28
 254 421 254 421 223.5 389 c 128,-1,29
 193 357 193 357 193 296 c 2,30,-1
 193 215 l 2,31,32
 193 154 193 154 223.5 122 c 128,-1,33
 254 90 254 90 303 90 c 128,-1,34
 352 90 352 90 382.5 122 c 128,-1,35
 413 154 413 154 413 215 c 2,24,-1
EndSplineSet
EndChar

StartChar: ograve
Encoding: 242 242 162
Width: 606
GlyphClass: 2
Flags: MW
HStem: -10 100<272 295 295 311> 421 100<295 311 311 334> 575 145<251 260 132 353 251 251>
VStem: 45 148<241 270 270 296 173 349.5> 413 148<215 241 241 270 161.5 296 161.5 338>
LayerCount: 2
Fore
SplineSet
131 717 m 1,0,-1
 132 720 l 1,1,-1
 260 720 l 1,2,-1
 353 575 l 1,3,-1
 251 575 l 1,4,-1
 131 717 l 1,0,-1
561 270 m 2,5,-1
 561 241 l 2,6,7
 561 125 561 125 490.5 57.5 c 128,-1,8
 420 -10 420 -10 311 -10 c 2,9,-1
 295 -10 l 2,10,11
 186 -10 186 -10 115.5 57.5 c 128,-1,12
 45 125 45 125 45 241 c 2,13,-1
 45 270 l 2,14,15
 45 386 45 386 115.5 453.5 c 128,-1,16
 186 521 186 521 295 521 c 2,17,-1
 311 521 l 2,18,19
 420 521 420 521 490.5 453.5 c 128,-1,20
 561 386 561 386 561 270 c 2,5,-1
413 215 m 2,21,-1
 413 296 l 2,22,23
 413 357 413 357 382.5 389 c 128,-1,24
 352 421 352 421 303 421 c 128,-1,25
 254 421 254 421 223.5 389 c 128,-1,26
 193 357 193 357 193 296 c 2,27,-1
 193 215 l 2,28,29
 193 154 193 154 223.5 122 c 128,-1,30
 254 90 254 90 303 90 c 128,-1,31
 352 90 352 90 382.5 122 c 128,-1,32
 413 154 413 154 413 215 c 2,21,-1
EndSplineSet
EndChar

StartChar: ohungarumlaut
Encoding: 337 337 163
Width: 602
GlyphClass: 2
Flags: MW
HStem: -10 100<270 293 293 309> 421 100<293 309 309 332> 575 145<217 226 124 345 315 315 315 345 408 417>
VStem: 43 148<241 270 270 296 173 349.5> 411 148<215 241 241 270 161.5 296 161.5 338>
LayerCount: 2
Fore
SplineSet
217 720 m 1,0,-1
 345 720 l 1,1,-1
 347 717 l 1,2,-1
 226 575 l 1,3,-1
 124 575 l 1,4,-1
 217 720 l 1,0,-1
408 720 m 1,5,-1
 536 720 l 1,6,-1
 538 717 l 1,7,-1
 417 575 l 1,8,-1
 315 575 l 1,9,-1
 408 720 l 1,5,-1
559 270 m 2,10,-1
 559 241 l 2,11,12
 559 125 559 125 488.5 57.5 c 128,-1,13
 418 -10 418 -10 309 -10 c 2,14,-1
 293 -10 l 2,15,16
 184 -10 184 -10 113.5 57.5 c 128,-1,17
 43 125 43 125 43 241 c 2,18,-1
 43 270 l 2,19,20
 43 386 43 386 113.5 453.5 c 128,-1,21
 184 521 184 521 293 521 c 2,22,-1
 309 521 l 2,23,24
 418 521 418 521 488.5 453.5 c 128,-1,25
 559 386 559 386 559 270 c 2,10,-1
411 215 m 2,26,-1
 411 296 l 2,27,28
 411 357 411 357 380.5 389 c 128,-1,29
 350 421 350 421 301 421 c 128,-1,30
 252 421 252 421 221.5 389 c 128,-1,31
 191 357 191 357 191 296 c 2,32,-1
 191 215 l 2,33,34
 191 154 191 154 221.5 122 c 128,-1,35
 252 90 252 90 301 90 c 128,-1,36
 350 90 350 90 380.5 122 c 128,-1,37
 411 154 411 154 411 215 c 2,26,-1
EndSplineSet
EndChar

StartChar: omacron
Encoding: 333 333 164
Width: 602
GlyphClass: 2
Flags: MW
HStem: -10 100<270 293 293 309> 421 100<293 309 309 332> 662 74<142 460 142 460>
VStem: 43 148<241 270 270 296 173 349.5> 411 148<215 241 241 270 161.5 296 161.5 338>
LayerCount: 2
Fore
SplineSet
142 736 m 1,0,-1
 460 736 l 1,1,-1
 460 662 l 1,2,-1
 142 662 l 1,3,-1
 142 736 l 1,0,-1
559 270 m 2,4,-1
 559 241 l 2,5,6
 559 125 559 125 488.5 57.5 c 128,-1,7
 418 -10 418 -10 309 -10 c 2,8,-1
 293 -10 l 2,9,10
 184 -10 184 -10 113.5 57.5 c 128,-1,11
 43 125 43 125 43 241 c 2,12,-1
 43 270 l 2,13,14
 43 386 43 386 113.5 453.5 c 128,-1,15
 184 521 184 521 293 521 c 2,16,-1
 309 521 l 2,17,18
 418 521 418 521 488.5 453.5 c 128,-1,19
 559 386 559 386 559 270 c 2,4,-1
411 215 m 2,20,-1
 411 296 l 2,21,22
 411 357 411 357 380.5 389 c 128,-1,23
 350 421 350 421 301 421 c 128,-1,24
 252 421 252 421 221.5 389 c 128,-1,25
 191 357 191 357 191 296 c 2,26,-1
 191 215 l 2,27,28
 191 154 191 154 221.5 122 c 128,-1,29
 252 90 252 90 301 90 c 128,-1,30
 350 90 350 90 380.5 122 c 128,-1,31
 411 154 411 154 411 215 c 2,20,-1
EndSplineSet
EndChar

StartChar: oslash
Encoding: 248 248 165
Width: 606
GlyphClass: 2
Flags: MW
HStem: -10 100<292 295 295 311> 421 100<295 311 311 313.5>
VStem: 45 148<241 270 270 296 203.5 349.5> 413 148<215 241 241 270 161.5 296 161.5 307.5>
LayerCount: 2
Fore
SplineSet
561 270 m 2,0,-1
 561 241 l 2,1,2
 561 125 561 125 490.5 57.5 c 128,-1,3
 420 -10 420 -10 311 -10 c 2,4,-1
 295 -10 l 2,5,6
 234 -10 234 -10 186 11 c 1,7,-1
 144 -55 l 1,8,-1
 69 -55 l 1,9,10
 113 15 113 15 131 43 c 1,11,12
 45 113 45 113 45 241 c 2,13,-1
 45 270 l 2,14,15
 45 386 45 386 115.5 453.5 c 128,-1,16
 186 521 186 521 295 521 c 2,17,-1
 311 521 l 2,18,19
 367 521 367 521 419 500 c 1,20,21
 452 551 452 551 462 568 c 1,22,-1
 537 568 l 1,23,-1
 474 468 l 1,24,25
 561 397 561 397 561 270 c 2,0,-1
203 156 m 1,26,27
 318 340 318 340 360 406 c 1,28,29
 336 421 336 421 295 421 c 128,-1,30
 254 421 254 421 223.5 389 c 128,-1,31
 193 357 193 357 193 296 c 2,32,-1
 193 215 l 2,33,34
 193 179 193 179 203 156 c 1,26,27
413 215 m 2,35,-1
 413 296 l 2,36,37
 413 328 413 328 403 355 c 1,38,-1
 245 104 l 1,39,40
 267 90 267 90 309.5 90 c 128,-1,41
 352 90 352 90 382.5 122 c 128,-1,42
 413 154 413 154 413 215 c 2,35,-1
EndSplineSet
EndChar

StartChar: otilde
Encoding: 245 245 166
Width: 606
GlyphClass: 2
Flags: MW
HStem: -10 100<272 295 295 311> 421 100<295 311 311 334> 596 86<365 406 365 423> 633 87<199 240>
VStem: 45 148<241 270 270 296 173 349.5> 413 148<215 241 241 270 161.5 296 161.5 338>
LayerCount: 2
Fore
SplineSet
445 720 m 1,0,-1
 510 720 l 1,1,2
 510 672 510 672 475 634 c 128,-1,3
 440 596 440 596 384 596 c 0,4,5
 351 596 351 596 295 614.5 c 128,-1,6
 239 633 239 633 213 633 c 0,7,8
 172 633 172 633 161 596 c 1,9,-1
 95 596 l 1,10,11
 95 643 95 643 130.5 681.5 c 128,-1,12
 166 720 166 720 222 720 c 0,13,14
 255 720 255 720 310.5 701 c 128,-1,15
 366 682 366 682 392 682 c 0,16,17
 433 682 433 682 445 720 c 1,0,-1
561 270 m 2,18,-1
 561 241 l 2,19,20
 561 125 561 125 490.5 57.5 c 128,-1,21
 420 -10 420 -10 311 -10 c 2,22,-1
 295 -10 l 2,23,24
 186 -10 186 -10 115.5 57.5 c 128,-1,25
 45 125 45 125 45 241 c 2,26,-1
 45 270 l 2,27,28
 45 386 45 386 115.5 453.5 c 128,-1,29
 186 521 186 521 295 521 c 2,30,-1
 311 521 l 2,31,32
 420 521 420 521 490.5 453.5 c 128,-1,33
 561 386 561 386 561 270 c 2,18,-1
413 215 m 2,34,-1
 413 296 l 2,35,36
 413 357 413 357 382.5 389 c 128,-1,37
 352 421 352 421 303 421 c 128,-1,38
 254 421 254 421 223.5 389 c 128,-1,39
 193 357 193 357 193 296 c 2,40,-1
 193 215 l 2,41,42
 193 154 193 154 223.5 122 c 128,-1,43
 254 90 254 90 303 90 c 128,-1,44
 352 90 352 90 382.5 122 c 128,-1,45
 413 154 413 154 413 215 c 2,34,-1
EndSplineSet
EndChar

StartChar: oe
Encoding: 339 339 167
Width: 946
GlyphClass: 2
Flags: MW
HStem: -10 100<270 293 293 309 628 655 655 671> 231 80<553 755 553 903 553 755> 421 100<293 309 309 332 655 671 671 692.5>
VStem: 43 148<241 270 270 296 173 349.5> 411 142<215 231 174.5 296 174.5 311 174.5 338> 755 148<231 342.5> 762 140<157 191>
LayerCount: 2
Fore
SplineSet
293 521 m 2,0,-1
 309 521 l 2,1,2
 412 521 412 521 482 459 c 1,3,4
 550 521 550 521 655 521 c 2,5,-1
 671 521 l 2,6,7
 767 521 767 521 835 463.5 c 128,-1,8
 903 406 903 406 903 307 c 2,9,-1
 903 231 l 1,10,-1
 553 231 l 1,11,-1
 553 207 l 2,12,13
 553 157 553 157 582.5 123.5 c 128,-1,14
 612 90 612 90 660.5 90 c 0,15,16
 709 90 709 90 735.5 115.5 c 128,-1,17
 762 141 762 141 762 191 c 1,18,-1
 902 191 l 1,19,20
 902 92 902 92 835 41 c 128,-1,21
 768 -10 768 -10 671 -10 c 2,22,-1
 655 -10 l 2,23,24
 549 -10 549 -10 482 51 c 1,25,26
 413 -10 413 -10 309 -10 c 2,27,-1
 293 -10 l 2,28,29
 184 -10 184 -10 113.5 57.5 c 128,-1,30
 43 125 43 125 43 241 c 2,31,-1
 43 270 l 2,32,33
 43 386 43 386 113.5 453.5 c 128,-1,34
 184 521 184 521 293 521 c 2,0,-1
411 215 m 2,35,-1
 411 296 l 2,36,37
 411 357 411 357 380.5 389 c 128,-1,38
 350 421 350 421 301 421 c 128,-1,39
 252 421 252 421 221.5 389 c 128,-1,40
 191 357 191 357 191 296 c 2,41,-1
 191 215 l 2,42,43
 191 154 191 154 221.5 122 c 128,-1,44
 252 90 252 90 301 90 c 128,-1,45
 350 90 350 90 380.5 122 c 128,-1,46
 411 154 411 154 411 215 c 2,35,-1
656 421 m 0,47,48
 612 421 612 421 584.5 390 c 128,-1,49
 557 359 557 359 553 311 c 1,50,-1
 755 311 l 1,51,52
 755 421 755 421 656 421 c 0,47,48
EndSplineSet
EndChar

StartChar: p
Encoding: 112 112 168
Width: 595
GlyphClass: 2
Flags: MW
HStem: -181 21G<66 212 66 66> -10 106<320 335 281 409.5> 421 100<306.5 335> 491 20G<66 181 181 181>
VStem: 66 146<-181 59 176.5 217 217 300> 404 148<217 247 247 258 161.5 300 161.5 340.5>
LayerCount: 2
Fore
SplineSet
181 511 m 1,0,-1
 196 447 l 1,1,2
 252 521 252 521 342.5 521 c 0,3,4
 433 521 433 521 492.5 454 c 128,-1,5
 552 387 552 387 552 258 c 2,6,-1
 552 247 l 2,7,8
 552 124 552 124 496.5 57 c 128,-1,9
 441 -10 441 -10 352.5 -10 c 0,10,11
 264 -10 264 -10 212 59 c 1,12,-1
 212 -181 l 1,13,-1
 66 -181 l 1,14,-1
 66 511 l 1,15,-1
 181 511 l 1,0,-1
404 217 m 2,16,-1
 404 300 l 2,17,18
 404 358 404 358 377 389.5 c 128,-1,19
 350 421 350 421 308 421 c 128,-1,20
 266 421 266 421 239 389.5 c 128,-1,21
 212 358 212 358 212 300 c 2,22,-1
 212 217 l 2,23,24
 212 158 212 158 239 127 c 128,-1,25
 266 96 266 96 308 96 c 128,-1,26
 350 96 350 96 377 127 c 128,-1,27
 404 158 404 158 404 217 c 2,16,-1
EndSplineSet
EndChar

StartChar: thorn
Encoding: 254 254 169
Width: 597
GlyphClass: 2
Flags: MW
HStem: -181 21G<66 212 66 66> -10 106<320 335 281 409.5> 421 100<311.5 335>
VStem: 66 146<-181 59 176.5 217 217 300 466 720> 404 148<217 247 247 258 161.5 300 161.5 340.5>
LayerCount: 2
Fore
SplineSet
212 720 m 1,0,-1
 212 466 l 1,1,2
 264 521 264 521 340 521 c 0,3,4
 433 521 433 521 492.5 454 c 128,-1,5
 552 387 552 387 552 258 c 2,6,-1
 552 247 l 2,7,8
 552 124 552 124 496.5 57 c 128,-1,9
 441 -10 441 -10 352.5 -10 c 0,10,11
 264 -10 264 -10 212 59 c 1,12,-1
 212 -181 l 1,13,-1
 66 -181 l 1,14,-1
 66 720 l 1,15,-1
 212 720 l 1,0,-1
404 217 m 2,16,-1
 404 300 l 2,17,18
 404 358 404 358 377 389.5 c 128,-1,19
 350 421 350 421 308 421 c 128,-1,20
 266 421 266 421 239 389.5 c 128,-1,21
 212 358 212 358 212 300 c 2,22,-1
 212 217 l 2,23,24
 212 158 212 158 239 127 c 128,-1,25
 266 96 266 96 308 96 c 128,-1,26
 350 96 350 96 377 127 c 128,-1,27
 404 158 404 158 404 217 c 2,16,-1
EndSplineSet
EndChar

StartChar: q
Encoding: 113 113 170
Width: 595
GlyphClass: 2
Flags: MW
HStem: -180 21G<382 382 382 528> -10 106<259 274> 421 100<259 291 195.5 313> 491 20G<475 528 528 528>
VStem: 42 148<247 258 258 300 176.5 348> 382 146<-180 59 59 59 217 300 300 340.5>
LayerCount: 2
Fore
SplineSet
382 -180 m 1,0,-1
 382 59 l 1,1,2
 330 -10 330 -10 241.5 -10 c 0,3,4
 153 -10 153 -10 97.5 57 c 128,-1,5
 42 124 42 124 42 247 c 2,6,-1
 42 258 l 2,7,8
 42 387 42 387 101.5 454 c 128,-1,9
 161 521 161 521 254 521 c 0,10,11
 365 521 365 521 424 433 c 1,12,-1
 475 511 l 1,13,-1
 528 511 l 1,14,-1
 528 -180 l 1,15,-1
 382 -180 l 1,0,-1
190 300 m 2,16,-1
 190 217 l 2,17,18
 190 158 190 158 217 127 c 128,-1,19
 244 96 244 96 286 96 c 128,-1,20
 328 96 328 96 355 127 c 128,-1,21
 382 158 382 158 382 217 c 2,22,-1
 382 300 l 2,23,24
 382 358 382 358 355 389.5 c 128,-1,25
 328 421 328 421 286 421 c 128,-1,26
 244 421 244 421 217 389.5 c 128,-1,27
 190 358 190 358 190 300 c 2,16,-1
EndSplineSet
EndChar

StartChar: r
Encoding: 114 114 171
Width: 489
GlyphClass: 2
Flags: MW
HStem: 0 21G<66 210 66 66> 412 109<287 309> 491 20G<66 174 174 174>
VStem: 66 144<0 316 0 511> 353 126<313 409.5 336 409.5>
AnchorPoint: "Bottom" 138 0 basechar 0
LayerCount: 2
Fore
SplineSet
353 313 m 1,0,-1
 353 336 l 2,1,2
 353 367 353 367 336 389.5 c 128,-1,3
 319 412 319 412 282.5 412 c 128,-1,4
 246 412 246 412 228 384.5 c 128,-1,5
 210 357 210 357 210 316 c 2,6,-1
 210 0 l 1,7,-1
 66 0 l 1,8,-1
 66 511 l 1,9,-1
 174 511 l 1,10,-1
 192 436 l 1,11,12
 196.191616766 450.670658683 196.191616766 450.670658683 220.595808383 474.335329341 c 0,13,14
 268.71875 521 268.71875 521 336.359375 521 c 128,-1,15
 404 521 404 521 441.5 478 c 128,-1,16
 479 435 479 435 479 364 c 1,17,-1
 475 313 l 1,18,-1
 353 313 l 1,0,-1
EndSplineSet
EndChar

StartChar: racute
Encoding: 341 341 172
Width: 489
GlyphClass: 2
Flags: MW
HStem: 0 21G<66 210 66 66> 412 109<287 309> 491 20G<66 174 174 174> 575 145<176 185 84 305>
VStem: 66 144<0 316 0 511> 353 126<313 409.5 336 409.5>
AnchorPoint: "Bottom" 138 0 basechar 0
LayerCount: 2
Fore
SplineSet
176 720 m 1,0,-1
 305 720 l 1,1,-1
 306 717 l 1,2,-1
 185 575 l 1,3,-1
 84 575 l 1,4,-1
 176 720 l 1,0,-1
353 313 m 1,5,-1
 353 336 l 2,6,7
 353 367 353 367 336 389.5 c 128,-1,8
 319 412 319 412 282.5 412 c 128,-1,9
 246 412 246 412 228 384.5 c 128,-1,10
 210 357 210 357 210 316 c 2,11,-1
 210 0 l 1,12,-1
 66 0 l 1,13,-1
 66 511 l 1,14,-1
 174 511 l 1,15,-1
 192 436 l 1,16,17
 196.191616766 450.670658683 196.191616766 450.670658683 220.595808383 474.335329341 c 0,18,19
 268.71875 521 268.71875 521 336.359375 521 c 128,-1,20
 404 521 404 521 441.5 478 c 128,-1,21
 479 435 479 435 479 364 c 1,22,-1
 475 313 l 1,23,-1
 353 313 l 1,5,-1
EndSplineSet
EndChar

StartChar: rcaron
Encoding: 345 345 173
Width: 489
GlyphClass: 2
Flags: MW
HStem: 0 21G<66 210 66 66> 412 109<287 309> 491 20G<66 174 174 174> 575 145<-24 217 -24 114>
VStem: 66 144<0 316 0 511> 353 126<313 409.5 336 409.5>
AnchorPoint: "Bottom" 138 0 basechar 0
LayerCount: 2
Fore
SplineSet
81 720 m 1,0,-1
 166 637 l 1,1,-1
 250 720 l 1,2,-1
 354 720 l 1,3,4
 305 669 305 669 217 575 c 1,5,-1
 114 575 l 1,6,-1
 -24 720 l 1,7,-1
 81 720 l 1,0,-1
353 313 m 1,8,-1
 353 336 l 2,9,10
 353 367 353 367 336 389.5 c 128,-1,11
 319 412 319 412 282.5 412 c 128,-1,12
 246 412 246 412 228 384.5 c 128,-1,13
 210 357 210 357 210 316 c 2,14,-1
 210 0 l 1,15,-1
 66 0 l 1,16,-1
 66 511 l 1,17,-1
 174 511 l 1,18,-1
 192 436 l 1,19,20
 196.191616766 450.670658683 196.191616766 450.670658683 220.595808383 474.335329341 c 0,21,22
 268.71875 521 268.71875 521 336.359375 521 c 128,-1,23
 404 521 404 521 441.5 478 c 128,-1,24
 479 435 479 435 479 364 c 1,25,-1
 475 313 l 1,26,-1
 353 313 l 1,8,-1
EndSplineSet
EndChar

StartChar: rcommaaccent
Encoding: 343 343 174
Width: 489
GlyphClass: 2
Flags: MW
HStem: -167 137<71 134 71 217> 0 21G<66 210 66 66> 412 109<287 309> 491 20G<66 174 174 174>
VStem: 66 144<0 316 0 511> 353 126<313 409.5 336 409.5>
AnchorPoint: "Bottom" 138 0 basechar 0
LayerCount: 2
Fore
SplineSet
353 313 m 1,0,-1
 353 336 l 2,1,2
 353 367 353 367 336 389.5 c 128,-1,3
 319 412 319 412 282.5 412 c 128,-1,4
 246 412 246 412 228 384.5 c 128,-1,5
 210 357 210 357 210 316 c 2,6,-1
 210 0 l 1,7,-1
 66 0 l 1,8,-1
 66 511 l 1,9,-1
 174 511 l 1,10,-1
 192 436 l 1,11,12
 196.191616766 450.670658683 196.191616766 450.670658683 220.595808383 474.335329341 c 0,13,14
 268.71875 521 268.71875 521 336.359375 521 c 128,-1,15
 404 521 404 521 441.5 478 c 128,-1,16
 479 435 479 435 479 364 c 1,17,-1
 475 313 l 1,18,-1
 353 313 l 1,0,-1
134 -167 m 1,19,-1
 71 -167 l 1,20,-1
 71 -30 l 1,21,-1
 217 -30 l 1,22,-1
 217 -143 l 1,23,-1
 192 -250 l 1,24,-1
 118 -250 l 1,25,-1
 134 -167 l 1,19,-1
EndSplineSet
EndChar

StartChar: s
Encoding: 115 115 175
Width: 539
GlyphClass: 2
Flags: MW
HStem: -10 100<239.5 244 244 277> 201.6 118.5 421 100<267 287 287 299.5>
VStem: 29 129<130.5 148> 45 133<329.5 390 329.5 413> 363 130<377.5 382> 369 135<120.5 190.5>
AnchorPoint: "Bottom" 270 0 basechar 0
LayerCount: 2
Fore
SplineSet
29 143 m 1,0,-1
 30 163 l 1,1,-1
 158 163 l 1,2,-1
 158 156 l 2,3,4
 158 90 158 90 266 90 c 0,5,6
 306 90 306 90 337.5 102 c 128,-1,7
 369 114 369 114 369 138.5 c 128,-1,8
 369 163 369 163 345 177 c 128,-1,9
 321 191 321 191 285 195.5 c 128,-1,10
 249 200 249 200 207 209.5 c 128,-1,11
 165 219 165 219 129 232 c 128,-1,12
 93 245 93 245 69 277.5 c 128,-1,13
 45 310 45 310 45 359 c 0,14,15
 45 436 45 436 109.5 478.5 c 128,-1,16
 174 521 174 521 267 521 c 2,17,-1
 287 521 l 2,18,19
 369 521 369 521 431 482.5 c 128,-1,20
 493 444 493 444 493 383 c 0,21,22
 493 375 493 375 491 361 c 1,23,-1
 363 361 l 1,24,25
 363 421 363 421 271 421 c 0,26,27
 229 421 229 421 203.5 409 c 128,-1,28
 178 397 178 397 178 374 c 128,-1,29
 178 351 178 351 211.5 339 c 128,-1,30
 245 327 245 327 293 321 c 128,-1,31
 341 315 341 315 389 303 c 128,-1,32
 437 291 437 291 470.5 256 c 128,-1,33
 504 221 504 221 504 160.5 c 128,-1,34
 504 100 504 100 470.5 60 c 128,-1,35
 437 20 437 20 388.5 5 c 128,-1,36
 340 -10 340 -10 277 -10 c 2,37,-1
 244 -10 l 2,38,39
 149 -10 149 -10 89 32.5 c 128,-1,40
 29 75 29 75 29 143 c 1,0,-1
EndSplineSet
EndChar

StartChar: sacute
Encoding: 347 347 176
Width: 539
GlyphClass: 2
Flags: MW
HStem: -10 100<239.5 244 244 277> 201.6 118.5 421 100<267 287 287 299.5> 575 145<281 290 189 410>
VStem: 29 129<130.5 148> 45 133<329.5 390 329.5 413> 363 130<377.5 382> 369 135<120.5 190.5>
AnchorPoint: "Bottom" 270 0 basechar 0
LayerCount: 2
Fore
SplineSet
281 720 m 1,0,-1
 410 720 l 1,1,-1
 411 717 l 1,2,-1
 290 575 l 1,3,-1
 189 575 l 1,4,-1
 281 720 l 1,0,-1
29 143 m 1,5,-1
 30 163 l 1,6,-1
 158 163 l 1,7,-1
 158 156 l 2,8,9
 158 90 158 90 266 90 c 0,10,11
 306 90 306 90 337.5 102 c 128,-1,12
 369 114 369 114 369 138.5 c 128,-1,13
 369 163 369 163 345 177 c 128,-1,14
 321 191 321 191 285 195.5 c 128,-1,15
 249 200 249 200 207 209.5 c 128,-1,16
 165 219 165 219 129 232 c 128,-1,17
 93 245 93 245 69 277.5 c 128,-1,18
 45 310 45 310 45 359 c 0,19,20
 45 436 45 436 109.5 478.5 c 128,-1,21
 174 521 174 521 267 521 c 2,22,-1
 287 521 l 2,23,24
 369 521 369 521 431 482.5 c 128,-1,25
 493 444 493 444 493 383 c 0,26,27
 493 375 493 375 491 361 c 1,28,-1
 363 361 l 1,29,30
 363 421 363 421 271 421 c 0,31,32
 229 421 229 421 203.5 409 c 128,-1,33
 178 397 178 397 178 374 c 128,-1,34
 178 351 178 351 211.5 339 c 128,-1,35
 245 327 245 327 293 321 c 128,-1,36
 341 315 341 315 389 303 c 128,-1,37
 437 291 437 291 470.5 256 c 128,-1,38
 504 221 504 221 504 160.5 c 128,-1,39
 504 100 504 100 470.5 60 c 128,-1,40
 437 20 437 20 388.5 5 c 128,-1,41
 340 -10 340 -10 277 -10 c 2,42,-1
 244 -10 l 2,43,44
 149 -10 149 -10 89 32.5 c 128,-1,45
 29 75 29 75 29 143 c 1,5,-1
EndSplineSet
EndChar

StartChar: scaron
Encoding: 353 353 177
Width: 541
GlyphClass: 2
Flags: MW
HStem: -10 100<239.5 244 244 277> 201.6 118.5 421 100<267 287 287 299.5> 575 145<80 321 80 218>
VStem: 29 129<130.5 148> 45 133<329.5 390 329.5 413> 363 130<377.5 382> 369 135<120.5 190.5>
LayerCount: 2
Fore
SplineSet
185 720 m 1,0,-1
 270 637 l 1,1,-1
 354 720 l 1,2,-1
 458 720 l 1,3,4
 409 669 409 669 321 575 c 1,5,-1
 218 575 l 1,6,-1
 80 720 l 1,7,-1
 185 720 l 1,0,-1
29 143 m 1,8,-1
 30 163 l 1,9,-1
 158 163 l 1,10,-1
 158 156 l 2,11,12
 158 90 158 90 266 90 c 0,13,14
 306 90 306 90 337.5 102 c 128,-1,15
 369 114 369 114 369 138.5 c 128,-1,16
 369 163 369 163 345 177 c 128,-1,17
 321 191 321 191 285 195.5 c 128,-1,18
 249 200 249 200 207 209.5 c 128,-1,19
 165 219 165 219 129 232 c 128,-1,20
 93 245 93 245 69 277.5 c 128,-1,21
 45 310 45 310 45 359 c 0,22,23
 45 436 45 436 109.5 478.5 c 128,-1,24
 174 521 174 521 267 521 c 2,25,-1
 287 521 l 2,26,27
 369 521 369 521 431 482.5 c 128,-1,28
 493 444 493 444 493 383 c 0,29,30
 493 375 493 375 491 361 c 1,31,-1
 363 361 l 1,32,33
 363 421 363 421 271 421 c 0,34,35
 229 421 229 421 203.5 409 c 128,-1,36
 178 397 178 397 178 374 c 128,-1,37
 178 351 178 351 211.5 339 c 128,-1,38
 245 327 245 327 293 321 c 128,-1,39
 341 315 341 315 389 303 c 128,-1,40
 437 291 437 291 470.5 256 c 128,-1,41
 504 221 504 221 504 160.5 c 128,-1,42
 504 100 504 100 470.5 60 c 128,-1,43
 437 20 437 20 388.5 5 c 128,-1,44
 340 -10 340 -10 277 -10 c 2,45,-1
 244 -10 l 2,46,47
 149 -10 149 -10 89 32.5 c 128,-1,48
 29 75 29 75 29 143 c 1,8,-1
EndSplineSet
EndChar

StartChar: scedilla
Encoding: 351 351 178
Width: 539
GlyphClass: 2
Flags: MW
HStem: -197 55<245.5 273.5 236.5 286> -68 51<244 264 244 267> -10 100<239.5 244 244 277> 201.6 118.5 421 100<267 287 287 299.5>
VStem: 29 129<130.5 148> 45 133<329.5 390 329.5 413> 309 74<-117.5 -92.5> 363 130<377.5 382> 369 135<120.5 190.5>
AnchorPoint: "Bottom" 270 0 basechar 0
LayerCount: 2
Fore
SplineSet
29 143 m 1,0,-1
 30 163 l 1,1,-1
 158 163 l 1,2,-1
 158 156 l 2,3,4
 158 90 158 90 266 90 c 0,5,6
 306 90 306 90 337.5 102 c 128,-1,7
 369 114 369 114 369 138.5 c 128,-1,8
 369 163 369 163 345 177 c 128,-1,9
 321 191 321 191 285 195.5 c 128,-1,10
 249 200 249 200 207 209.5 c 128,-1,11
 165 219 165 219 129 232 c 128,-1,12
 93 245 93 245 69 277.5 c 128,-1,13
 45 310 45 310 45 359 c 0,14,15
 45 436 45 436 109.5 478.5 c 128,-1,16
 174 521 174 521 267 521 c 2,17,-1
 287 521 l 2,18,19
 369 521 369 521 431 482.5 c 128,-1,20
 493 444 493 444 493 383 c 0,21,22
 493 375 493 375 491 361 c 1,23,-1
 363 361 l 1,24,25
 363 421 363 421 271 421 c 0,26,27
 229 421 229 421 203.5 409 c 128,-1,28
 178 397 178 397 178 374 c 128,-1,29
 178 351 178 351 211.5 339 c 128,-1,30
 245 327 245 327 293 321 c 128,-1,31
 341 315 341 315 389 303 c 128,-1,32
 437 291 437 291 470.5 256 c 128,-1,33
 504 221 504 221 504 160.5 c 128,-1,34
 504 100 504 100 470.5 60 c 128,-1,35
 437 20 437 20 388.5 5 c 128,-1,36
 340 -10 340 -10 277 -10 c 2,37,-1
 244 -10 l 2,38,39
 149 -10 149 -10 89 32.5 c 128,-1,40
 29 75 29 75 29 143 c 1,0,-1
177 -116 m 1,41,42
 221.571428571 -142 221.571428571 -142 260 -142 c 0,43,44
 309 -142 309 -142 309 -104 c 0,45,46
 309 -68 309 -68 264 -68 c 2,47,-1
 244 -68 l 1,48,-1
 244 -17 l 1,49,-1
 267 -17 l 2,50,51
 383 -17 383 -17 383 -107 c 0,52,53
 383 -142 383 -142 361 -163.5 c 128,-1,54
 339 -185 339 -185 315 -191 c 128,-1,55
 291 -197 291 -197 264 -197 c 0,56,57
 197 -197 197 -197 156 -168 c 1,58,-1
 177 -116 l 1,41,42
EndSplineSet
EndChar

StartChar: scommaaccent
Encoding: 537 537 179
Width: 539
GlyphClass: 2
Flags: MW
HStem: -167 137<203 266 203 349> -10 100<239.5 244 244 277> 201.6 118.5 421 100<267 287 287 299.5>
VStem: 29 129<130.5 148> 45 133<329.5 390 329.5 413> 203 146<-143 -30 -143 -30 -143 -30> 363 130<377.5 382> 369 135<120.5 190.5>
AnchorPoint: "Bottom" 270 0 basechar 0
LayerCount: 2
Fore
SplineSet
29 143 m 1,0,-1
 30 163 l 1,1,-1
 158 163 l 1,2,-1
 158 156 l 2,3,4
 158 90 158 90 266 90 c 0,5,6
 306 90 306 90 337.5 102 c 128,-1,7
 369 114 369 114 369 138.5 c 128,-1,8
 369 163 369 163 345 177 c 128,-1,9
 321 191 321 191 285 195.5 c 128,-1,10
 249 200 249 200 207 209.5 c 128,-1,11
 165 219 165 219 129 232 c 128,-1,12
 93 245 93 245 69 277.5 c 128,-1,13
 45 310 45 310 45 359 c 0,14,15
 45 436 45 436 109.5 478.5 c 128,-1,16
 174 521 174 521 267 521 c 2,17,-1
 287 521 l 2,18,19
 369 521 369 521 431 482.5 c 128,-1,20
 493 444 493 444 493 383 c 0,21,22
 493 375 493 375 491 361 c 1,23,-1
 363 361 l 1,24,25
 363 421 363 421 271 421 c 0,26,27
 229 421 229 421 203.5 409 c 128,-1,28
 178 397 178 397 178 374 c 128,-1,29
 178 351 178 351 211.5 339 c 128,-1,30
 245 327 245 327 293 321 c 128,-1,31
 341 315 341 315 389 303 c 128,-1,32
 437 291 437 291 470.5 256 c 128,-1,33
 504 221 504 221 504 160.5 c 128,-1,34
 504 100 504 100 470.5 60 c 128,-1,35
 437 20 437 20 388.5 5 c 128,-1,36
 340 -10 340 -10 277 -10 c 2,37,-1
 244 -10 l 2,38,39
 149 -10 149 -10 89 32.5 c 128,-1,40
 29 75 29 75 29 143 c 1,0,-1
266 -167 m 1,41,-1
 203 -167 l 1,42,-1
 203 -30 l 1,43,-1
 349 -30 l 1,44,-1
 349 -143 l 1,45,-1
 324 -250 l 1,46,-1
 250 -250 l 1,47,-1
 266 -167 l 1,41,-1
EndSplineSet
EndChar

StartChar: germandbls
Encoding: 223 223 180
Width: 622
GlyphClass: 2
Flags: MW
HStem: -66 166<85 330> 0 100<279 330 330 352 279 330> 331 100<279 325 325 330 279 325> 411 100<25 85 25 85> 628 100<296 351.5>
VStem: 85 146<-66 411 411 411 511 511> 419 142<515.5 562.5> 440 145<184.5 252 145.5 257>
LayerCount: 2
Fore
SplineSet
585 214 m 0,0,1
 585 114 585 114 520 57 c 128,-1,2
 455 0 455 0 352 0 c 2,3,-1
 279 0 l 1,4,-1
 279 100 l 1,5,-1
 330 100 l 2,6,7
 377 100 377 100 408.5 133.5 c 128,-1,8
 440 167 440 167 440 219.5 c 0,9,10
 440 272 440 272 408.5 301.5 c 128,-1,11
 377 331 377 331 330 331 c 2,12,-1
 279 331 l 1,13,-1
 279 431 l 1,14,-1
 325 431 l 2,15,16
 365 431 365 431 392 460 c 128,-1,17
 419 489 419 489 419 532.5 c 0,18,19
 419 576 419 576 392 602 c 128,-1,20
 365 628 365 628 323.5 628 c 0,21,22
 282 628 282 628 256.5 599 c 128,-1,23
 231 570 231 570 231 526 c 2,24,-1
 231 -66 l 1,25,-1
 85 -66 l 1,26,-1
 85 411 l 1,27,-1
 25 411 l 1,28,-1
 25 511 l 1,29,-1
 85 511 l 1,30,31
 88 610 88 610 159 669 c 128,-1,32
 230 728 230 728 327 728 c 0,33,34
 424 728 424 728 492.5 681.5 c 128,-1,35
 561 635 561 635 561 550 c 0,36,37
 561 498 561 498 534 454.5 c 128,-1,38
 507 411 507 411 464 393 c 1,39,-1
 465 388 l 1,40,41
 518 369 518 369 551.5 320 c 128,-1,42
 585 271 585 271 585 214 c 0,0,1
EndSplineSet
EndChar

StartChar: t
Encoding: 116 116 181
Width: 371
GlyphClass: 2
Flags: MW
HStem: -10 100<184 288.5> 411 100<22 78 22 83 224 343>
VStem: 78 146<133 158 158 411>
AnchorPoint: "Bottom" 186 0 basechar 0
LayerCount: 2
Fore
SplineSet
343 103 m 1,0,-1
 343 9 l 1,1,2
 296 -10 296 -10 226 -10 c 0,3,4
 156 -10 156 -10 117 23 c 128,-1,5
 78 56 78 56 78 133 c 2,6,-1
 78 411 l 1,7,-1
 22 411 l 1,8,-1
 22 511 l 1,9,-1
 83 511 l 1,10,-1
 134 674 l 1,11,-1
 224 674 l 1,12,-1
 224 511 l 1,13,-1
 343 511 l 1,14,-1
 343 411 l 1,15,-1
 224 411 l 1,16,-1
 224 158 l 2,17,18
 224 118 224 118 239.5 104 c 128,-1,19
 255 90 255 90 284 90 c 0,20,21
 313 90 313 90 343 103 c 1,0,-1
EndSplineSet
EndChar

StartChar: tcaron
Encoding: 357 357 182
Width: 371
GlyphClass: 2
Flags: MW
HStem: -10 21G<184 249> -10 100<184 288.5> 411 100<22 78 22 83 224 343> 539 147<350 413 350 496>
VStem: 78 146<133 158 158 411> 350 146<563 686 563 686 563 686>
AnchorPoint: "Bottom" 186 0 basechar 0
LayerCount: 2
Fore
SplineSet
454 395 m 1,0,-1
 381 395 l 1,1,2
 391 443 391 443 413 539 c 1,3,-1
 350 539 l 1,4,-1
 350 686 l 1,5,-1
 496 686 l 1,6,-1
 496 563 l 1,7,-1
 454 395 l 1,0,-1
343 103 m 1,8,-1
 343 9 l 1,9,10
 296 -10 296 -10 226 -10 c 0,11,12
 156 -10 156 -10 117 23 c 128,-1,13
 78 56 78 56 78 133 c 2,14,-1
 78 411 l 1,15,-1
 22 411 l 1,16,-1
 22 511 l 1,17,-1
 83 511 l 1,18,-1
 134 674 l 1,19,-1
 224 674 l 1,20,-1
 224 511 l 1,21,-1
 343 511 l 1,22,-1
 343 411 l 1,23,-1
 224 411 l 1,24,-1
 224 158 l 2,25,26
 224 118 224 118 239.5 104 c 128,-1,27
 255 90 255 90 284 90 c 0,28,29
 313 90 313 90 343 103 c 1,8,-1
EndSplineSet
EndChar

StartChar: tcedilla
Encoding: 355 355 183
Width: 371
GlyphClass: 2
Flags: MW
HStem: -197 55<161.5 189.5 152.5 202> -68 51<160 180 160 183> -10 21G<184 249> -10 100<184 288.5> 411 100<22 78 22 83 224 343>
VStem: 78 146<133 158 158 411> 160 183<-68 103 -17 103> 225 74<-117.5 -92.5>
AnchorPoint: "Bottom" 186 0 basechar 0
LayerCount: 2
Fore
SplineSet
343 103 m 1,0,-1
 343 9 l 1,1,2
 296 -10 296 -10 226 -10 c 128,-1,3
 156 -10 156 -10 117 23 c 128,-1,4
 78 56 78 56 78 133 c 2,5,-1
 78 411 l 1,6,-1
 22 411 l 1,7,-1
 22 511 l 1,8,-1
 83 511 l 1,9,-1
 134 674 l 1,10,-1
 224 674 l 1,11,-1
 224 511 l 1,12,-1
 343 511 l 1,13,-1
 343 411 l 1,14,-1
 224 411 l 1,15,-1
 224 158 l 2,16,17
 224 118 224 118 239.5 104 c 128,-1,18
 255 90 255 90 284 90 c 128,-1,19
 313 90 313 90 343 103 c 1,0,-1
93 -116 m 1,20,21
 137.571428571 -142 137.571428571 -142 176 -142 c 0,22,23
 225 -142 225 -142 225 -104 c 0,24,25
 225 -68 225 -68 180 -68 c 2,26,-1
 160 -68 l 1,27,-1
 160 -17 l 1,28,-1
 183 -17 l 2,29,30
 299 -17 299 -17 299 -107 c 0,31,32
 299 -142 299 -142 277 -163.5 c 128,-1,33
 255 -185 255 -185 231 -191 c 128,-1,34
 207 -197 207 -197 180 -197 c 0,35,36
 113 -197 113 -197 72 -168 c 1,37,-1
 93 -116 l 1,20,21
EndSplineSet
EndChar

StartChar: tcommaaccent
Encoding: 539 539 184
Width: 371
GlyphClass: 2
Flags: MW
HStem: -167 137<119 182 119 265> -10 21G<184 249> -10 100<184 288.5> 411 100<22 78 22 83 224 343>
VStem: 78 146<133 158 158 411> 119 146<-143 -30 -143 -30 -143 -30>
AnchorPoint: "Bottom" 186 0 basechar 0
LayerCount: 2
Fore
SplineSet
343 103 m 1,0,-1
 343 9 l 1,1,2
 296 -10 296 -10 226 -10 c 0,3,4
 156 -10 156 -10 117 23 c 128,-1,5
 78 56 78 56 78 133 c 2,6,-1
 78 411 l 1,7,-1
 22 411 l 1,8,-1
 22 511 l 1,9,-1
 83 511 l 1,10,-1
 134 674 l 1,11,-1
 224 674 l 1,12,-1
 224 511 l 1,13,-1
 343 511 l 1,14,-1
 343 411 l 1,15,-1
 224 411 l 1,16,-1
 224 158 l 2,17,18
 224 118 224 118 239.5 104 c 128,-1,19
 255 90 255 90 284 90 c 0,20,21
 313 90 313 90 343 103 c 1,0,-1
182 -167 m 1,22,-1
 119 -167 l 1,23,-1
 119 -30 l 1,24,-1
 265 -30 l 1,25,-1
 265 -143 l 1,26,-1
 240 -250 l 1,27,-1
 166 -250 l 1,28,-1
 182 -167 l 1,22,-1
EndSplineSet
EndChar

StartChar: u
Encoding: 117 117 185
Width: 612
GlyphClass: 2
Flags: MW
HStem: -10 100<478 567.5> -10 106<266.5 279> 491 20G<64 210 210 210 385 531 531 531>
VStem: 64 146<160 186 186 511> 385 146<197 511>
LayerCount: 2
Fore
SplineSet
531 511 m 1,0,-1
 531 120 l 2,1,2
 531 105 531 105 540 97.5 c 128,-1,3
 549 90 549 90 564 90 c 0,4,5
 579 90 579 90 601 101 c 1,6,-1
 601 11 l 1,7,8
 564 -10 564 -10 513 -10 c 0,9,10
 413 -10 413 -10 397 63 c 1,11,12
 334 -10 334 -10 249.5 -10 c 0,13,14
 165 -10 165 -10 114.5 32 c 128,-1,15
 64 74 64 74 64 154 c 2,16,-1
 64 511 l 1,17,-1
 210 511 l 1,18,-1
 210 186 l 2,19,20
 210 147 210 147 232.5 121.5 c 128,-1,21
 255 96 255 96 292 96 c 0,22,23
 329 96 329 96 357 125.5 c 128,-1,24
 385 155 385 155 385 197 c 2,25,-1
 385 511 l 1,26,-1
 531 511 l 1,0,-1
EndSplineSet
EndChar

StartChar: uacute
Encoding: 250 250 186
Width: 611
GlyphClass: 2
Flags: MW
HStem: -10 100<478 567.5> -10 106<266.5 279> 491 20G<64 210 210 210 385 531 531 531> 575 145<335 344 243 464>
VStem: 64 146<160 186 186 511> 385 146<197 511>
LayerCount: 2
Fore
SplineSet
335 720 m 1,0,-1
 464 720 l 1,1,-1
 465 717 l 1,2,-1
 344 575 l 1,3,-1
 243 575 l 1,4,-1
 335 720 l 1,0,-1
531 511 m 1,5,-1
 531 120 l 2,6,7
 531 105 531 105 540 97.5 c 128,-1,8
 549 90 549 90 564 90 c 0,9,10
 579 90 579 90 601 101 c 1,11,-1
 601 11 l 1,12,13
 564 -10 564 -10 513 -10 c 0,14,15
 413 -10 413 -10 397 63 c 1,16,17
 334 -10 334 -10 249.5 -10 c 0,18,19
 165 -10 165 -10 114.5 32 c 128,-1,20
 64 74 64 74 64 154 c 2,21,-1
 64 511 l 1,22,-1
 210 511 l 1,23,-1
 210 186 l 2,24,25
 210 147 210 147 232.5 121.5 c 128,-1,26
 255 96 255 96 292 96 c 0,27,28
 329 96 329 96 357 125.5 c 128,-1,29
 385 155 385 155 385 197 c 2,30,-1
 385 511 l 1,31,-1
 531 511 l 1,5,-1
EndSplineSet
EndChar

StartChar: ucircumflex
Encoding: 251 251 187
Width: 611
GlyphClass: 2
Flags: MW
HStem: -10 100<478 567.5> -10 106<266.5 279> 491 20G<64 210 210 210 385 531 531 531> 575 145<107 348 107 348 245 485 245 380>
VStem: 64 146<160 186 186 511> 385 146<197 511>
LayerCount: 2
Fore
SplineSet
245 720 m 1,0,-1
 348 720 l 1,1,2
 436 626 436 626 485 575 c 1,3,-1
 380 575 l 1,4,-1
 296 658 l 1,5,-1
 211 575 l 1,6,-1
 107 575 l 1,7,-1
 245 720 l 1,0,-1
531 511 m 1,8,-1
 531 120 l 2,9,10
 531 105 531 105 540 97.5 c 128,-1,11
 549 90 549 90 564 90 c 0,12,13
 579 90 579 90 601 101 c 1,14,-1
 601 11 l 1,15,16
 564 -10 564 -10 513 -10 c 0,17,18
 413 -10 413 -10 397 63 c 1,19,20
 334 -10 334 -10 249.5 -10 c 0,21,22
 165 -10 165 -10 114.5 32 c 128,-1,23
 64 74 64 74 64 154 c 2,24,-1
 64 511 l 1,25,-1
 210 511 l 1,26,-1
 210 186 l 2,27,28
 210 147 210 147 232.5 121.5 c 128,-1,29
 255 96 255 96 292 96 c 0,30,31
 329 96 329 96 357 125.5 c 128,-1,32
 385 155 385 155 385 197 c 2,33,-1
 385 511 l 1,34,-1
 531 511 l 1,8,-1
EndSplineSet
EndChar

StartChar: udieresis
Encoding: 252 252 188
Width: 611
GlyphClass: 2
Flags: MW
HStem: -10 100<478 567.5> -10 106<266.5 279> 491 20G<64 210 210 210 385 531 531 531> 598 122<135 256 135 256 135 339 339 460>
VStem: 64 146<160 186 186 511> 135 121<598 720 598 720> 339 121<598 720 598 720> 385 146<197 511>
LayerCount: 2
Fore
SplineSet
256 720 m 1,0,-1
 256 598 l 1,1,-1
 135 598 l 1,2,-1
 135 720 l 1,3,-1
 256 720 l 1,0,-1
460 720 m 1,4,-1
 460 598 l 1,5,-1
 339 598 l 1,6,-1
 339 720 l 1,7,-1
 460 720 l 1,4,-1
531 511 m 1,8,-1
 531 120 l 2,9,10
 531 105 531 105 540 97.5 c 128,-1,11
 549 90 549 90 564 90 c 0,12,13
 579 90 579 90 601 101 c 1,14,-1
 601 11 l 1,15,16
 564 -10 564 -10 513 -10 c 0,17,18
 413 -10 413 -10 397 63 c 1,19,20
 334 -10 334 -10 249.5 -10 c 0,21,22
 165 -10 165 -10 114.5 32 c 128,-1,23
 64 74 64 74 64 154 c 2,24,-1
 64 511 l 1,25,-1
 210 511 l 1,26,-1
 210 186 l 2,27,28
 210 147 210 147 232.5 121.5 c 128,-1,29
 255 96 255 96 292 96 c 0,30,31
 329 96 329 96 357 125.5 c 128,-1,32
 385 155 385 155 385 197 c 2,33,-1
 385 511 l 1,34,-1
 531 511 l 1,8,-1
EndSplineSet
EndChar

StartChar: ugrave
Encoding: 249 249 189
Width: 611
GlyphClass: 2
Flags: MW
HStem: -10 100<478 567.5> -10 106<266.5 279> 491 20G<64 210 210 210 385 531 531 531> 575 145<252 261 133 354 252 252>
VStem: 64 146<160 186 186 511> 385 146<197 511>
LayerCount: 2
Fore
SplineSet
132 717 m 1,0,-1
 133 720 l 1,1,-1
 261 720 l 1,2,-1
 354 575 l 1,3,-1
 252 575 l 1,4,-1
 132 717 l 1,0,-1
531 511 m 1,5,-1
 531 120 l 2,6,7
 531 105 531 105 540 97.5 c 128,-1,8
 549 90 549 90 564 90 c 0,9,10
 579 90 579 90 601 101 c 1,11,-1
 601 11 l 1,12,13
 564 -10 564 -10 513 -10 c 0,14,15
 413 -10 413 -10 397 63 c 1,16,17
 334 -10 334 -10 249.5 -10 c 0,18,19
 165 -10 165 -10 114.5 32 c 128,-1,20
 64 74 64 74 64 154 c 2,21,-1
 64 511 l 1,22,-1
 210 511 l 1,23,-1
 210 186 l 2,24,25
 210 147 210 147 232.5 121.5 c 128,-1,26
 255 96 255 96 292 96 c 0,27,28
 329 96 329 96 357 125.5 c 128,-1,29
 385 155 385 155 385 197 c 2,30,-1
 385 511 l 1,31,-1
 531 511 l 1,5,-1
EndSplineSet
EndChar

StartChar: uhungarumlaut
Encoding: 369 369 190
Width: 612
GlyphClass: 2
Flags: MW
HStem: -10 100<478 567.5> -10 106<266.5 279> 491 20G<64 210 210 210 385 531 531 531> 575 145<222 231 129 350 320 320 320 350 413 422>
VStem: 64 146<160 186 186 511> 385 146<197 511>
LayerCount: 2
Fore
SplineSet
222 720 m 1,0,-1
 350 720 l 1,1,-1
 352 717 l 1,2,-1
 231 575 l 1,3,-1
 129 575 l 1,4,-1
 222 720 l 1,0,-1
413 720 m 1,5,-1
 541 720 l 1,6,-1
 543 717 l 1,7,-1
 422 575 l 1,8,-1
 320 575 l 1,9,-1
 413 720 l 1,5,-1
531 511 m 1,10,-1
 531 120 l 2,11,12
 531 105 531 105 540 97.5 c 128,-1,13
 549 90 549 90 564 90 c 0,14,15
 579 90 579 90 601 101 c 1,16,-1
 601 11 l 1,17,18
 564 -10 564 -10 513 -10 c 0,19,20
 413 -10 413 -10 397 63 c 1,21,22
 334 -10 334 -10 249.5 -10 c 0,23,24
 165 -10 165 -10 114.5 32 c 128,-1,25
 64 74 64 74 64 154 c 2,26,-1
 64 511 l 1,27,-1
 210 511 l 1,28,-1
 210 186 l 2,29,30
 210 147 210 147 232.5 121.5 c 128,-1,31
 255 96 255 96 292 96 c 0,32,33
 329 96 329 96 357 125.5 c 128,-1,34
 385 155 385 155 385 197 c 2,35,-1
 385 511 l 1,36,-1
 531 511 l 1,10,-1
EndSplineSet
EndChar

StartChar: umacron
Encoding: 363 363 191
Width: 612
GlyphClass: 2
Flags: MW
HStem: -10 100<478 567.5> -10 106<266.5 279> 491 20G<64 210 210 210 385 531 531 531> 662 74<147 465 147 465>
VStem: 64 146<160 186 186 511> 385 146<197 511>
LayerCount: 2
Fore
SplineSet
147 736 m 1,0,-1
 465 736 l 1,1,-1
 465 662 l 1,2,-1
 147 662 l 1,3,-1
 147 736 l 1,0,-1
531 511 m 1,4,-1
 531 120 l 2,5,6
 531 105 531 105 540 97.5 c 128,-1,7
 549 90 549 90 564 90 c 0,8,9
 579 90 579 90 601 101 c 1,10,-1
 601 11 l 1,11,12
 564 -10 564 -10 513 -10 c 0,13,14
 413 -10 413 -10 397 63 c 1,15,16
 334 -10 334 -10 249.5 -10 c 0,17,18
 165 -10 165 -10 114.5 32 c 128,-1,19
 64 74 64 74 64 154 c 2,20,-1
 64 511 l 1,21,-1
 210 511 l 1,22,-1
 210 186 l 2,23,24
 210 147 210 147 232.5 121.5 c 128,-1,25
 255 96 255 96 292 96 c 0,26,27
 329 96 329 96 357 125.5 c 128,-1,28
 385 155 385 155 385 197 c 2,29,-1
 385 511 l 1,30,-1
 531 511 l 1,4,-1
EndSplineSet
EndChar

StartChar: uogonek
Encoding: 371 371 192
Width: 612
GlyphClass: 2
Flags: MW
HStem: -143 50<537.5 548.5> -10 106<266.5 279> -7 21G 491 20G<64 210 210 210 385 531 531 531>
VStem: 64 146<160 186 186 511> 385 146<197 511> 435 69<-71 -57.5>
LayerCount: 2
Fore
SplineSet
615 -79 m 1,0,-1
 628 -119 l 1,1,2
 584 -143 584 -143 538 -143 c 0,3,4
 435 -143 435 -143 435 -71 c 0,5,6
 435 -40 435 -40 478 -7 c 1,7,8
 410 5 410 5 397 63 c 1,9,10
 334 -10 334 -10 249.5 -10 c 128,-1,11
 165 -10 165 -10 114.5 32 c 128,-1,12
 64 74 64 74 64 154 c 2,13,-1
 64 511 l 1,14,-1
 210 511 l 1,15,-1
 210 186 l 2,16,17
 210 147 210 147 232.5 121.5 c 128,-1,18
 255 96 255 96 292 96 c 128,-1,19
 329 96 329 96 357 125.5 c 128,-1,20
 385 155 385 155 385 197 c 2,21,-1
 385 511 l 1,22,-1
 531 511 l 1,23,-1
 531 120 l 2,24,25
 531 105 531 105 540 97.5 c 128,-1,26
 549 90 549 90 564 90 c 128,-1,27
 579 90 579 90 601 101 c 1,28,-1
 601 11 l 1,29,30
 568 -6 568 -6 537 -9 c 1,31,32
 504 -30 504 -30 504 -57 c 0,33,34
 504 -93 504 -93 548 -93 c 0,35,36
 578 -93 578 -93 615 -79 c 1,0,-1
EndSplineSet
EndChar

StartChar: uring
Encoding: 367 367 193
Width: 612
GlyphClass: 2
Flags: MW
HStem: -10 100<478 567.5> -10 106<266.5 279> 491 20G<64 210 210 210 385 531 531 531> 544 57<294 318 294 334> 689 57<294 318>
VStem: 64 146<160 186 186 511> 205 57<633 657 633 673> 350 57<633 657> 385 146<197 511>
LayerCount: 2
Fore
SplineSet
205 645 m 128,-1,1
 205 687 205 687 234.5 716.5 c 128,-1,2
 264 746 264 746 306 746 c 128,-1,3
 348 746 348 746 377.5 716.5 c 128,-1,4
 407 687 407 687 407 645 c 128,-1,5
 407 603 407 603 377.5 573.5 c 128,-1,6
 348 544 348 544 306 544 c 128,-1,7
 264 544 264 544 234.5 573.5 c 128,-1,0
 205 603 205 603 205 645 c 128,-1,1
262 645 m 128,-1,9
 262 627 262 627 275 614 c 128,-1,10
 288 601 288 601 306 601 c 128,-1,11
 324 601 324 601 337 614 c 128,-1,12
 350 627 350 627 350 645 c 128,-1,13
 350 663 350 663 337 676 c 128,-1,14
 324 689 324 689 306 689 c 128,-1,15
 288 689 288 689 275 676 c 128,-1,8
 262 663 262 663 262 645 c 128,-1,9
531 511 m 1,16,-1
 531 120 l 2,17,18
 531 105 531 105 540 97.5 c 128,-1,19
 549 90 549 90 564 90 c 0,20,21
 579 90 579 90 601 101 c 1,22,-1
 601 11 l 1,23,24
 564 -10 564 -10 513 -10 c 0,25,26
 413 -10 413 -10 397 63 c 1,27,28
 334 -10 334 -10 249.5 -10 c 0,29,30
 165 -10 165 -10 114.5 32 c 128,-1,31
 64 74 64 74 64 154 c 2,32,-1
 64 511 l 1,33,-1
 210 511 l 1,34,-1
 210 186 l 2,35,36
 210 147 210 147 232.5 121.5 c 128,-1,37
 255 96 255 96 292 96 c 0,38,39
 329 96 329 96 357 125.5 c 128,-1,40
 385 155 385 155 385 197 c 2,41,-1
 385 511 l 1,42,-1
 531 511 l 1,16,-1
EndSplineSet
EndChar

StartChar: v
Encoding: 118 118 194
Width: 536
GlyphClass: 2
Flags: MW
HStem: 0 21G<185 185 185 350> 0 169<185 277 272 277 272 350> 491 20G<6 161 161 161 388 530 530 530>
VStem: 6 524<511 511>
LayerCount: 2
Fore
SplineSet
185 0 m 1,0,-1
 6 511 l 1,1,-1
 161 511 l 1,2,-1
 272 169 l 1,3,-1
 277 169 l 1,4,-1
 388 511 l 1,5,-1
 530 511 l 1,6,-1
 350 0 l 1,7,-1
 185 0 l 1,0,-1
EndSplineSet
EndChar

StartChar: w
Encoding: 119 119 195
Width: 820
GlyphClass: 2
Flags: MW
HStem: 0 21G<162 325 162 162 497 497 497 658> 0 195<245 251 245 325 162 251 577 583> 491 20G<6 157 157 157 342 488 488 488 672 814 814 814>
VStem: 6 808<511 511>
LayerCount: 2
Fore
SplineSet
488 511 m 1,0,1
 530.935483871 354.870967742 530.935483871 354.870967742 577 195 c 1,2,-1
 583 195 l 1,3,4
 643 405 643 405 672 511 c 1,5,-1
 814 511 l 1,6,-1
 658 0 l 1,7,-1
 497 0 l 1,8,-1
 413 285 l 1,9,-1
 407 285 l 1,10,11
 353 95 353 95 325 0 c 1,12,-1
 162 0 l 1,13,-1
 6 511 l 1,14,-1
 157 511 l 1,15,16
 187 405 187 405 245 195 c 1,17,-1
 251 195 l 1,18,19
 272.692307692 274.538461538 272.692307692 274.538461538 342 511 c 1,20,-1
 488 511 l 1,0,1
EndSplineSet
EndChar

StartChar: x
Encoding: 120 120 196
Width: 553
GlyphClass: 2
Flags: MW
HStem: 0 21G<6 164 6 6 377 546 377 377> 491 20G<20 190 190 190 378 536 536 536>
VStem: 6 540<0 0>
LayerCount: 2
Fore
SplineSet
190 511 m 1,0,-1
 281 365 l 1,1,-1
 285 365 l 1,2,3
 297 384 297 384 378 511 c 1,4,-1
 536 511 l 1,5,-1
 369 265 l 1,6,-1
 546 0 l 1,7,-1
 377 0 l 1,8,-1
 273 165 l 1,9,-1
 269 165 l 1,10,-1
 164 0 l 1,11,-1
 6 0 l 1,12,-1
 185 264 l 1,13,-1
 20 511 l 1,14,-1
 190 511 l 1,0,-1
EndSplineSet
EndChar

StartChar: y
Encoding: 121 121 197
Width: 536
GlyphClass: 2
Flags: MW
HStem: -187 104<109.5 129.5 96 181.5> 491 20G<6 161 161 161 386 530 530 530>
VStem: 6 524<511 511>
LayerCount: 2
Fore
SplineSet
530 511 m 1,0,-1
 348 28 l 2,1,2
 267 -187 267 -187 127 -187 c 0,3,4
 74 -187 74 -187 41 -172 c 1,5,-1
 41 -69 l 1,6,7
 74 -83 74 -83 108 -83 c 0,8,9
 172 -83 172 -83 199 10 c 1,10,-1
 6 511 l 1,11,-1
 161 511 l 1,12,-1
 274 190 l 1,13,-1
 280 190 l 1,14,-1
 386 511 l 1,15,-1
 530 511 l 1,0,-1
EndSplineSet
EndChar

StartChar: yacute
Encoding: 253 253 198
Width: 545
GlyphClass: 2
Flags: MW
HStem: -187 104<113.5 133.5 100 185.5> 491 20G<10 165 165 165 390 534 534 534> 575 145<316 325 224 445>
VStem: 10 524<511 511>
LayerCount: 2
Fore
SplineSet
316 720 m 1,0,-1
 445 720 l 1,1,-1
 446 717 l 1,2,-1
 325 575 l 1,3,-1
 224 575 l 1,4,-1
 316 720 l 1,0,-1
534 511 m 1,5,-1
 352 28 l 2,6,7
 271 -187 271 -187 131 -187 c 0,8,9
 78 -187 78 -187 45 -172 c 1,10,-1
 45 -69 l 1,11,12
 78 -83 78 -83 112 -83 c 0,13,14
 176 -83 176 -83 203 10 c 1,15,-1
 10 511 l 1,16,-1
 165 511 l 1,17,-1
 278 190 l 1,18,-1
 284 190 l 1,19,-1
 390 511 l 1,20,-1
 534 511 l 1,5,-1
EndSplineSet
EndChar

